<?xml version="1.0" encoding="utf-8"?>
<!-- Generator: Adobe Illustrator 19.1.1, SVG Export Plug-In . SVG Version: 6.00 Build 0)  -->
<svg version="1.1" id="Layer_1" xmlns="http://www.w3.org/2000/svg" xmlns:xlink="http://www.w3.org/1999/xlink" x="0px" y="0px"
	 width="126px" height="90px" viewBox="0 0 126 90" enable-background="new 0 0 126 90" xml:space="preserve">
<g>
	<path fill="#FFD700" d="M18.37,39.445h8.145c5.117-0.078,9.141-1.425,12.07-4.043c2.93-2.617,4.395-6.152,4.395-10.605
		c0-10-4.98-15-14.941-15c-4.688,0-8.43,1.338-11.221,4.014c-2.793,2.676-4.189,6.221-4.189,10.635H1.788
		c0-6.757,2.469-12.373,7.412-16.846c4.941-4.472,11.221-6.709,18.838-6.709c8.047,0,14.355,2.129,18.925,6.387
		s6.855,10.176,6.855,17.754c0,3.711-1.201,7.305-3.604,10.781c-2.402,3.477-5.675,6.075-9.814,7.793
		c4.688,1.485,8.31,3.946,10.869,7.383c2.557,3.438,3.838,7.638,3.838,12.598c0,7.657-2.5,13.731-7.5,18.223
		c-5.001,4.493-11.505,6.738-19.511,6.738c-8.008,0-14.523-2.168-19.541-6.504c-5.02-4.336-7.529-10.058-7.529-17.168h10.898
		c0,4.493,1.465,8.086,4.395,10.781S23.174,79.7,28.096,79.7c5.234,0,9.236-1.366,12.012-4.102c2.773-2.733,4.16-6.659,4.16-11.777
		c0-4.96-1.523-8.769-4.57-11.426c-3.047-2.656-7.441-4.023-13.184-4.102H18.37C18.37,48.293,18.37,39.445,18.37,39.445z"/>
</g>
<g>
	<path fill="#020202" stroke="#010101" stroke-width="0.5" stroke-miterlimit="10" d="M122.495,76.598v-3.782
		c0-5.11-4.035-9.268-8.994-9.268h-0.005h-0.249l-8.93-12.583c-0.188-0.264-0.49-0.421-0.814-0.421H94.5v-6.997c0-0.553-0.448-1-1-1
		h-40c-0.553,0-1,0.447-1,1v33.052c-1.691,0.245-3,1.69-3,3.449c0,1.93,1.57,3.5,3.5,3.5h6.796c0.863,2.887,3.54,4.999,6.704,4.999
		c3.165,0,5.842-2.112,6.705-4.999h30.591c0.863,2.887,3.541,4.999,6.705,4.999s5.842-2.112,6.705-4.999h4.795
		c1.93,0,3.499-1.57,3.499-3.501C125.5,78.286,124.189,76.841,122.495,76.598z"/>
	<path fill="#FFFFFF" stroke="#010101" stroke-width="0.5" stroke-miterlimit="10" d="M94.5,52.544h8.485l7.809,11.004H99.5V56.61
		c0-0.553-0.448-1-1-1s-1,0.447-1,1v7.938c0,0.553,0.448,1,1,1h14.229h0.767h0.005c3.856,0,6.994,3.26,6.994,7.268v3.732h-5.104
		c-1.263-1.236-2.988-2.001-4.89-2.001s-3.628,0.765-4.891,2.001H94.5V52.544z"/>
	<path fill="#FFFFFF" stroke="#010101" stroke-width="0.5" stroke-miterlimit="10" d="M54.5,44.547h38v6.994
		c-0.016,6.003-0.011,12.004-0.005,18.006l0.004,7.001H71.391c-1.263-1.236-2.989-2.001-4.891-2.001s-3.627,0.765-4.891,2.001H54.5
		V44.547z"/>
	<path fill="#FFFFFF" stroke="#010101" stroke-width="0.5" stroke-miterlimit="10" d="M53,81.548c-0.827,0-1.5-0.674-1.5-1.501
		c0-0.826,0.673-1.499,1.5-1.499h0.5h6.685c-0.434,0.91-0.685,1.925-0.685,2.999v0.001H53z"/>
	<path fill="#FFFFFF" stroke="#010101" stroke-width="0.5" stroke-miterlimit="10" d="M66.5,86.547c-2.757,0-5-2.243-5-5
		s2.243-5,5-5s5,2.243,5,5S69.257,86.547,66.5,86.547z"/>
	<path fill="#FFFFFF" stroke="#010101" stroke-width="0.5" stroke-miterlimit="10" d="M73.5,81.548L73.5,81.548
		c0-1.075-0.25-2.09-0.685-3H93.5h10.685c-0.434,0.91-0.684,1.925-0.684,2.999v0.001H73.5z"/>
	<path fill="#FFFFFF" stroke="#010101" stroke-width="0.5" stroke-miterlimit="10" d="M110.501,86.547c-2.758,0-5-2.243-5-5
		s2.242-5,5-5c2.757,0,5,2.243,5,5S113.258,86.547,110.501,86.547z"/>
	<path fill="#FFFFFF" stroke="#010101" stroke-width="0.5" stroke-miterlimit="10" d="M122.001,81.548h-4.5v-0.001
		c0-1.074-0.25-2.089-0.685-2.999h5.185c0.826,0,1.499,0.673,1.499,1.5S122.827,81.548,122.001,81.548z"/>
	<path fill="#020202" stroke="#010101" stroke-width="0.5" stroke-miterlimit="10" d="M66.5,78.547c-1.654,0-3,1.346-3,3
		s1.346,3,3,3s3-1.346,3-3S68.154,78.547,66.5,78.547z M66.5,82.547c-0.551,0-1-0.448-1-1s0.449-1,1-1c0.552,0,1,0.448,1,1
		S67.052,82.547,66.5,82.547z"/>
	<path fill="#020202" stroke="#010101" stroke-width="0.5" stroke-miterlimit="10" d="M110.501,78.547c-1.654,0-3,1.346-3,3
		s1.346,3,3,3s3-1.346,3-3S112.155,78.547,110.501,78.547z M110.501,82.547c-0.552,0-1-0.448-1-1s0.448-1,1-1c0.551,0,1,0.448,1,1
		S111.052,82.547,110.501,82.547z"/>
</g>
</svg>
