<?xml version="1.0" encoding="utf-8"?>
<!-- Generator: Adobe Illustrator 19.1.1, SVG Export Plug-In . SVG Version: 6.00 Build 0)  -->
<svg version="1.1" id="Layer_1" xmlns="http://www.w3.org/2000/svg" xmlns:xlink="http://www.w3.org/1999/xlink" x="0px" y="0px"
	 width="45px" height="112px" viewBox="0 0 45 112" enable-background="new 0 0 45 112" xml:space="preserve">
<path fill="#020202" d="M13.374,111.519h18.405c7.011,0,12.714-5.703,12.714-12.714V60.736c0.146-4.358-1.945-8.371-5.594-10.75
	l-0.447-0.292l0.321-0.427c1.005-1.338,1.473-2.643,1.473-4.104c0-3.334-2.408-5.977-5.856-6.426l-0.436-0.057v-2.012
	c0-2.405-1.813-4.219-4.219-4.219h-0.761L25.619,3.533c-0.134-1.471-1.49-2.704-2.964-2.704c-1.562,0-2.835,1.155-2.963,2.688
	l-3.356,28.932h-0.759c-2.405,0-4.219,1.813-4.219,4.219v2.03l-0.455,0.042c-3.273,0.298-5.837,3.12-5.837,6.424
	c0,1.46,0.468,2.765,1.473,4.104l0.32,0.427l-0.447,0.292C2.81,52.334,0.66,56.294,0.66,60.579v38.226
	C0.66,105.815,6.364,111.519,13.374,111.519z"/>
<rect x="15.734" y="36.825" fill="#444545" stroke="#444545" stroke-miterlimit="10" width="14.001" height="1.416"/>
<polygon fill="#444545" stroke="#444545" stroke-miterlimit="10" points="22.813,14.644 24.858,31.948 20.768,31.948 "/>
<path fill="#444545" stroke="#444545" stroke-miterlimit="10" d="M11.801,47.522c-1.258,0-2.202-0.944-2.202-2.202
	s0.944-2.202,2.202-2.202h22.023c1.258,0,2.202,0.944,2.202,2.202s-0.944,2.202-2.202,2.202h-1.888H13.689H11.801z"/>
<rect x="5.194" y="66.662" fill="#FAD604" stroke="#FAD604" stroke-miterlimit="10" width="35.395" height="27.833"/>
<path fill="#FFFFFF" stroke="#FFFFFF" stroke-miterlimit="10" d="M5.194,61.303v4.093h35.395v-4.093
	c0-4.719-3.775-8.495-8.495-8.495H13.689C8.969,52.808,5.194,56.584,5.194,61.303z"/>
<path fill="#FFFFFF" stroke="#FFFFFF" stroke-miterlimit="10" d="M40.133,99.204v-4.093H4.739v4.093
	c0,4.719,3.775,8.495,8.495,8.495h18.405C36.358,107.699,40.133,103.924,40.133,99.204z"/>
<rect x="1.936" y="64.23" fill="#020202" width="40.833" height="3.5"/>
<rect x="1.936" y="92.038" fill="#020202" width="40.833" height="3.5"/>
</svg>
