<?xml version="1.0" encoding="utf-8"?>
<!-- Generator: Adobe Illustrator 19.1.1, SVG Export Plug-In . SVG Version: 6.00 Build 0)  -->
<svg version="1.1" id="Layer_1" xmlns="http://www.w3.org/2000/svg" xmlns:xlink="http://www.w3.org/1999/xlink" x="0px" y="0px"
	 width="85.04px" height="85.039px" viewBox="0 3.671 85.04 85.039" enable-background="new 0 3.671 85.04 85.039"
	 xml:space="preserve">
<path id="Ellipse_6_copy_2" fill="#FCD602" d="M42.722,3.709C66.194,3.832,85.122,22.959,85,46.431
	c-0.123,23.472-19.25,42.4-42.722,42.278C18.894,88.586,0.002,69.597,0,46.213C0.059,22.679,19.185,3.649,42.719,3.709
	C42.72,3.709,42.721,3.709,42.722,3.709z"/>
<g>
	<path d="M76.264,44.715h-5.493V28.657h1.857c0.637,0,1.155-0.517,1.154-1.154c0-0.637-0.518-1.154-1.154-1.154h-3.007
		c-0.001,0-0.003-0.001-0.004-0.001h-12.41c-0.001,0-0.003,0.001-0.004,0.001h-3.008c-0.635,0-1.154,0.517-1.154,1.154
		s0.519,1.154,1.154,1.154h1.858v16.059h-6.06V28.657h1.857c0.636,0,1.154-0.517,1.154-1.154s-0.518-1.154-1.154-1.154h-3.007
		c-0.001,0-0.003-0.001-0.004-0.001h-12.41c-0.001,0-0.003,0.001-0.004,0.001h-3.008c-0.636,0-1.154,0.517-1.154,1.154
		s0.519,1.154,1.154,1.154h1.858v16.059h-6.06V28.657h1.857c0.637,0,1.155-0.517,1.154-1.154c0-0.637-0.518-1.154-1.154-1.154
		h-3.008c-0.001,0-0.003-0.001-0.004-0.001H15.653c-0.001,0-0.003,0.001-0.004,0.001h-3.008c-0.637,0-1.155,0.517-1.155,1.154
		s0.519,1.154,1.155,1.154h1.857v16.059H8.736c-0.635,0-1.154,0.516-1.154,1.154v37.068c0,0.638,0.518,1.154,1.154,1.154h6.398
		v3.464c0,0.637,0.514,1.154,1.154,1.154H27.42c0.64,0,1.154-0.517,1.154-1.154v-3.464h28.113v3.464
		c0,0.637,0.514,1.154,1.155,1.154h11.132c0.641,0,1.155-0.517,1.155-1.154v-3.464h6.132c0.639,0,1.154-0.515,1.154-1.154V45.869
		C77.418,45.232,76.904,44.715,76.264,44.715z"/>
	<rect x="58.363" y="28.657" fill="#FFFFFF" width="10.099" height="16.059"/>
	<path fill="#FCD602" d="M58.363,47.024h10.099v18.839c0,2.784-2.269,5.049-5.05,5.049c-2.786,0-5.05-2.265-5.05-5.049
		L58.363,47.024L58.363,47.024z"/>
	<rect x="37.585" y="28.657" fill="#FFFFFF" width="10.1" height="16.059"/>
	<path fill="#FCD602" d="M37.585,47.024h10.1v18.839c0,2.784-2.268,5.049-5.05,5.049c-2.786,0-5.051-2.265-5.051-5.049
		L37.585,47.024L37.585,47.024z"/>
	<rect x="16.808" y="28.657" fill="#FFFFFF" width="10.099" height="16.059"/>
	<path fill="#FCD602" d="M16.808,47.024h10.099v18.839c0,2.784-2.268,5.049-5.05,5.049c-2.786,0-5.05-2.265-5.05-5.049
		L16.808,47.024L16.808,47.024z"/>
	<rect x="17.443" y="84.092" fill="#424343" width="8.824" height="2.309"/>
	<rect x="58.998" y="84.092" fill="#424343" width="8.824" height="2.309"/>
	<path fill="#FFFFFF" d="M75.108,81.784H9.891v-34.76h4.608v18.838c0,4.059,3.301,7.36,7.359,7.36s7.359-3.301,7.358-7.36V47.024
		h6.06v18.838c0,4.059,3.301,7.36,7.359,7.36c4.057,0,7.358-3.301,7.358-7.36V47.024h6.06v18.838c0,4.059,3.3,7.36,7.358,7.36
		s7.359-3.301,7.359-7.36V47.024h4.337L75.108,81.784L75.108,81.784z"/>
	<path d="M24.189,65.558c0.64,0,1.154-0.516,1.154-1.154v-1.021c0-0.638-0.514-1.155-1.154-1.155c-0.636,0-1.154,0.516-1.154,1.155
		v1.021C23.035,65.041,23.553,65.558,24.189,65.558z"/>
	<path d="M24.189,60.921c0.64,0,1.154-0.517,1.154-1.155v-9.983c0-0.637-0.514-1.154-1.154-1.154c-0.636,0-1.154,0.517-1.154,1.154
		v9.983C23.035,60.404,23.553,60.921,24.189,60.921z"/>
	<path d="M65.744,65.558c0.641,0,1.154-0.516,1.154-1.154v-1.021c0-0.638-0.513-1.155-1.154-1.155c-0.634,0-1.154,0.516-1.154,1.155
		v1.021C64.589,65.041,65.109,65.558,65.744,65.558z"/>
	<path d="M65.744,60.921c0.641,0,1.154-0.517,1.154-1.155v-9.983c0-0.637-0.513-1.154-1.154-1.154c-0.634,0-1.154,0.517-1.154,1.154
		v9.983C64.589,60.404,65.109,60.921,65.744,60.921z"/>
	<path d="M45.111,65.558c0.64,0,1.154-0.516,1.154-1.154v-1.021c0-0.638-0.514-1.155-1.154-1.155c-0.636,0-1.154,0.516-1.154,1.155
		v1.021C43.956,65.041,44.475,65.558,45.111,65.558z"/>
	<path d="M45.111,60.921c0.64,0,1.154-0.517,1.154-1.155v-9.983c0-0.637-0.514-1.154-1.154-1.154c-0.636,0-1.154,0.517-1.154,1.154
		v9.983C43.956,60.404,44.475,60.921,45.111,60.921z"/>
</g>
</svg>
