<?xml version="1.0" encoding="utf-8"?>
<!-- Generator: Adobe Illustrator 19.1.1, SVG Export Plug-In . SVG Version: 6.00 Build 0)  -->
<svg version="1.1" id="Layer_1" xmlns="http://www.w3.org/2000/svg" xmlns:xlink="http://www.w3.org/1999/xlink" x="0px" y="0px"
	 width="102.047px" height="90.709px" viewBox="0 0 102.047 90.709" enable-background="new 0 0 102.047 90.709"
	 xml:space="preserve">
<g>
	<path fill="#FFD701" d="M41.104,88.274H30.205V16.028L8.35,24.055v-9.844l31.055-11.66h1.699V88.274z"/>
</g>
<g>
	<path fill="#010101" d="M38.023,43.292c-0.513,0.513-0.513,1.345,0,1.858l5.575,5.575c0.513,0.513,1.345,0.513,1.858,0
		c0.513-0.513,0.513-1.345,0-1.858l-5.575-5.575C39.369,42.779,38.537,42.779,38.023,43.292z"/>
	<path fill="#010101" d="M54.807,38.588c-0.171,0.162-0.3,0.382-0.392,0.653l-2.047,7.622c-0.188,0.701,0.228,1.409,0.929,1.597
		c0.701,0.188,1.409-0.228,1.597-0.929l2.047-7.622c0.188-0.701-0.228-1.409-0.929-1.597C55.489,38.209,55.091,38.318,54.807,38.588
		z"/>
	<path fill="#010101" d="M33.29,60.134c-0.258,0.317-0.324,0.725-0.247,1.147c0.188,0.701,0.896,1.117,1.597,0.929l7.622-2.047
		c0.701-0.188,1.117-0.896,0.929-1.597c-0.188-0.701-0.896-1.117-1.597-0.929l-7.622,2.047
		C33.667,59.779,33.445,59.944,33.29,60.134z"/>
	<path fill="#010101" d="M47.315,52.584c-2.043,2.043-2.043,5.39,0,7.433l11.862,11.862c-1.819-0.668-4.196-0.98-5.822-0.014
		c-2.241,1.284-2.99,4.853-1.844,6.983c0.663,1.164,1.865,2.04,3.63,2.817c8.218,3.39,16.762,5.991,24.609,6.606
		c0.372,0.026,0.752-0.115,1.016-0.377L93.31,75.349c0.198-0.198,0.325-0.463,0.363-0.74c0.347-2.328-0.263-5.094-1.379-8
		c-1.116-2.906-2.764-5.924-4.689-8.551c-1.925-2.628-4.059-4.758-6.446-6.156c-2.304-1.349-5.113-1.58-7.259,0.116
		c-0.453,0.453-0.894,0.969-1.205,1.466c-0.808-0.331-1.628-0.483-2.337-0.363c-1.188,0.202-2.05,0.754-2.613,1.336
		c-0.54,0.559-0.842,1.261-0.973,2.018c-0.505-0.105-1.028-0.217-1.481-0.145c-1.189,0.189-2.06,0.783-2.642,1.365
		c-0.481,0.481-0.814,1.081-1.074,1.713l-6.824-6.824C52.223,50.137,49.027,50.864,47.315,52.584L47.315,52.584z"/>
	<path fill="#FFFFFF" d="M49.174,54.443c1.046-1.046,2.671-1.046,3.717,0l8.827,8.827c0.415,0.427,1.136,0.505,1.641,0.189
		s0.741-0.994,0.537-1.554c-0.221-0.632,0.107-1.85,0.61-2.352c0.226-0.226,0.738-0.55,1.205-0.624
		c0.467-0.074,0.906-0.052,1.582,0.624c0.413,0.413,1.114,0.494,1.612,0.189c0.498-0.305,0.746-0.969,0.566-1.524
		c-0.378-1.133-0.298-1.458,0.16-1.931c0.124-0.133,0.663-0.496,1.161-0.581c0.498-0.085,0.953-0.064,1.612,0.595
		c0.357,0.367,0.932,0.492,1.408,0.305c0.476-0.187,0.828-0.679,0.842-1.191c0.179-0.526,0.472-0.924,0.929-1.365
		c1.249-0.967,2.518-0.848,4.297,0.145c1.796,1.002,3.81,2.987,5.59,5.415c1.78,2.429,3.348,5.28,4.37,7.942
		c0.959,2.497,1.367,4.788,1.234,6.316L79.358,85.585c-7.109-0.586-16.132-3.38-23.143-6.33c-1.51-0.665-2.173-1.252-2.425-1.699
		c-0.554-1.243-0.098-2.714,0.857-3.412c1.36-0.616,2.264-0.201,3.441,0.131l5.546,1.858c0.556,0.18,1.219-0.068,1.524-0.566
		c0.305-0.498,0.223-1.198-0.189-1.612L49.174,58.159C48.128,57.114,48.128,55.488,49.174,54.443z"/>
</g>
</svg>
