<?xml version="1.0" encoding="utf-8"?>
<!-- Generator: Adobe Illustrator 19.1.1, SVG Export Plug-In . SVG Version: 6.00 Build 0)  -->
<svg version="1.1" id="Layer_1" xmlns="http://www.w3.org/2000/svg" xmlns:xlink="http://www.w3.org/1999/xlink" x="0px" y="0px"
	 width="35px" height="43px" viewBox="0 0 35 43" enable-background="new 0 0 35 43" xml:space="preserve">
<path fill="#292929" d="M30.729,4.039c-2.969-2.578-6.982-3.867-12.041-3.867H2.398v30.949H0.202v5h2.196v6.707h9.902v-6.707h9.901
	v-5h-9.901v-2.912h6.387c5.059,0,9.072-1.284,12.041-3.853c2.969-2.567,4.453-5.952,4.453-10.151S33.697,6.617,30.729,4.039z
	 M23.609,18.819c-1.133,1.183-2.773,1.772-4.922,1.772h-6.387V7.789h6.387c2.168,0,3.813,0.605,4.937,1.816s1.685,2.764,1.685,4.658
	C25.309,16.119,24.742,17.638,23.609,18.819z"/>
</svg>
