<?xml version="1.0" encoding="utf-8"?>
<!-- Generator: Adobe Illustrator 19.1.1, SVG Export Plug-In . SVG Version: 6.00 Build 0)  -->
<svg version="1.1" id="Layer_1" xmlns="http://www.w3.org/2000/svg" xmlns:xlink="http://www.w3.org/1999/xlink" x="0px" y="0px"
	 width="64px" height="64px" viewBox="0 0 64 64" enable-background="new 0 0 64 64" xml:space="preserve">
<circle fill="#F9D607" cx="32" cy="32" r="32"/>
<g>
	<path fill="#030303" d="M50.587,58.118c-0.272,1.451-0.97,2.751-1.963,3.756C47.33,63.188,45.542,64,43.573,64
		s-3.756-0.812-5.051-2.124c-0.993-1.006-1.691-2.305-1.963-3.756H20.583c-0.283,1.421-0.975,2.691-1.951,3.677
		c-1.294,1.312-3.082,2.126-5.051,2.126s-3.756-0.813-5.051-2.126c-0.975-0.988-1.668-2.257-1.944-3.677H5.262
		c-0.837,0-1.577-0.56-1.818-1.36c0-12.498,0-24.995,0-37.499c12.017,0,24.032,0,36.047,0v11.867h8.76
		c1.319,0,1.974,0.735,2.432,1.481l4.497,7.309c1.084,0.776,2.606,1.734,3.499,2.684c0.584,0.626,0.999,1.361,0.999,2.257v7.416
		c0.114,0.072,0.222,0.163,0.319,0.26l0.005,0.007c0.344,0.341,0.555,0.817,0.555,1.334v2.353c0,1.041-0.856,1.892-1.89,1.892
		h-8.073L50.587,58.118L50.587,58.118z"/>
	<path fill="#454646" d="M17.344,52.845c-0.963-0.975-2.294-1.584-3.769-1.584s-2.806,0.301-3.768,1.283
		c-0.97,0.981-1.565,2.643-1.565,4.141c0,1.505,0.596,2.86,1.565,3.841c0.963,0.974,2.294,1.584,3.769,1.584
		s2.806-0.601,3.769-1.584c0.97-0.983,1.565-2.342,1.565-3.841C18.909,55.181,18.313,53.826,17.344,52.845z"/>
	<path fill="#FFFFFF" d="M13.581,49.456c1.969,0,3.756,0.813,5.051,2.126c0.127,0.127,0.247,0.26,0.361,0.39h18.693V21.06H5.249
		v30.913h2.926c0.114-0.137,0.235-0.264,0.361-0.397c1.294-1.314,3.082-2.126,5.051-2.126L13.581,49.456z"/>
	<path fill="#030303" d="M43.573,54.181c1.421,0,2.565,1.174,2.565,2.588c0,1.415-1.144,2.588-2.565,2.588
		c-1.421,0-2.565-1.174-2.565-2.588S42.153,54.181,43.573,54.181z"/>
	<path fill="#030303" d="M43.573,55.988c-0.434,0-0.759,0.356-0.759,0.783c0,0.427,0.324,0.783,0.759,0.783
		c0.434,0,0.759-0.356,0.759-0.783C44.332,56.343,44.006,55.988,43.573,55.988z"/>
	<path fill="#F9D607" d="M43.573,49.541c1.969,0,3.756,0.813,5.051,2.124c0.102,0.102,0.199,0.204,0.288,0.313h8.952v-3.876h-2.149
		c-0.247,0-0.476-0.102-0.639-0.264c-0.356-0.356-0.356-0.921,0-1.276c0.163-0.163,0.392-0.265,0.639-0.265h2.149v-1.431
		c0-0.361-0.217-0.705-0.512-1.03c-0.542-0.584-1.347-1.102-2.011-1.577H43.344c-1.252-0.211-2.269-1.156-2.396-2.45v-6.876h-1.463
		v17.91c1.156-0.819,2.565-1.301,4.082-1.301L43.573,49.541L43.573,49.541L43.573,49.541z"/>
	<path fill="#FFFFFF" d="M50.075,53.784c0.349,0.776,0.566,1.632,0.619,2.528h7.965c0.043,0,0.084-0.043,0.084-0.085v-2.353
		c0-0.048-0.036-0.084-0.084-0.084h-8.585V53.784z"/>
	<path fill="#FFFFFF" d="M36.445,56.313c0.054-0.897,0.27-1.746,0.619-2.528H20.114c0.336,0.783,0.548,1.632,0.59,2.528h15.738
		H36.445z"/>
	<path fill="#454646" d="M47.336,52.93c-0.963-0.975-2.294-1.584-3.768-1.584c-1.475,0-2.806,0.601-3.769,1.584
		c-0.97,0.981-1.566,2.342-1.566,3.841c0,1.505,0.595,2.86,1.566,3.841c0.963,0.975,2.293,1.584,3.769,1.584
		c1.474,0,2.806-0.601,3.768-1.584c0.968-0.981,1.565-2.342,1.565-3.841C48.901,55.265,48.305,53.911,47.336,52.93z"/>
	<g>
		<path fill="#454646" d="M45.543,54.757c-0.504-0.511-1.202-0.83-1.976-0.83s-1.471,0.315-1.976,0.83
			c-0.509,0.515-0.821,1.228-0.821,2.013c0,0.789,0.312,1.499,0.821,2.013c0.504,0.511,1.202,0.83,1.976,0.83
			c0.773,0,1.471-0.315,1.976-0.83c0.508-0.515,0.821-1.228,0.821-2.013C46.363,55.981,46.051,55.271,45.543,54.757z"/>
		<path fill="#020202" d="M43.568,60.407c-0.958,0-1.861-0.379-2.541-1.066c-0.676-0.684-1.05-1.598-1.05-2.572
			s0.374-1.886,1.05-2.57c1.342-1.372,3.718-1.377,5.079,0c0.676,0.684,1.049,1.598,1.049,2.57c0,0.973-0.372,1.887-1.049,2.572
			C45.434,60.028,44.531,60.407,43.568,60.407z M43.568,54.719c-0.535,0-1.036,0.211-1.411,0.592
			c-0.385,0.389-0.594,0.906-0.594,1.458c0,0.553,0.211,1.071,0.592,1.457c0.759,0.769,2.074,0.765,2.821,0.003
			c0.384-0.389,0.593-0.906,0.593-1.46c0-0.552-0.211-1.069-0.591-1.456l0,0C44.6,54.931,44.098,54.719,43.568,54.719z"/>
	</g>
	<g>
		<path fill="#454646" d="M15.551,54.673c-0.504-0.511-1.202-0.83-1.976-0.83c-0.774,0-1.471,0.315-1.976,0.83
			c-0.509,0.515-0.821,1.228-0.821,2.013c0,0.789,0.312,1.499,0.821,2.013c0.504,0.511,1.202,0.83,1.976,0.83
			c0.773,0,1.471-0.315,1.976-0.83c0.508-0.515,0.821-1.228,0.821-2.013C16.372,55.897,16.059,55.187,15.551,54.673z"/>
		<path fill="#020202" d="M13.576,60.323c-0.958,0-1.861-0.379-2.541-1.066c-0.676-0.684-1.049-1.597-1.049-2.57
			c0-0.972,0.372-1.886,1.049-2.57c1.343-1.372,3.718-1.377,5.079,0l0,0c0.676,0.684,1.049,1.598,1.049,2.57
			c0,0.972-0.372,1.885-1.049,2.57C15.441,59.943,14.539,60.323,13.576,60.323z M13.576,54.635c-0.535,0-1.034,0.211-1.409,0.592
			c-0.384,0.389-0.594,0.906-0.594,1.458s0.211,1.071,0.592,1.456c0.759,0.769,2.074,0.767,2.821,0.003
			c0.384-0.389,0.594-0.906,0.594-1.458s-0.211-1.069-0.592-1.456l0,0C14.608,54.846,14.107,54.635,13.576,54.635z"/>
	</g>
	<path fill="#FFFFFF" d="M42.755,32.937v6.803c0.089,0.385,0.379,0.578,0.728,0.716h9.896l-4.244-6.899
		c-0.133-0.217-0.338-0.619-0.897-0.619h-5.49C42.749,32.937,42.755,32.937,42.755,32.937z"/>
	<path fill="#FFFFFF" d="M6.447,56.313c0.048-0.897,0.253-1.746,0.59-2.528H5.249c-0.048,0-0.084,0.036-0.084,0.084v2.353
		c0,0.043,0.043,0.085,0.084,0.085h1.198V56.313z"/>
</g>
</svg>
