<?xml version="1.0" encoding="UTF-8" standalone="no"?>
<svg
   xmlns:dc="http://purl.org/dc/elements/1.1/"
   xmlns:cc="http://creativecommons.org/ns#"
   xmlns:rdf="http://www.w3.org/1999/02/22-rdf-syntax-ns#"
   xmlns:svg="http://www.w3.org/2000/svg"
   xmlns="http://www.w3.org/2000/svg"
   xml:space="preserve"
   enable-background="new -120 8.73 100 125"
   viewBox="-120 8.73 61.049141 56.692863"
   height="56.692863"
   width="61.049141"
   y="0px"
   x="0px"
   id="Layer_1"
   version="1.1"><metadata
     id="metadata11"><rdf:RDF><cc:Work
         rdf:about=""><dc:format>image/svg+xml</dc:format><dc:type
           rdf:resource="http://purl.org/dc/dcmitype/StillImage" /><dc:title></dc:title></cc:Work></rdf:RDF></metadata><defs
     id="defs9" /><g
     id="g3"
     transform="translate(-19.475323,-987.01554)"><path
       id="path5"
       d="m -52.288,1052.432 c 1.188,-0.094 2.072,-1.108 1.975,-2.263 -0.007,-0.086 -0.02,-0.172 -0.038,-0.256 l -3.812,-18.043 13.983,-12.421 c 0.881,-0.781 0.944,-2.108 0.142,-2.965 -0.352,-0.376 -0.834,-0.615 -1.354,-0.672 l -18.82,-2.055 -7.82,-16.773 c -0.489,-1.057 -1.766,-1.529 -2.853,-1.053 -0.481,0.21 -0.867,0.585 -1.083,1.053 l -7.82,16.773 -18.82,2.055 c -1.184,0.13 -2.036,1.169 -1.903,2.32 0.059,0.506 0.304,0.974 0.691,1.316 l 13.983,12.421 -3.812,18.043 c -0.24,1.135 0.513,2.245 1.68,2.478 0.512,0.102 1.045,0.02 1.5,-0.231 l 16.469,-9.097 16.469,9.097 c 0.377,0.211 0.81,0.306 1.243,0.273 z m -3.252,-6.206 -13.393,-7.404 c -0.661,-0.366 -1.472,-0.366 -2.134,0 l -13.393,7.404 3.097,-14.678 c 0.153,-0.726 -0.099,-1.476 -0.663,-1.974 l -11.383,-10.104 15.319,-1.672 c 0.757,-0.081 1.415,-0.544 1.73,-1.219 l 6.36,-13.64 6.36,13.64 c 0.315,0.675 0.972,1.138 1.73,1.219 l 15.319,1.672 -11.383,10.104 c -0.564,0.498 -0.816,1.249 -0.663,1.974 l 3.097,14.678 z" /></g></svg>