<?xml version="1.0" encoding="utf-8"?>
<!-- Generator: Adobe Illustrator 19.1.1, SVG Export Plug-In . SVG Version: 6.00 Build 0)  -->
<svg version="1.1" id="Layer_1" xmlns="http://www.w3.org/2000/svg" xmlns:xlink="http://www.w3.org/1999/xlink" x="0px" y="0px"
	 width="20px" height="15px" viewBox="0 0 20 15" enable-background="new 0 0 20 15" xml:space="preserve">
<path fill-rule="evenodd" clip-rule="evenodd" fill="#FFFFFF" d="M13.334,7.301L7.928,10.22V5.709v-1.36l2.454,1.327L13.334,7.301z
	 M19.801,3.354c0,0-0.199-1.459-0.797-2.089c-0.762-0.829-1.625-0.829-1.989-0.862C14.196,0.17,10.017,0.17,10.017,0.17H9.984
	c0,0-4.179,0-6.965,0.233C2.62,0.435,1.759,0.435,0.995,1.265c-0.598,0.63-0.797,2.089-0.797,2.089S0,5.013,0,6.704v0.199v1.393
	c0,1.692,0.199,3.383,0.199,3.383s0.199,1.426,0.797,2.056c0.763,0.829,1.757,0.796,2.222,0.896
	c1.592,0.166,6.799,0.199,6.799,0.199s4.18,0,6.999-0.199c0.364-0.066,1.227-0.066,1.989-0.896c0.598-0.63,0.797-2.056,0.797-2.056
	S20,9.988,20,8.296V7.002V6.704C20,5.013,19.801,3.354,19.801,3.354L19.801,3.354z"/>
</svg>
