<?xml version="1.0" encoding="utf-8"?>
<!-- Generator: Adobe Illustrator 19.1.1, SVG Export Plug-In . SVG Version: 6.00 Build 0)  -->
<svg version="1.1" id="Layer_1" xmlns="http://www.w3.org/2000/svg" xmlns:xlink="http://www.w3.org/1999/xlink" x="0px" y="0px"
	 width="215px" height="165px" viewBox="46 -50 215 165" enable-background="new 46 -50 215 165" xml:space="preserve">
<path fill="#FFFFFF" d="M96.02,55.862c0.184-2.721,0.315-5.332,0.392-7.836c0.076-2.504,0.051-4.771-0.076-6.804
	c-0.043-1.611-0.367-3.202-0.956-4.702c-0.201-0.518-0.59-0.941-1.089-1.185c-0.464-0.209-0.974-0.298-1.481-0.258
	c-0.541,0.045-1.073,0.17-1.577,0.373c-0.479,0.183-0.939,0.41-1.376,0.678c-0.32,0.188-0.602,0.435-0.831,0.726
	c-0.172,0.239-0.162,0.392,0,0.468c0.162,0.076,0.411,0.698,0.516,1.72s0.162,2.36,0.162,3.985c0,1.625,0,3.478-0.096,5.543
	c-0.096,2.064-0.134,4.186-0.191,6.374c-0.057,2.188-0.115,4.358-0.143,6.527c-0.029,2.169,0,4.167,0,5.973
	c0,1.806,0.182,3.364,0.344,4.673c0.049,0.944,0.317,1.863,0.784,2.685c0.424,0.708,1.111,1.22,1.911,1.424
	c0.633,0.142,1.292,0.117,1.911-0.076c0.524-0.16,0.994-0.461,1.357-0.87c0.334-0.392,0.459-0.726,0.373-0.956
	c-0.427-1.349-0.621-2.762-0.573-4.176c0-1.911,0.045-4.078,0.134-6.498C95.602,61.229,95.771,58.634,96.02,55.862z"/>
<path fill="#FFFFFF" d="M107.831,49.173c-0.533,1.43-1.253,2.782-2.141,4.023c-0.874,1.228-1.895,2.344-3.039,3.326
	c-1.122,0.933-2.386,1.679-3.746,2.208c-0.43,0.158-0.667,0.619-0.545,1.061c0.033,0.222,0.154,0.421,0.334,0.554
	c0.176,0.123,0.388,0.183,0.602,0.172c1.336-0.005,2.663-0.227,3.928-0.659l0.736-0.268c0.248-0.096,0.487-0.201,0.717-0.315
	c1.732-0.789,3.315-1.869,4.683-3.192c1.456-1.346,2.711-2.894,3.727-4.597c1.022-1.7,1.813-3.528,2.351-5.438
	c0.477-1.601,0.728-3.261,0.745-4.931c0.02-1.566-0.199-3.126-0.65-4.625c-0.493-1.588-1.271-3.074-2.294-4.386
	c-0.544-0.711-1.152-1.369-1.816-1.969c-0.692-0.624-1.437-1.187-2.227-1.682c-1.384-0.853-2.871-1.527-4.425-2.007
	c-1.395-0.423-2.835-0.677-4.291-0.755c-1.39-0.07-2.785,0.013-4.157,0.248c-1.366,0.235-2.708,0.587-4.014,1.051
	c-1.847,0.659-3.582,1.601-5.141,2.79c-1.686,1.261-3.216,2.718-4.558,4.339c-1.374,1.657-2.56,3.461-3.536,5.38
	c-0.964,1.842-1.665,3.811-2.083,5.848c-0.265,1.315-0.393,2.654-0.382,3.995c0.009,1.295,0.202,2.582,0.573,3.823
	c0.369,1.223,0.973,2.362,1.777,3.354c0.864,1.048,1.951,1.891,3.182,2.466c0.531,0.206,1.122,0.206,1.653,0
	c0.553-0.22,1.06-0.545,1.491-0.956c0.379-0.333,0.677-0.747,0.87-1.214c0.16-0.42,0.112-0.72-0.143-0.898
	c-1.252-0.83-2.246-1.995-2.867-3.364c-0.713-1.523-1.15-3.16-1.29-4.835c-0.163-1.845-0.071-3.704,0.277-5.524
	c0.344-1.888,0.969-3.715,1.854-5.418c0.882-1.701,2.03-3.25,3.402-4.587c3.12-3.138,7.705-4.321,11.955-3.087
	c2.037,0.574,3.891,1.668,5.38,3.173c1.51,1.557,2.641,3.44,3.306,5.504c0.736,2.208,1.002,4.545,0.784,6.861
	C108.702,46.191,108.371,47.717,107.831,49.173z"/>
<path fill="#FFFFFF" d="M119.414,18.22c-0.108,0.535-0.204,1.035-0.287,1.5c-0.08,0.349-0.08,0.712,0,1.061
	c0.231,0.82,0.786,1.511,1.539,1.911c0.678,0.37,1.428,0.594,2.198,0.659c0.644,0.055,1.293-0.012,1.911-0.201
	c0.554-0.182,0.784-0.411,0.688-0.688c-0.074-0.356-0.074-0.723,0-1.08c0.048-0.478,0.124-0.956,0.21-1.453
	c0.086-0.497,0.162-0.956,0.229-1.395c0.066-0.315,0.066-0.64,0-0.956c-0.219-0.809-0.752-1.497-1.481-1.911
	c-0.663-0.369-1.395-0.597-2.15-0.669c-0.641-0.078-1.292-0.023-1.911,0.162c-0.523,0.172-0.743,0.379-0.659,0.621
	c0.071,0.314,0.071,0.641,0,0.956C119.617,17.191,119.522,17.685,119.414,18.22z"/>
<path fill="#FFFFFF" d="M186.212,37.419c0.485-0.314,1.047-0.486,1.625-0.497c0.543-0.012,1.079,0.127,1.548,0.401
	c0.493,0.302,0.888,0.741,1.137,1.261c0.305,0.631,0.452,1.325,0.43,2.026c0,0.599,0.169,0.917,0.506,0.956
	c0.435,0.014,0.863-0.11,1.223-0.354c0.553-0.334,1.062-0.739,1.51-1.204c0.51-0.506,0.971-1.06,1.376-1.653
	c0.366-0.519,0.646-1.093,0.831-1.701c0.173-0.441,0.116-0.938-0.153-1.328c-0.599-0.777-1.451-1.321-2.408-1.539
	c-0.98-0.225-1.994-0.269-2.991-0.134c-1.024,0.137-2.029,0.397-2.991,0.774c-0.834,0.315-1.638,0.709-2.399,1.175
	c-2.013,1.357-3.718,3.122-5.008,5.18c-1.412,2.241-2.595,4.62-3.526,7.1c-0.919,2.186-1.723,4.419-2.408,6.689
	c-0.637,2.16-1.211,4.284-1.72,6.374s-0.972,4.176-1.386,6.259c-0.427,2.083-0.908,4.192-1.443,6.326
	c-0.535,2.134-1.134,4.329-1.797,6.584c-0.707,2.369-1.533,4.7-2.475,6.986c-0.21,0.497-0.478,1.134-0.803,1.911
	c-0.325,0.777-0.681,1.593-1.07,2.446c-0.389,0.848-0.806,1.669-1.252,2.466c-0.382,0.703-0.83,1.368-1.338,1.988
	c-0.347,0.459-0.808,0.817-1.338,1.042c-0.476,0.144-0.991-0.037-1.271-0.449c-0.51-0.559-0.843-1.258-0.956-2.007
	c-0.19-1.027-0.286-2.07-0.287-3.115c0-1.185,0.041-2.485,0.124-3.899s0.184-2.867,0.306-4.358c0.121-1.459,0.232-2.96,0.334-4.501
	c0.102-1.541,0.162-3.087,0.182-4.635c0-1.548-0.045-3.065-0.134-4.549c-0.097-1.444-0.304-2.878-0.621-4.291
	c-0.322-1.401-0.78-2.768-1.367-4.081c-0.519-1.146-1.208-2.206-2.045-3.144c-2.057-2-4.711-3.275-7.559-3.631
	c-1.535-0.231-3.095-0.248-4.635-0.048c-1.567,0.205-3.108,0.576-4.597,1.109c-1.526,0.548-2.992,1.249-4.377,2.093
	c-1.407,0.841-2.74,1.8-3.985,2.867c-0.567,0.485-1.204,1.07-1.911,1.758c-0.749,0.757-1.446,1.564-2.083,2.418
	c-0.752,1-1.444,2.043-2.074,3.125c-0.721,1.248-1.32,2.564-1.787,3.928c-0.589,1.623-0.958,3.316-1.099,5.036
	c-0.137,1.696-0.076,3.402,0.182,5.084c0.214,1.54,0.632,3.043,1.242,4.472c0.539,1.292,1.31,2.474,2.274,3.488
	c1.875,1.994,4.7,2.789,7.339,2.064c1.144-0.22,2.165-0.857,2.867-1.787c0.586-0.789,0.997-1.695,1.204-2.657
	c0.19-0.737,0.19-1.509,0-2.246c-0.198-0.599-0.485-0.781-0.86-0.545c-1.701,1.102-3.201,1.469-4.501,1.099
	c-1.329-0.388-2.473-1.243-3.22-2.408c-0.915-1.409-1.524-2.995-1.787-4.654c-0.35-1.89-0.442-3.819-0.277-5.734
	c0.099-1.187,0.354-2.357,0.755-3.479c0.38-1.074,0.853-2.114,1.414-3.106c0.519-0.916,1.117-1.786,1.787-2.599
	c0.582-0.711,1.221-1.372,1.911-1.978c1.305-1.165,2.833-2.052,4.491-2.609c1.666-0.551,3.439-0.689,5.17-0.401
	c2.372,0.317,4.581,1.381,6.307,3.039c1.783,1.933,2.965,4.344,3.402,6.938c0.609,2.944,0.874,5.949,0.793,8.954
	c-0.064,3.185-0.201,6.333-0.411,9.442c-0.121,1.746-0.223,3.428-0.306,5.046c-0.083,1.618-0.083,3.093,0,4.425
	c0.034,1.334,0.211,2.66,0.526,3.956c0.218,0.915,0.658,1.761,1.281,2.466c0.9,0.868,2.163,1.248,3.392,1.023
	c0.42-0.041,0.835-0.134,1.233-0.277c1.822-0.637,3.734-2.341,5.734-5.113c2.203-3.406,4.065-7.019,5.562-10.789
	c0.956-2.396,1.777-4.714,2.466-6.957s1.283-4.447,1.787-6.613c0.504-2.16,0.978-4.284,1.424-6.374
	c0.446-2.09,0.915-4.186,1.405-6.288c0.49-2.102,1.064-4.227,1.72-6.374c0.657-2.147,1.436-4.336,2.341-6.565
	C180.956,42.84,183.46,39.139,186.212,37.419z"/>
<path fill="#FFFFFF" d="M233.478-7.085c-11.066-1.032-21.98,2.867-21.98,2.867s-2.446-14.592-14.784-24.751
	s-29.233-9.26-41.876-3.603c0,0-8.849-16.714-33.696-16.714S86.741-28.071,86.655-19.202c0,0,6.881-26.356,34.489-26.356
	c16.685,0,27.293,10.158,31.373,19.418c0,0,18.864-10.025,36.868-0.774s17.928,31.536,17.928,31.536s17.297-11.706,36.84-2.064
	s15.003,40.758,6.345,48.278c-0.491,0.726-1.066,1.393-1.711,1.988c-0.641,0.617-1.448,1.036-2.322,1.204
	c-0.535,0.088-1.081-0.082-1.472-0.459c-0.48-0.462-0.863-1.014-1.128-1.625c-0.352-0.772-0.62-1.58-0.803-2.408
	c-0.213-0.944-0.357-1.902-0.43-2.867c1.551-1.05,2.925-2.34,4.071-3.823c1.049-1.36,1.911-2.854,2.561-4.444
	c0.574-1.391,0.942-2.859,1.089-4.358c0.143-1.205,0.026-2.427-0.344-3.584c-0.281-0.906-0.915-1.66-1.758-2.093
	c-1.01-0.407-2.143-0.383-3.134,0.067c-1.246,0.447-2.402,1.114-3.412,1.969c-1.097,0.938-2.03,2.053-2.762,3.297
	c-0.852,1.477-1.496,3.067-1.911,4.721c-0.463,1.808-0.735,3.659-0.812,5.524c-0.172,0.956-0.392,2.026-0.669,3.173
	c-0.428,1.757-0.964,3.488-1.605,5.18c-0.648,1.781-1.464,3.496-2.437,5.122c-0.935,1.558-2.229,2.868-3.775,3.823
	c0.949-1.53,1.667-3.192,2.131-4.931c0.579-2.185,0.899-4.43,0.956-6.689c0.036-1.395-0.034-2.791-0.21-4.176
	c-0.153-1.386-0.517-2.739-1.08-4.014c-0.525-1.179-1.304-2.228-2.284-3.068c-1.085-0.875-2.429-1.366-3.823-1.395
	c-1.928-0.178-3.838,0.487-5.237,1.825c-1.363,1.421-2.397,3.124-3.029,4.988c-0.12-0.574-0.336-1.123-0.64-1.625
	c-0.503-0.81-1.333-1.361-2.274-1.51c-0.781-0.096-1.572,0.006-2.303,0.296c-0.61,0.228-1.154,0.602-1.586,1.089
	c-0.363,0.44-0.389,0.72-0.076,0.841s0.487,0.758,0.526,1.911c0.07,1.173,0.07,2.679,0,4.52c-0.057,1.414-0.137,2.979-0.239,4.692
	c0,0.22-0.057,0.459-0.096,0.698c-0.165,1.064-0.37,2.198-0.612,3.402c-0.242,1.204-0.538,2.43-0.889,3.679
	c-0.351,1.274-0.707,2.415-1.07,3.421c-0.307,0.896-0.674,1.772-1.099,2.618c-0.191,0.508-0.522,0.953-0.956,1.281
	c-0.765,0.351-1.23,0.16-1.395-0.573c-0.161-1.051-0.161-2.122,0-3.173c0.146-1.383,0.37-2.975,0.669-4.778
	c0.299-1.803,0.545-3.609,0.736-5.418c0.186-1.682,0.234-3.375,0.143-5.065c-0.011-1.311-0.406-2.591-1.137-3.679
	c-0.509-0.815-1.351-1.365-2.303-1.5c-0.781-0.092-1.571,0.01-2.303,0.296c-0.599,0.227-1.134,0.598-1.558,1.08
	c-0.363,0.44-0.389,0.72-0.076,0.841c0.277,0.134,0.468,0.497,0.564,1.099c0.106,0.753,0.144,1.515,0.115,2.274
	c0,0.917-0.064,1.962-0.191,3.134c-0.127,1.173-0.217,2.411-0.268,3.717c-0.14,1.02-0.28,2.122-0.42,3.306
	c-0.14,1.185-0.293,2.38-0.459,3.584c-0.172,1.204-0.376,2.367-0.612,3.488c-0.202,1.002-0.47,1.988-0.803,2.953
	c-0.238,0.728-0.603,1.408-1.08,2.007c-0.34,0.462-0.889,0.723-1.462,0.698c-0.751-0.049-1.432-0.454-1.835-1.089
	c-0.571-0.803-1.007-1.694-1.29-2.638c-0.351-1.129-0.578-2.292-0.678-3.469c-0.104-1.198-0.104-2.404,0-3.603
	c0.16-1.835,0.37-3.523,0.631-5.065c0.224-1.349,0.543-2.682,0.956-3.985c0.28-0.936,0.671-1.834,1.166-2.676
	c0.288-0.561,0.775-0.994,1.367-1.214c0.381-0.12,0.796,0.01,1.042,0.325c-0.176,0.25-0.303,0.533-0.373,0.831
	c-0.082,0.277-0.082,0.573,0,0.851c0.134,0.421,0.455,0.757,0.87,0.908c0.403,0.153,0.849,0.153,1.252,0
	c0.432-0.121,0.785-0.436,0.956-0.851c0.26-0.548,0.26-1.182,0-1.73c-0.193-0.608-0.546-1.152-1.023-1.577
	c-0.406-0.346-0.882-0.6-1.395-0.745c-0.488-0.133-0.997-0.179-1.5-0.134c-0.471,0.04-0.937,0.12-1.395,0.239
	c-1.256,0.424-2.424,1.071-3.45,1.911c-1.116,0.915-2.056,2.025-2.771,3.278c-0.857,1.496-1.5,3.104-1.911,4.778
	c-0.513,2.081-0.795,4.212-0.841,6.355c-0.075,1.399-0.044,2.801,0.096,4.195c0.152,1.386,0.516,2.739,1.08,4.014
	c0.526,1.187,1.305,2.244,2.284,3.096c1.076,0.887,2.428,1.37,3.823,1.367c1.131,0.104,2.269-0.083,3.306-0.545
	c0.915-0.453,1.714-1.106,2.341-1.911c0.686-0.861,1.226-1.83,1.596-2.867c0.425-1.189,0.766-2.405,1.023-3.641
	c0.307,1.557,1.096,2.978,2.255,4.061c0.942,0.884,2.328,1.104,3.498,0.554c0.92-0.37,1.705-1.013,2.246-1.844
	c0.724-1.031,1.33-2.14,1.806-3.306c0.268-0.637,0.516-1.293,0.745-1.969c-0.115,1.691-0.229,3.392-0.315,5.065
	c-0.134,2.44-0.21,4.699-0.229,6.775c-0.029,1.783,0.045,3.567,0.22,5.342c0.032,1.074,0.334,2.122,0.879,3.048
	c0.486,0.777,1.236,1.354,2.112,1.625c0.632,0.161,1.297,0.13,1.911-0.086c0.503-0.174,0.934-0.509,1.223-0.956
	c0.258-0.42,0.268-0.745,0-0.956c-0.466-0.726-0.681-1.586-0.612-2.446c-0.048-1.616-0.013-3.233,0.105-4.845
	c0.121-1.911,0.303-4.061,0.545-6.451c0.242-2.389,0.487-4.823,0.736-7.301c0.248-2.497,0.475-4.953,0.679-7.368
	c0.204-2.415,0.332-4.644,0.382-6.689c0.229-1.197,0.497-2.373,0.803-3.526c0.269-1.048,0.62-2.075,1.051-3.068
	c0.337-0.8,0.799-1.541,1.367-2.198c0.433-0.524,1.047-0.865,1.72-0.956c0.744-0.047,1.454,0.32,1.844,0.956
	c0.571,0.803,0.998,1.698,1.261,2.647c0.343,1.16,0.573,2.351,0.688,3.555c0.129,1.216,0.148,2.441,0.057,3.66
	c-0.146,1.866-0.354,3.562-0.621,5.084c-0.229,1.339-0.549,2.66-0.956,3.956c-0.278,0.942-0.677,1.844-1.185,2.685
	c-0.286,0.55-0.761,0.978-1.338,1.204c-0.392,0.129-0.823,0.009-1.089-0.306c0.475-0.429,0.628-1.11,0.382-1.701
	c-0.134-0.421-0.455-0.757-0.87-0.908c-0.403-0.152-0.849-0.152-1.252,0c-0.439,0.17-0.786,0.517-0.956,0.956
	c-0.229,0.532-0.205,1.141,0.067,1.653c0.191,0.609,0.545,1.153,1.023,1.577c0.406,0.347,0.882,0.601,1.395,0.745
	c0.488,0.134,0.997,0.18,1.5,0.134c0.471-0.039,0.938-0.118,1.395-0.239l0.774-0.277c1.679-0.363,3.305-0.941,4.835-1.72
	c1.294-0.664,2.488-1.507,3.545-2.504c0.977-0.93,1.82-1.992,2.504-3.154c0.682-1.162,1.28-2.373,1.787-3.622
	c0.535-1.328,0.956-2.676,1.395-4.014c0.185,0.793,0.444,1.567,0.774,2.313c0.525,1.19,1.308,2.248,2.294,3.096
	c1.081,0.874,2.432,1.347,3.823,1.338c1.362,0.088,2.721-0.214,3.918-0.87c1.002-0.56,1.917-1.265,2.714-2.093
	c0,0,10.837-9.509,10.837-28.535S244.554-6.053,233.478-7.085z M242.614,43.229c0.159-3.051,0.678-6.073,1.548-9.002
	c0.758-2.319,1.605-3.625,2.542-3.918c0.637-0.184,1.102,0.172,1.395,1.07c0.314,1.147,0.356,2.351,0.124,3.517
	c-0.29,1.67-0.844,3.284-1.644,4.778c-0.983,1.86-2.352,3.489-4.014,4.778C242.559,44.043,242.575,43.635,242.614,43.229z"/>
<path fill="#FFFFFF" d="M175.557-3.731l0.105,0.076L175.557-3.731z"/>
<path fill="#FFFFFF" d="M122.07,104.753l-0.784-0.248l0,0l-2.924-0.956l-0.363-0.239c1.061-2.179,1.854-8.715-6.355-8.601
	c-1.737,0.019-3.469,0.207-5.17,0.564c-0.449-0.325-0.793-0.592-1.023-0.803c0.912-1.215,1.699-2.518,2.351-3.889
	c0.537-1.126,0.945-2.309,1.214-3.526c0.225-1.009,0.298-2.046,0.22-3.077c-0.071-0.882-0.273-1.749-0.602-2.571
	c-0.333-0.834-0.841-1.587-1.491-2.208c-0.629-0.594-1.374-1.053-2.188-1.347c-0.861-0.305-1.774-0.438-2.685-0.392
	c-1.013,0.048-2.01,0.274-2.943,0.669c-1.154,0.469-2.199,1.172-3.068,2.064c-0.855,0.869-1.545,1.885-2.035,3.001
	c-0.483,1.097-0.761,2.272-0.822,3.469c-0.068,1.185,0.132,2.371,0.583,3.469c0.288,0.674,0.647,1.314,1.07,1.911
	c0.455,0.664,0.946,1.302,1.472,1.911c0.528,0.637,1.064,1.207,1.605,1.711c0.542,0.504,1.045,0.934,1.51,1.29
	c-0.287,0.354-0.554,0.707-0.812,1.061c-6.027,2.652-12.244,4.853-18.597,6.584c-5.024,0.718-10.147,0.159-14.898-1.625
	l-1.539-0.526v-0.057c-3.78-1.548-7.134-3.975-9.786-7.081c-1.938-2.878-3.242-6.135-3.823-9.556
	c-1.597-8.656,0.75-17.573,6.403-24.321c0.38-0.446,0.786-0.871,1.214-1.271c-3.603-6.298-7.33-18.902,0-28.927
	s22.935-8.104,22.935-8.104C78.828,5.3,90.296-10.554,109.198-12.226c10.924-1.082,21.651,3.453,28.487,12.041
	c3.034-2.513,6.365-4.644,9.919-6.345l-0.067,0.067c4.428-1.898,9.258-2.67,14.057-2.246c5.019,0.377,9.845,2.097,13.971,4.979
	l-0.43-0.325c7.827,5.61,10.961,13.58,8.601,24.101c-0.124,0.554-0.268,1.07-0.42,1.558l0,0l-0.057,0.143
	c-0.314,1.019-0.741,1.999-1.271,2.924c-0.096,0.191-0.201,0.382-0.296,0.573h-0.057c0,0-6.298,12.844-14.076,6.116l0,0
	c-1.08-1.003-2.112-1.969-3.029-2.867c-1.274-1.197-2.294-2.109-3.058-2.733c0.956-0.809,1.949-1.691,2.982-2.647
	c1.032-0.956,1.988-1.911,2.867-2.867c0.851-0.923,1.631-1.91,2.332-2.953c0.587-0.832,1.009-1.77,1.242-2.762
	c0.275-0.92,0.136-1.915-0.382-2.724c-0.45-0.655-1.058-1.183-1.768-1.539c-0.587-0.313-1.246-0.468-1.911-0.449
	c-0.564,0-0.793,0.201-0.688,0.516c0.083,0.5,0.013,1.013-0.201,1.472c-0.293,0.797-0.641,1.573-1.042,2.322
	c-0.459,0.879-0.991,1.835-1.596,2.867c-0.605,1.032-1.242,2.093-1.911,3.182c-0.637,1.064-1.303,2.096-1.997,3.096
	c-0.695,1.001-1.293,1.914-1.797,2.743c0.332-2.599,0.65-5.211,0.956-7.836c0-0.134,0-0.258,0-0.392c0-0.134,0-0.105,0-0.182
	c0.172-1.529,0.287-3.67,0.344-4.778l0,0c0-0.908,0-1.749,0-2.523c0.026-1.205-0.25-2.398-0.803-3.469
	c-0.485-0.818-1.301-1.387-2.236-1.558c-0.776-0.114-1.567-0.032-2.303,0.239c-0.612,0.211-1.163,0.569-1.605,1.042
	c-0.376,0.433-0.408,0.714-0.096,0.841c0.313,0.127,0.471,0.784,0.478,1.969c0,0.784,0,1.739,0,2.867l0,0
	c-0.067,0.87-0.143,1.768-0.229,2.724c-0.204,2.344-0.423,4.762-0.659,7.253c-0.153,1.634-0.287,3.24-0.42,4.855
	c-0.111,0.153-0.175,0.336-0.182,0.526c-0.066,1.144-0.22,2.281-0.459,3.402c-0.549,2.634-1.372,5.202-2.456,7.664
	c-0.527,1.193-1.151,2.339-1.863,3.431c-0.598,0.937-1.325,1.787-2.16,2.523c-0.657,0.601-1.473,1-2.351,1.147
	c-0.733,0.054-1.432-0.318-1.797-0.956c-0.55-0.816-0.955-1.721-1.195-2.676c-0.326-1.152-0.543-2.334-0.65-3.526
	c-0.113-1.227-0.113-2.462,0-3.689c0.204-1.828,0.456-3.51,0.755-5.046c0.248-1.341,0.59-2.663,1.023-3.956
	c0.299-0.929,0.71-1.818,1.223-2.647c0.301-0.552,0.799-0.972,1.395-1.175c0.382-0.112,0.793,0.026,1.032,0.344
	c-0.182,0.247-0.314,0.526-0.392,0.822c-0.083,0.277-0.083,0.573,0,0.851c0.115,0.436,0.431,0.791,0.851,0.956
	c0.398,0.168,0.843,0.185,1.252,0.048c0.443-0.13,0.798-0.463,0.956-0.898c0.218-0.529,0.218-1.124,0-1.653
	c-0.171-0.608-0.501-1.158-0.956-1.596c-0.397-0.357-0.867-0.625-1.376-0.784c-0.483-0.145-0.987-0.204-1.491-0.172
	c-0.47,0.028-0.937,0.095-1.395,0.201c-1.26,0.378-2.442,0.98-3.488,1.777c-1.144,0.886-2.116,1.974-2.867,3.211
	c-0.896,1.49-1.579,3.098-2.026,4.778c-0.316,1.148-0.553,2.316-0.707,3.498c-0.113,0.145-0.176,0.323-0.182,0.506
	c-0.037,0.847-0.136,1.691-0.296,2.523c-0.184,1.058-0.423,2.188-0.717,3.392s-0.612,2.424-0.956,3.66
	c-0.363,1.23-0.739,2.358-1.128,3.383c-0.324,0.882-0.7,1.743-1.128,2.58c-0.212,0.519-0.579,0.959-1.051,1.261
	c-0.771,0.332-1.23,0.127-1.376-0.612c-0.161-1.051-0.161-2.122,0-3.173c0.179-1.383,0.44-2.975,0.784-4.778
	c0.344-1.803,0.634-3.603,0.87-5.399c0.223-1.675,0.31-3.366,0.258-5.055c0.018-1.312-0.347-2.6-1.051-3.708
	c-0.489-0.827-1.318-1.396-2.265-1.558c-0.776-0.111-1.566-0.029-2.303,0.239c-0.606,0.213-1.151,0.571-1.586,1.042
	c-0.376,0.433-0.408,0.714-0.096,0.841c0.313,0.127,0.504,0.564,0.573,1.309c0.069,0.903,0.069,1.811,0,2.714
	c-0.076,1.096-0.188,2.329-0.334,3.698c-0.146,1.369-0.255,2.781-0.325,4.233c-0.096,1.453-0.134,2.883-0.115,4.291
	c0.013,1.309,0.144,2.614,0.392,3.899c0.183,0.904,0.471,1.782,0.86,2.618c0.312,0.714,0.756,1.363,1.309,1.911
	c0.456,0.461,1.026,0.79,1.653,0.956c0.639,0.14,1.307,0.08,1.911-0.172c0.927-0.348,1.724-0.971,2.284-1.787
	c0.759-1.014,1.4-2.11,1.911-3.268c0.588-1.321,1.092-2.678,1.51-4.061c0.277-0.956,0.526-1.806,0.755-2.704
	c0.166,0.732,0.397,1.449,0.688,2.141c0.5,1.2,1.257,2.277,2.217,3.154c1.064,0.919,2.417,1.433,3.823,1.453
	c1.369,0.119,2.745-0.152,3.966-0.784c1.263-0.66,2.394-1.548,3.335-2.618c1.05-1.194,1.949-2.513,2.676-3.928
	c0.73-1.42,1.368-2.885,1.911-4.386c0,1.653,0,3.115,0.115,4.367c0.008,1.075,0.288,2.13,0.812,3.068
	c0.468,0.788,1.204,1.382,2.074,1.672c0.623,0.189,1.288,0.189,1.911,0c0.509-0.17,0.947-0.506,1.242-0.956
	c0.268-0.411,0.287-0.736,0.057-0.956c-0.359-0.482-0.545-1.071-0.526-1.672c-0.067-1.069-0.067-2.142,0-3.211
	c0.057-1.274,0.169-2.736,0.334-4.386s0.366-3.392,0.602-5.227c0.223-0.297,0.465-0.578,0.726-0.841l1.051-1.07
	c0.637,0,1.475,0.595,2.513,1.787c0.564,0.659,1.185,1.405,1.844,2.236l0,0c0,0,1.997,2.504,3.479,4.855
	c1.481,2.351,6.298,5.074,12.022-2.427l0.631-0.841l0,0c1.436-1.745,2.737-3.599,3.889-5.543c0.236-0.37,0.462-0.755,0.678-1.156
	l0.134-0.248l0,0c0.134-0.258,0.258-0.535,0.382-0.803c0.216-0.399,0.392-0.818,0.526-1.252l0,0
	c1.793-5.084,2.365-10.518,1.672-15.863c-1.376-10.971-13.111-21.874-27.771-21.139c-14.659,0.736-20.231,6.689-20.231,6.689
	s-12.796-13.58-31.995-10.407S81.198-0.443,78.799,5.558c-1.484,3.953-2.241,8.143-2.236,12.366c0,0-18.597,1.013-25.286,15.749
	c-3.93,8.545-3.085,18.527,2.227,26.289c-2.628,3.459-8.152,11.993-7.225,21.827c0.432,4.485,1.82,8.825,4.071,12.729
	c1.368,2.096,3.009,3.998,4.883,5.657c2.329,1.889,4.942,3.398,7.741,4.472l0,0c6.14,2.228,12.782,2.688,19.17,1.328
	c5.198-1.187,10.23-3.006,14.984-5.418l-0.172,0.296c-0.643,1.181-1.15,2.431-1.51,3.727c-0.309,1.104-0.457,2.247-0.44,3.392
	c0.014,0.982,0.209,1.954,0.573,2.867c0.386,0.96,0.995,1.816,1.777,2.494c0.829,0.704,1.81,1.205,2.867,1.462
	c1.25,0.308,2.546,0.382,3.823,0.22c1.593-0.197,3.151-0.618,4.625-1.252c1.162-0.459,2.257-1.069,3.259-1.816
	c0.789-0.597,1.531-1.255,2.217-1.969c0.638-0.675,1.199-1.418,1.672-2.217c0.176,0.106,0.357,0.202,0.545,0.287l1.261,0.621
	c0.478,0.236,0.956,0.459,1.433,0.669c0.478,0.21,0.834,0.354,1.07,0.43c0.309,0.114,0.647,0.114,0.956,0
	c0.356-0.158,0.663-0.408,0.889-0.726c0.268-0.353,0.484-0.743,0.64-1.156c0.158-0.414,0.258-0.849,0.296-1.29
	c0.042-0.382-0.007-0.768-0.143-1.128C122.652,105.139,122.397,104.877,122.07,104.753z M98.848,84.226
	c0.702-1.191,1.909-1.996,3.278-2.188l0,0c0.204-0.057,0.411-0.099,0.621-0.124c0.344-0.049,0.694-0.016,1.023,0.096
	c0.283,0.106,0.533,0.284,0.726,0.516c0.213,0.262,0.384,0.555,0.506,0.87c0.249,0.608,0.389,1.255,0.411,1.911
	c0.021,0.693-0.043,1.387-0.191,2.064c-0.169,0.774-0.406,1.532-0.707,2.265c-0.182,0.449-0.382,0.956-0.602,1.405l0,0l-0.048,0.105
	c-0.143,0.334-0.296,0.659-0.459,1.013h-0.067c-0.201,0.325-0.448,0.618-0.736,0.87C98.734,89.644,97.587,86.271,98.848,84.226z
	 M109.504,108.049c-0.707,0.647-1.522,1.164-2.408,1.529c-0.748,0.324-1.54,0.537-2.351,0.631c-0.64,0.076-1.289,0.028-1.911-0.143
	c-0.519-0.145-0.994-0.414-1.386-0.784c-0.385-0.373-0.688-0.822-0.889-1.319c-0.226-0.561-0.361-1.154-0.401-1.758
	c-0.048-0.683-0.012-1.37,0.105-2.045c0.133-0.761,0.34-1.507,0.621-2.227c0.306-0.795,0.679-1.563,1.118-2.294
	c1.051,0.848,1.966,1.561,2.743,2.141c0.777,0.58,1.513,1.099,2.208,1.558c0.688,0.459,1.379,0.886,2.074,1.281
	c0.695,0.395,1.475,0.822,2.341,1.281C110.829,106.684,110.204,107.405,109.504,108.049L109.504,108.049z M114.463,100.94
	l-0.43,0.898l-6.689-4.969l1.214-0.21l-0.076-0.057c0.382-0.048,0.755-0.076,1.109-0.096h0.067c1.911-0.086,3.536,0.325,4.291,1.481
	c0.601,0.863,0.786,1.949,0.506,2.962L114.463,100.94z"/>
</svg>
