<?xml version="1.0" encoding="utf-8"?>
<!-- Generator: Adobe Illustrator 19.1.1, SVG Export Plug-In . SVG Version: 6.00 Build 0)  -->
<svg version="1.1" id="Layer_1" xmlns="http://www.w3.org/2000/svg" xmlns:xlink="http://www.w3.org/1999/xlink" x="0px" y="0px"
	 width="22px" height="22px" viewBox="0 0 22 22" enable-background="new 0 0 22 22" xml:space="preserve">
<path fill="#FFFFFF" d="M19.847,17.731c0,1.167-0.948,2.117-2.115,2.117H4.233c-1.131,0-2.08-0.949-2.08-2.117V9.888V8.72h3.284
	c-0.11,0.219-0.183,0.438-0.219,0.62c-0.146,0.547-0.219,1.095-0.219,1.641c0,3.32,2.663,6.02,5.983,6.02
	c3.319,0,6.019-2.7,6.019-6.02c0-0.547-0.073-1.094-0.218-1.641c-0.073-0.182-0.146-0.401-0.219-0.62h3.283v1.168V17.731z
	 M7.845,8.72c0.729-0.948,1.86-1.605,3.137-1.605c1.314,0,2.445,0.657,3.137,1.605c0.109,0.146,0.182,0.256,0.255,0.401
	c0.293,0.547,0.475,1.168,0.475,1.86c0,2.153-1.714,3.868-3.867,3.868c-2.117,0-3.867-1.714-3.867-3.868
	c0-0.692,0.182-1.313,0.51-1.86C7.699,8.975,7.772,8.865,7.845,8.72L7.845,8.72z M18.972,2.518h0.474v0.511V6.24l-3.722,0.036V2.554
	L18.972,2.518z M17.732,0H4.233C1.897,0,0.001,1.897,0.001,4.233V8.72v1.679v7.333C0.001,20.066,1.897,22,4.233,22h13.499
	C20.067,22,22,20.066,22,17.731v-7.333V8.72V4.233C22,1.897,20.067,0,17.732,0L17.732,0z"/>
</svg>
