<?xml version="1.0" encoding="UTF-8" standalone="no"?>
<svg
   xmlns:dc="http://purl.org/dc/elements/1.1/"
   xmlns:cc="http://creativecommons.org/ns#"
   xmlns:rdf="http://www.w3.org/1999/02/22-rdf-syntax-ns#"
   xmlns:svg="http://www.w3.org/2000/svg"
   xmlns="http://www.w3.org/2000/svg"
   xml:space="preserve"
   enable-background="new 0 0 20 22"
   viewBox="0 0 15.112012 20.00075"
   height="20.00075"
   width="15.112012"
   y="0px"
   x="0px"
   id="Layer_1"
   version="1.1"><metadata
     id="metadata9"><rdf:RDF><cc:Work
         rdf:about=""><dc:format>image/svg+xml</dc:format><dc:type
           rdf:resource="http://purl.org/dc/dcmitype/StillImage" /><dc:title></dc:title></cc:Work></rdf:RDF></metadata><defs
     id="defs7" /><path
     style="fill:#010101"
     id="path3"
     d="m 14.444012,7.5e-4 -13.77700045,0 c -0.023,-0.001 -0.046,-0.001 -0.069,0 -0.342,0.036 -0.6,0.324 -0.598000001505,0.667 l 0,14.888 c 0.0020000015,0.2 0.09400000151,0.389 0.250000001505,0.514 l 4.65299995,3.778 c 0.117,0.097 0.264,0.151 0.417,0.153 l 9.1250005,0 c 0.368,0 0.667,-0.298 0.667,-0.667 l 0,-18.666 c -10e-4,-0.368 -0.299,-0.667 -0.668,-0.667 z m -8.4440005,1.333 3.111,0 0,4.236 -1,-1.5 c -0.204,-0.307 -0.617,-0.391 -0.924,-0.187 -0.074,0.05 -0.138,0.113 -0.187,0.187 l -1,1.5 0,-4.236 z m 7.7780005,17.333 -7.3340005,0 0,-3.111 c 0,-0.368 -0.298,-0.667 -0.667,-0.667 l -4.444,0 0,-13.555 3.333,0 0,6.444 c 0,0.368 0.299,0.666 0.667,0.666 0.223,0 0.431,-0.112 0.555,-0.298 l 1.667,-2.5 1.667,2.5 c 0.204,0.307 0.617,0.39 0.9240005,0.187 0.186,-0.123 0.298,-0.332 0.298,-0.555 l 0,-6.444 3.333,0 0,17.333 z" /></svg>