<?xml version="1.0" encoding="utf-8"?>
<!-- Generator: Adobe Illustrator 19.1.1, SVG Export Plug-In . SVG Version: 6.00 Build 0)  -->
<svg version="1.1" id="Layer_1" xmlns="http://www.w3.org/2000/svg" xmlns:xlink="http://www.w3.org/1999/xlink" x="0px" y="0px"
	 width="130px" height="122px" viewBox="0 0 130 122" enable-background="new 0 0 130 122" xml:space="preserve">
<g>
	<path fill="#FFD700" d="M42.554,23.306l14.385-2.097c0.697-0.102,1.3-0.54,1.613-1.172L65,6.984l6.449,13.052
		c0.312,0.632,0.915,1.07,1.613,1.172l14.384,2.097L77.037,33.466c-0.505,0.492-0.735,1.201-0.616,1.896l0.708,4.139
		c0.008,0.054,0.015,0.108,0.027,0.16l1.718,10.037l-12.877-6.772C65.685,42.761,65.343,42.68,65,42.68
		c-0.343,0-0.685,0.082-0.998,0.246l-12.877,6.772l1.718-10.035c0.013-0.054,0.02-0.109,0.028-0.165l0.708-4.136
		c0.119-0.695-0.111-1.404-0.616-1.896L42.554,23.306z"/>
	<path fill="#010101" d="M113.838,54.866c-0.659-0.985-1.991-1.249-2.974-0.59L76.972,76.95c-0.299,0.113-0.573,0.293-0.801,0.536
		L67.3,83.42c-1.391,0.928-3.189,0.928-4.577,0.002l-8.914-5.96c-0.217-0.224-0.473-0.393-0.752-0.503L19.135,54.276
		c-0.983-0.658-2.316-0.394-2.974,0.59c-0.658,0.985-0.394,2.316,0.59,2.974l31.614,21.14l-31.611,21.08
		c-0.985,0.657-1.251,1.988-0.594,2.973c0.413,0.62,1.093,0.955,1.786,0.955c0.409,0,0.822-0.117,1.188-0.361l33.091-22.067
		l8.117,5.428c1.418,0.944,3.042,1.416,4.667,1.416c1.626,0,3.252-0.473,4.672-1.419l8.102-5.42l33.084,22.062
		c0.366,0.244,0.778,0.361,1.187,0.361c0.693,0,1.373-0.335,1.786-0.955c0.657-0.985,0.391-2.316-0.595-2.973L81.641,78.985
		l31.607-21.144C114.233,57.182,114.497,55.851,113.838,54.866z"/>
	<path fill="#010101" d="M117.442,37.032H81.057l-0.22-1.283l12.708-12.405c0.584-0.57,0.794-1.421,0.542-2.197
		c-0.253-0.775-0.922-1.341-1.73-1.459l-17.562-2.561L66.922,1.194C66.561,0.463,65.816,0,65,0c-0.816,0-1.561,0.463-1.922,1.194
		l-7.872,15.933l-17.563,2.561c-0.807,0.117-1.477,0.683-1.729,1.459c-0.252,0.776-0.042,1.627,0.541,2.197l12.708,12.405
		l-0.22,1.283H12.558c-5.631,0-10.212,4.581-10.212,10.212v64.544c0,5.631,4.581,10.212,10.212,10.212h104.885
		c5.631,0,10.211-4.581,10.211-10.212V47.244C127.653,41.613,123.073,37.032,117.442,37.032z M42.554,23.306l14.385-2.097
		c0.697-0.102,1.3-0.54,1.613-1.172L65,6.984l6.449,13.052c0.312,0.632,0.915,1.07,1.613,1.172l14.384,2.097L77.037,33.466
		c-0.505,0.492-0.735,1.201-0.616,1.896l0.708,4.139c0.008,0.054,0.015,0.108,0.027,0.16l1.718,10.037l-12.877-6.772
		C65.685,42.761,65.343,42.68,65,42.68c-0.343,0-0.685,0.082-0.998,0.246l-12.877,6.772l1.718-10.035
		c0.013-0.054,0.02-0.109,0.028-0.165l0.708-4.136c0.119-0.695-0.111-1.404-0.616-1.896L42.554,23.306z M123.366,111.788
		c0,3.267-2.658,5.925-5.924,5.925H12.558c-3.266,0-5.924-2.658-5.924-5.925V47.244c0-3.267,2.658-5.924,5.924-5.924h35.651
		l-2.043,11.936c-0.138,0.804,0.193,1.617,0.854,2.096c0.661,0.48,1.536,0.543,2.258,0.163L65,47.246l15.723,8.269
		c0.314,0.165,0.656,0.246,0.998,0.246c0.444,0,0.887-0.138,1.26-0.409c0.661-0.479,0.991-1.292,0.854-2.096L81.791,41.32h35.651
		c3.266,0,5.924,2.658,5.924,5.924V111.788z"/>
</g>
</svg>
