<?xml version="1.0" encoding="utf-8"?>
<!-- Generator: Adobe Illustrator 19.1.1, SVG Export Plug-In . SVG Version: 6.00 Build 0)  -->
<svg version="1.1" id="Layer_1" xmlns="http://www.w3.org/2000/svg" xmlns:xlink="http://www.w3.org/1999/xlink" x="0px" y="0px"
	 width="122px" height="122px" viewBox="0 0 122 122" enable-background="new 0 0 122 122" xml:space="preserve">
<g>
	<path fill="#010101" d="M61,0C27.371,0,0.011,27.364,0.011,61S27.371,122,61,122S121.988,94.635,121.988,61S94.63,0,61,0z
		 M97.953,104.097C87.651,112.955,74.527,117.832,61,117.832C29.67,117.832,4.181,92.337,4.181,61
		c0-13.57,4.858-26.695,13.677-36.96l1.487-1.729l33.712,33.718L27.814,81.327c-0.37,0.37-0.579,0.927-0.574,1.527
		c0.005,0.572,0.205,1.092,0.549,1.426l9.915,9.966c0.722,0.722,2.233,0.711,2.991-0.027l25.27-25.33l33.715,33.723L97.953,104.097z
		 M102.655,99.642l-33.71-33.72l25.242-25.251c0.72-0.744,0.725-2.249,0-2.973l-9.933-9.886c-0.362-0.372-0.898-0.58-1.484-0.584
		c-0.512-0.013-1.147,0.197-1.517,0.554l-25.22,25.276L22.318,19.338l1.729-1.487C34.31,9.029,47.434,4.17,61,4.17
		c31.331,0,56.82,25.494,56.82,56.83c0,13.538-4.859,26.647-13.679,36.912L102.655,99.642z"/>
	<polygon fill="#FFD700" points="62.988,65.978 39.186,89.78 32.224,82.817 56.04,58.945 	"/>
	<polygon fill="#FFD700" points="59.013,55.972 82.755,32.226 89.785,39.176 65.96,63.005 	"/>
</g>
</svg>
