<?xml version="1.0" encoding="UTF-8" standalone="no"?>
<!-- Generator: Adobe Illustrator 19.1.1, SVG Export Plug-In . SVG Version: 6.00 Build 0)  -->

<svg
   xmlns:dc="http://purl.org/dc/elements/1.1/"
   xmlns:cc="http://creativecommons.org/ns#"
   xmlns:rdf="http://www.w3.org/1999/02/22-rdf-syntax-ns#"
   xmlns:svg="http://www.w3.org/2000/svg"
   xmlns="http://www.w3.org/2000/svg"
   xmlns:sodipodi="http://sodipodi.sourceforge.net/DTD/sodipodi-0.dtd"
   xmlns:inkscape="http://www.inkscape.org/namespaces/inkscape"
   version="1.1"
   id="Layer_1"
   x="0px"
   y="0px"
   width="30px"
   height="12px"
   viewBox="0 0 30 12"
   enable-background="new 0 0 30 12"
   xml:space="preserve"
   inkscape:version="0.91 r13725"
   sodipodi:docname="step 1_long arrow_right.svg"><metadata
     id="metadata9"><rdf:RDF><cc:Work
         rdf:about=""><dc:format>image/svg+xml</dc:format><dc:type
           rdf:resource="http://purl.org/dc/dcmitype/StillImage" /><dc:title></dc:title></cc:Work></rdf:RDF></metadata><defs
     id="defs7" /><sodipodi:namedview
     pagecolor="#ffffff"
     bordercolor="#666666"
     borderopacity="1"
     objecttolerance="10"
     gridtolerance="10"
     guidetolerance="10"
     inkscape:pageopacity="0"
     inkscape:pageshadow="2"
     inkscape:window-width="1366"
     inkscape:window-height="705"
     id="namedview5"
     showgrid="false"
     inkscape:zoom="9.6"
     inkscape:cx="15"
     inkscape:cy="6"
     inkscape:window-x="-8"
     inkscape:window-y="-8"
     inkscape:window-maximized="1"
     inkscape:current-layer="Layer_1" /><path
     fill="#FFFFFF"
     d="M24.754,0.293c-0.255-0.255-0.671-0.255-0.928,0.001c-0.255,0.255-0.255,0.67,0.001,0.926l3.943,3.942H0.658  C0.295,5.162,0,5.457,0,5.82s0.295,0.658,0.658,0.658h27.055l-4.29,4.289c-0.126,0.126-0.195,0.294-0.195,0.472  c0,0.18,0.07,0.348,0.195,0.473c0.249,0.247,0.699,0.247,0.946-0.001l5.414-5.42C29.932,6.15,30,5.986,30,5.811  c0-0.175-0.068-0.339-0.192-0.463L24.754,0.293z"
     id="path3"
     style="fill:#000000" /></svg>