<?xml version="1.0" encoding="utf-8"?>
<!-- Generator: Adobe Illustrator 19.1.1, SVG Export Plug-In . SVG Version: 6.00 Build 0)  -->
<svg version="1.1" id="Layer_1" xmlns="http://www.w3.org/2000/svg" xmlns:xlink="http://www.w3.org/1999/xlink" x="0px" y="0px"
	 width="76px" height="198.694px" viewBox="0 0 76 198.694" enable-background="new 0 0 76 198.694" xml:space="preserve">
<path fill="#010101" d="M60.167,78.36h-1.049C57.95,78.36,57,77.41,57,76.243v-6.329h12.667c1.165,0,2.111-0.944,2.111-2.111v-6.331
	c0-1.167-0.946-2.111-2.111-2.111h-4.222V38.253c0-3.494-2.844-6.338-6.34-6.338h-8.438V12.667C50.667,5.681,44.986,0,38,0
	S25.333,5.681,25.333,12.667v19.249h-8.438c-3.496,0-6.34,2.844-6.34,6.338V59.36H6.333c-1.165,0-2.111,0.944-2.111,2.111v6.331
	c0,1.167,0.946,2.111,2.111,2.111H19v6.329c0,1.167-0.95,2.117-2.115,2.117h-1.051C7.102,78.36,0,85.462,0,94.194v13.722v63.333
	v11.611c0,8.729,7.102,15.833,15.833,15.833h44.333c8.732,0,15.833-7.104,15.833-15.833v-11.611v-63.333V94.194
	C76,85.462,68.898,78.36,60.167,78.36z"/>
<path fill="#434444" d="M29.556,12.667c0-4.657,3.787-8.444,8.444-8.444c4.655,0,8.444,3.787,8.444,8.444v19.249H29.556V12.667z"/>
<path fill="#434444" d="M14.778,38.253c0-1.167,0.95-2.115,2.117-2.115h42.21c1.167,0,2.117,0.948,2.117,2.115V59.36h-4.22V44.582
	H52.78V59.36h-4.222V44.582h-4.222V59.36h-4.224V44.582h-4.222V59.36h-4.22V44.582h-4.222V59.36h-4.224V44.582H19V59.36h-4.222
	V38.253z"/>
<polygon fill="#434444" points="8.444,65.691 8.444,63.582 10.556,63.582 65.444,63.582 67.556,63.582 67.556,65.691 57,65.691 
	44.333,65.691 31.667,65.691 19,65.691 "/>
<rect x="4.222" y="112.138" fill="#FBD603" width="67.556" height="54.889"/>
<rect x="35.889" y="69.916" fill="#FBD603" width="4.222" height="38"/>
<path fill="#FFFFFF" d="M4.222,94.194c0-6.401,5.208-11.611,11.611-11.611h1.051c3.496,0,6.338-2.844,6.338-6.34v-6.329h8.444v38
	H4.222V94.194z"/>
<path fill="#FFFFFF" d="M71.778,182.86c0,6.403-5.21,11.611-11.611,11.611H15.833c-6.403,0-11.611-5.208-11.611-11.611v-11.611
	h67.556V182.86z"/>
<path fill="#FFFFFF" d="M44.333,107.916v-38h8.444v6.329c0,3.496,2.846,6.34,6.34,6.34h1.049c6.401,0,11.611,5.21,11.611,11.611
	v13.722H44.333V107.916z"/>
<path fill="#010101" d="M52.778,84.691v4.222c6.986,0,12.667,5.681,12.667,12.667c0,0.467-0.027,0.935-0.076,1.402l4.197,0.462
	c0.065-0.619,0.101-1.239,0.101-1.862C69.667,92.268,62.09,84.691,52.778,84.691z"/>
</svg>
