<?xml version="1.0" encoding="utf-8"?>
<!-- Generator: Adobe Illustrator 19.1.1, SVG Export Plug-In . SVG Version: 6.00 Build 0)  -->
<svg version="1.1" id="Layer_1" xmlns="http://www.w3.org/2000/svg" xmlns:xlink="http://www.w3.org/1999/xlink" x="0px" y="0px"
	 width="98px" height="98px" viewBox="0 0 98 98" enable-background="new 0 0 98 98" xml:space="preserve">
<path fill="#010101" d="M98.343,44.748h-0.265c-0.936-11.24-5.706-22.181-14.204-30.678C74.248,4.443,61.588-0.344,48.943-0.299
	v-0.057l-0.739,0.075C35.924-0.055,23.713,4.72,14.364,14.07C1.612,26.821-2.643,44.891,1.574,61.203
	c0.02,0.077,0.042,0.153,0.062,0.23c0.174,0.659,0.358,1.314,0.56,1.967c0.066,0.215,0.137,0.426,0.206,0.64
	c0.166,0.513,0.336,1.025,0.52,1.533c0.114,0.317,0.235,0.63,0.356,0.944c0.154,0.402,0.309,0.803,0.474,1.201
	c0.166,0.402,0.342,0.799,0.518,1.195c0.136,0.304,0.269,0.607,0.411,0.909c0.231,0.492,0.474,0.978,0.721,1.462
	c0.101,0.196,0.198,0.393,0.302,0.589c0.321,0.607,0.656,1.206,1.001,1.798c0.038,0.065,0.074,0.13,0.112,0.194
	c2.478,4.206,5.557,8.015,9.13,11.301l1.423,1.423l0.092-0.092c8.569,7.263,19.643,11.656,31.729,11.656
	c13.666,0,26.043-5.611,34.961-14.645l0.043,0.043l0.5-0.612C93.139,74.108,98.343,62.154,98.343,49V44.748z M49.191,80.648
	c-8.073,0-15.446-3.043-21.043-8.036l-1.407-1.407c-2.664-2.664-4.749-5.689-6.263-8.918c-0.062-0.133-0.122-0.268-0.182-0.402
	c-0.129-0.286-0.254-0.573-0.374-0.862c-0.119-0.289-0.234-0.579-0.345-0.872c-0.053-0.138-0.106-0.276-0.156-0.415
	c-1.213-3.354-1.877-6.967-1.877-10.734c0-15.473,11.52-28.919,26.796-31.277l4.302-0.52c8.263-0.124,16.565,2.952,22.857,9.243
	c10.941,10.941,12.303,28.595,3.168,41.064l-2.652,3.381C66.25,76.898,58.153,80.648,49.191,80.648z"/>
</svg>
