<?xml version="1.0" encoding="utf-8"?>
<!-- Generator: Adobe Illustrator 19.1.1, SVG Export Plug-In . SVG Version: 6.00 Build 0)  -->
<svg version="1.1" id="Layer_1" xmlns="http://www.w3.org/2000/svg" xmlns:xlink="http://www.w3.org/1999/xlink" x="0px" y="0px"
	 width="288px" height="287.998px" viewBox="0 0 288 287.998" enable-background="new 0 0 288 287.998" xml:space="preserve">
<g>
	<g id="triangle36_604_">
		<path fill="#DCDCDC" d="M74.922,60.652c-0.026-0.044-0.042-0.094-0.043-0.147L74.33,43.825c-0.004-0.119,0.06-0.228,0.165-0.283
			c0.105-0.054,0.232-0.044,0.326,0.027L90.81,55.573c0.092,0.069,0.138,0.185,0.118,0.299c-0.02,0.113-0.102,0.206-0.213,0.24
			l-15.44,4.676c-0.091,0.028-0.19,0.011-0.268-0.045C74.972,60.719,74.943,60.688,74.922,60.652z M74.965,44.444l0.514,15.641
			L89.956,55.7L74.965,44.444z"/>
	</g>
	<g id="triangle36_603_">
		<path fill="#DCDCDC" d="M74.374,43.972c-0.05-0.084-0.059-0.19-0.016-0.284c0.06-0.131,0.201-0.203,0.342-0.174l32.357,6.732
			c0.137,0.028,0.238,0.146,0.244,0.284c0.007,0.139-0.08,0.266-0.212,0.308l-16.37,5.272c-0.095,0.031-0.199,0.014-0.278-0.047
			L74.453,44.059C74.42,44.035,74.394,44.005,74.374,43.972z M105.795,50.61l-29.873-6.216l14.761,11.083L105.795,50.61z"/>
	</g>
	<g id="triangle36_602_">
		<path fill="#DCDCDC" d="M90.361,55.976c-0.021-0.035-0.035-0.074-0.041-0.116c-0.02-0.147,0.069-0.288,0.21-0.333l16.37-5.272
			c0.056-0.019,0.116-0.02,0.173-0.005l26.649,7.122c0.151,0.04,0.249,0.188,0.224,0.343c-0.024,0.155-0.16,0.267-0.316,0.261
			l-43.019-1.851C90.506,56.121,90.413,56.062,90.361,55.976z M107.003,50.866L92.35,55.585l38.507,1.657L107.003,50.866z"/>
	</g>
	<g id="triangle36_601_">
		<path fill="#DCDCDC" d="M90.361,55.976c-0.046-0.077-0.057-0.173-0.025-0.263c0.046-0.125,0.168-0.207,0.301-0.202l43.019,1.851
			c0.12,0.006,0.224,0.081,0.271,0.191l18.627,45.687c0.052,0.128,0.012,0.276-0.099,0.36c-0.11,0.084-0.263,0.084-0.373-0.001
			L90.438,56.062C90.407,56.037,90.381,56.008,90.361,55.976z M133.434,57.967l-41.854-1.8l59.978,46.25L133.434,57.967z"/>
	</g>
	<g id="triangle36_600_">
		<path fill="#DCDCDC" d="M152.007,103.513c-0.008-0.013-0.015-0.028-0.02-0.042L133.36,57.785c-0.034-0.082-0.03-0.175,0.01-0.253
			c0.04-0.08,0.112-0.138,0.198-0.159l16.98-4.356c0.09-0.023,0.186-0.004,0.26,0.051c0.074,0.057,0.12,0.143,0.122,0.236
			l1.646,49.988c0.033,0.128-0.02,0.269-0.14,0.341c-0.147,0.088-0.341,0.032-0.425-0.112L152.007,103.513z M134.061,57.879
			l17.847,43.773l-1.579-47.946L134.061,57.879z"/>
	</g>
	<g id="triangle36_599_">
		<path fill="#DCDCDC" d="M31.969,43.039c-0.039-0.064-0.053-0.142-0.037-0.22c0.03-0.146,0.159-0.248,0.307-0.244l42.406,0.932
			c0.162,0.003,0.295,0.133,0.299,0.297l0.548,16.681c0.004,0.104-0.046,0.203-0.132,0.262c-0.085,0.059-0.195,0.072-0.291,0.032
			L32.115,43.166C32.052,43.139,32.002,43.094,31.969,43.039z M74.34,44.115l-40.462-0.89l40.985,16.806L74.34,44.115z"/>
	</g>
	<g id="triangle36_598_">
		<path fill="#DCDCDC" d="M13.617,81.032c-0.052-0.088-0.058-0.197-0.013-0.291l18.352-37.993c0.07-0.146,0.242-0.212,0.393-0.15
			l42.954,17.613c0.119,0.049,0.195,0.167,0.19,0.294c-0.004,0.128-0.088,0.241-0.21,0.281L13.977,81.166
			c-0.117,0.038-0.246,0.003-0.327-0.089C13.637,81.063,13.626,81.048,13.617,81.032z M32.383,43.275L14.472,80.354l59.831-19.889
			L32.383,43.275z"/>
	</g>
	<g id="triangle36_597_">
		<path fill="#DCDCDC" d="M13.617,81.032c-0.033-0.056-0.048-0.121-0.042-0.187c0.012-0.121,0.094-0.224,0.209-0.262l61.305-20.379
			c0.141-0.047,0.274-0.002,0.366,0.143l44.391,80.237c0.066,0.12,0.045,0.269-0.053,0.367c-0.098,0.097-0.248,0.117-0.368,0.049
			L13.728,81.141C13.682,81.114,13.643,81.076,13.617,81.032z M75.041,60.866L14.633,80.948l104.149,58.981L75.041,60.866z"/>
	</g>
	<g id="triangle36_596_">
		<path fill="#DCDCDC" d="M119.321,140.902c0,0-0.004-0.009-0.008-0.013c0,0-0.004-0.006-0.005-0.009L74.917,60.643
			c-0.045-0.081-0.05-0.178-0.015-0.264c0.035-0.086,0.107-0.151,0.195-0.178l15.44-4.676c0.158-0.048,0.326,0.039,0.38,0.194
			l28.942,84.886c0.074,0.142,0.024,0.32-0.116,0.403C119.596,141.095,119.408,141.048,119.321,140.902z M75.638,60.679
			l42.53,76.873L90.43,56.198L75.638,60.679z"/>
	</g>
	<g id="triangle36_595_">
		<path fill="#DCDCDC" d="M119.313,140.889c-0.011-0.019-0.02-0.038-0.027-0.059L90.335,55.917c-0.044-0.128,0.002-0.27,0.112-0.348
			c0.11-0.079,0.258-0.076,0.366,0.006l61.646,47.537c0.067,0.052,0.109,0.129,0.118,0.214c0.008,0.084-0.019,0.168-0.074,0.231
			l-32.636,37.31c-0.025,0.057-0.067,0.107-0.124,0.141c-0.148,0.088-0.337,0.062-0.425-0.113
			C119.317,140.896,119.314,140.891,119.313,140.889z M91.245,56.684l28.451,83.445l32.129-36.73L91.245,56.684z"/>
	</g>
	<g id="triangle36_594_">
		<path fill="#DCDCDC" d="M119.313,140.889c-0.051-0.085-0.058-0.19-0.018-0.281c0.042-0.096,0.13-0.164,0.234-0.18l54.01-8.485
			c0.132-0.02,0.258,0.046,0.323,0.166c0.06,0.12,0.034,0.264-0.062,0.357l-36.229,35.062c-0.065,0.063-0.156,0.094-0.246,0.085
			c-0.091-0.01-0.172-0.059-0.222-0.135l-17.781-26.577C119.322,140.902,119.316,140.893,119.313,140.889z M172.677,132.7
			l-52.578,8.26l17.309,25.872L172.677,132.7z"/>
	</g>
	<g id="triangle36_593_">
		<path fill="#DCDCDC" d="M119.313,140.889c0,0-0.004-0.006-0.006-0.01c-0.062-0.113-0.047-0.253,0.038-0.351l32.694-37.376
			c0.062-0.07,0.151-0.108,0.244-0.104c0.092,0.003,0.179,0.05,0.234,0.125l21.317,28.891c0.067,0.086,0.078,0.199,0.037,0.299
			c-0.041,0.099-0.13,0.17-0.237,0.186l-54.011,8.485C119.5,141.054,119.377,140.996,119.313,140.889z M152.25,103.845
			l-31.886,36.452l52.676-8.275L152.25,103.845z"/>
	</g>
	<g id="triangle36_592_">
		<path fill="#DCDCDC" d="M13.617,81.032c-0.068-0.113-0.056-0.258,0.032-0.359c0.096-0.11,0.256-0.138,0.383-0.066l105.697,59.858
			c0.112,0.064,0.172,0.19,0.152,0.315l-10.288,64.915c-0.019,0.122-0.109,0.22-0.228,0.25c-0.119,0.03-0.244-0.013-0.319-0.111
			L13.636,81.06C13.629,81.051,13.622,81.041,13.617,81.032z M119.24,140.894L15.037,81.882l94.06,123.011L119.24,140.894z"/>
	</g>
	<g id="triangle36_591_">
		<path fill="#DCDCDC" d="M109.025,205.805c-0.036-0.06-0.051-0.132-0.039-0.206l10.288-64.915c0.019-0.125,0.113-0.225,0.237-0.252
			c0.123-0.027,0.251,0.023,0.321,0.129l17.781,26.577c0.075,0.096,0.069,0.248-0.008,0.352l-28.019,38.27
			c-0.023,0.067-0.068,0.126-0.133,0.165c-0.148,0.088-0.335,0.063-0.425-0.112L109.025,205.805z M119.757,141.553l-9.967,62.89
			l27.193-37.142L119.757,141.553z"/>
	</g>
	<g id="triangle36_590_">
		<path fill="#DCDCDC" d="M118.363,222.736c-0.002-0.003-0.004-0.006-0.004-0.006l-9.34-16.934c-0.057-0.105-0.049-0.233,0.022-0.33
			l28.069-38.34c0.089-0.122,0.255-0.161,0.389-0.091c0.134,0.07,0.198,0.226,0.149,0.371l-18.732,55.27
			c-0.039,0.116-0.142,0.197-0.264,0.207C118.536,222.895,118.423,222.837,118.363,222.736z M109.652,205.671l8.907,16.15
			l17.868-52.721L109.652,205.671z"/>
	</g>
	<g id="triangle36_589_">
		<path fill="#DCDCDC" d="M74.374,43.972c-0.03-0.049-0.045-0.106-0.044-0.167c0.005-0.149,0.115-0.273,0.262-0.295l39.809-5.917
			c0.117-0.017,0.234,0.034,0.3,0.132c0.068,0.098,0.07,0.226,0.01,0.328l-7.452,12.649c-0.066,0.113-0.198,0.172-0.327,0.144
			l-32.357-6.732C74.488,44.096,74.416,44.043,74.374,43.972z M113.855,38.295l-37.469,5.569l30.456,6.337L113.855,38.295z"/>
	</g>
	<g id="triangle36_588_">
		<path fill="#DCDCDC" d="M106.731,50.704c-0.008-0.013-0.015-0.028-0.02-0.042c-0.036-0.088-0.029-0.189,0.019-0.271l7.452-12.649
			c0.049-0.082,0.133-0.137,0.229-0.149c0.095-0.012,0.189,0.022,0.256,0.091l19.198,19.772c0.096,0.098,0.114,0.25,0.045,0.369
			c-0.07,0.119-0.211,0.177-0.344,0.141l-26.649-7.122C106.838,50.822,106.772,50.772,106.731,50.704z M114.507,38.401
			l-7.042,11.954l25.185,6.731L114.507,38.401z"/>
	</g>
	<g id="triangle36_587_">
		<path fill="#DCDCDC" d="M114.183,38.055c-0.06-0.101-0.059-0.23,0.011-0.331c0.083-0.12,0.239-0.166,0.374-0.109l36.177,15.416
			c0.121,0.053,0.196,0.174,0.185,0.305c-0.01,0.132-0.102,0.242-0.23,0.274l-16.98,4.356c-0.107,0.027-0.22-0.005-0.296-0.084
			l-19.198-19.772C114.21,38.094,114.195,38.075,114.183,38.055z M149.671,53.24l-33.942-14.463l18.012,18.55L149.671,53.24z"/>
	</g>
	<g id="triangle36_586_">
		<path fill="#DCDCDC" d="M152.007,103.513c-0.026-0.044-0.042-0.094-0.043-0.147l-1.647-50.043
			c-0.003-0.114,0.056-0.221,0.156-0.277c0.099-0.057,0.222-0.053,0.318,0.009l39.682,25.612c0.087,0.056,0.14,0.154,0.14,0.258
			c-0.001,0.105-0.054,0.202-0.141,0.258l-38.034,24.431c-0.094,0.06-0.211,0.065-0.309,0.013
			C152.077,103.601,152.036,103.561,152.007,103.513z M150.95,53.888l1.61,48.916l37.179-23.881L150.95,53.888z"/>
	</g>
	<g id="triangle36_585_">
		<path fill="#DCDCDC" d="M150.36,53.471c-0.034-0.057-0.05-0.125-0.041-0.193c0.014-0.116,0.092-0.214,0.201-0.254l25.175-8.963
			c0.154-0.056,0.328,0.018,0.386,0.17l14.508,34.576c0.053,0.124,0.017,0.267-0.086,0.354c-0.103,0.087-0.25,0.095-0.364,0.023
			l-39.682-25.612C150.417,53.545,150.384,53.511,150.36,53.471z M175.628,44.736l-24.314,8.657l38.325,24.736L175.628,44.736z"/>
	</g>
	<g id="triangle36_584_">
		<path fill="#DCDCDC" d="M152.007,103.513c-0.038-0.064-0.052-0.139-0.038-0.214c0.016-0.083,0.064-0.157,0.136-0.202
			l38.034-24.431c0.108-0.069,0.249-0.064,0.352,0.014c0.102,0.079,0.146,0.213,0.107,0.336l-16.718,53.322
			c-0.035,0.11-0.127,0.192-0.242,0.211c-0.114,0.019-0.229-0.028-0.298-0.121l-21.317-28.891
			C152.018,103.529,152.012,103.521,152.007,103.513z M189.76,79.64l-37.048,23.796l20.764,28.141L189.76,79.64z"/>
	</g>
	<g id="triangle36_583_">
		<path fill="#DCDCDC" d="M190.042,79.083c-0.007-0.012-0.014-0.025-0.019-0.039l-14.508-34.576
			c-0.061-0.146-0.001-0.314,0.137-0.389l6.337-3.415c0.086-0.045,0.187-0.049,0.274-0.008c0.088,0.041,0.151,0.119,0.172,0.214
			l8.162,37.951c0.058,0.139,0.006,0.302-0.126,0.381c-0.145,0.087-0.334,0.039-0.421-0.106
			C190.048,79.091,190.045,79.086,190.042,79.083z M176.188,44.487l13.123,31.275l-7.39-34.363L176.188,44.487z"/>
	</g>
	<g id="triangle36_582_">
		<path fill="#DCDCDC" d="M190.042,79.083c-0.017-0.029-0.029-0.06-0.036-0.094l-8.171-37.99c-0.026-0.121,0.024-0.247,0.127-0.318
			c0.103-0.07,0.239-0.071,0.342-0.002l26.145,17.273c0.074,0.048,0.123,0.127,0.135,0.215c0.012,0.088-0.014,0.176-0.072,0.243
			l-17.915,20.65c-0.025,0.058-0.067,0.108-0.125,0.143c-0.147,0.088-0.33,0.043-0.425-0.112
			C190.044,79.087,190.043,79.085,190.042,79.083z M182.593,41.605l7.883,36.654l17.342-19.988L182.593,41.605z"/>
	</g>
	<g id="triangle36_581_">
		<path fill="#DCDCDC" d="M173.324,132.404c-0.044-0.074-0.057-0.165-0.029-0.249l16.718-53.322c0.025-0.08,0.082-0.146,0.156-0.183
			c0.075-0.038,0.162-0.042,0.24-0.014l72.528,26.134c0.125,0.046,0.207,0.165,0.203,0.297c-0.004,0.133-0.091,0.247-0.218,0.286
			l-89.246,27.188c-0.109,0.033-0.227,0.003-0.307-0.078C173.352,132.445,173.337,132.425,173.324,132.404z M190.503,79.322
			l-16.448,52.462l87.806-26.749L190.503,79.322z"/>
	</g>
	<g id="triangle36_580_">
		<path fill="#DCDCDC" d="M190.042,79.083c-0.015-0.025-0.026-0.051-0.033-0.081c-0.026-0.097-0.002-0.202,0.065-0.278
			l17.974-20.717c0.111-0.128,0.304-0.142,0.432-0.032l54.554,46.851c0.112,0.094,0.14,0.259,0.066,0.387
			c-0.075,0.128-0.23,0.184-0.37,0.134l-72.528-26.134C190.134,79.19,190.077,79.142,190.042,79.083z M208.311,58.64l-17.48,20.148
			l70.536,25.417L208.311,58.64z"/>
	</g>
	<g id="triangle36_579_">
		<path fill="#DCDCDC" d="M33.896,250.13c-0.022-0.036-0.036-0.078-0.041-0.122L13.576,80.91c-0.017-0.137,0.061-0.268,0.189-0.321
			c0.128-0.052,0.275-0.012,0.359,0.098l95.409,124.774c0.053,0.069,0.074,0.159,0.057,0.245c-0.017,0.086-0.07,0.161-0.146,0.205
			l-75.129,44.325c-0.09,0.053-0.199,0.057-0.292,0.011C33.97,250.221,33.926,250.18,33.896,250.13z M14.319,81.953l20.089,167.517
			l74.426-43.91L14.319,81.953z"/>
	</g>
	<g id="triangle36_578_">
		<path fill="#DCDCDC" d="M13.617,81.032c-0.012-0.021-0.022-0.043-0.029-0.066l-2.893-9.279c-0.029-0.094-0.013-0.195,0.046-0.274
			l21.244-28.714c0.094-0.127,0.27-0.162,0.406-0.08c0.136,0.081,0.186,0.254,0.118,0.396L14.156,81.008
			c-0.055,0.113-0.173,0.182-0.299,0.172C13.757,81.173,13.667,81.116,13.617,81.032z M11.327,71.652l2.615,8.388l16.591-34.345
			L11.327,71.652z"/>
	</g>
	<g id="triangle36_577_">
		<path fill="#DCDCDC" d="M220.829,205.399c-0.05-0.083-0.057-0.186-0.019-0.275l41.74-100.183c0.056-0.135,0.199-0.211,0.343-0.183
			c0.143,0.028,0.246,0.154,0.247,0.3l0.365,98.687c0,0.166-0.131,0.302-0.297,0.308l-42.105,1.496
			c-0.105,0.004-0.204-0.047-0.263-0.132C220.837,205.411,220.833,205.406,220.829,205.399z M262.532,106.58l-40.971,98.338
			l41.33-1.469L262.532,106.58z"/>
	</g>
	<g id="triangle36_576_">
		<path fill="#DCDCDC" d="M173.324,132.404c-0.047-0.079-0.057-0.176-0.025-0.262c0.033-0.091,0.107-0.161,0.199-0.188
			l89.246-27.188c0.114-0.034,0.237,0,0.317,0.088c0.079,0.088,0.102,0.214,0.056,0.323l-41.74,100.184
			c-0.044,0.105-0.143,0.177-0.256,0.187c-0.113,0.011-0.223-0.043-0.285-0.138l-47.506-72.995
			C173.328,132.411,173.326,132.407,173.324,132.404z M262.299,105.542l-88.231,26.879l46.965,72.166L262.299,105.542z"/>
	</g>
	<g id="triangle36_575_">
		<path fill="#DCDCDC" d="M27.825,263.858c-0.05-0.084-0.058-0.189-0.017-0.282l6.071-13.727c0.053-0.12,0.178-0.194,0.309-0.181
			c0.132,0.012,0.241,0.105,0.27,0.236l2.121,9.119c0.031,0.133-0.029,0.27-0.148,0.337l-8.192,4.608
			c-0.115,0.064-0.259,0.048-0.357-0.041C27.859,263.906,27.84,263.883,27.825,263.858z M34.069,250.937l-5.327,12.043l7.187-4.043
			L34.069,250.937z"/>
	</g>
	<g id="triangle36_574_">
		<path fill="#DCDCDC" d="M36.017,259.249c-0.016-0.027-0.028-0.057-0.035-0.089l-2.121-9.119c-0.035-0.149,0.047-0.302,0.19-0.356
			l64.561-24.436c0.152-0.058,0.324,0.014,0.388,0.159c0.067,0.147,0.009,0.322-0.134,0.398l-62.44,33.555
			c-0.084,0.046-0.185,0.049-0.272,0.01C36.097,259.345,36.049,259.302,36.017,259.249z M34.519,250.165l1.969,8.466l57.973-31.155
			L34.519,250.165z"/>
	</g>
	<g id="triangle36_573_">
		<path fill="#DCDCDC" d="M33.896,250.13c-0.005-0.008-0.009-0.016-0.013-0.025c-0.069-0.144-0.017-0.316,0.12-0.397l75.129-44.325
			c0.118-0.07,0.269-0.053,0.368,0.043c0.099,0.094,0.124,0.244,0.059,0.366L98.991,225.68c-0.035,0.066-0.093,0.117-0.162,0.143
			L34.269,250.26C34.128,250.313,33.972,250.256,33.896,250.13z M108.506,206.465l-71.11,41.954l61.107-23.129L108.506,206.465z"/>
	</g>
	<g id="triangle36_572_">
		<path fill="#DCDCDC" d="M98.457,225.694c-0.055-0.092-0.058-0.206-0.007-0.302l10.568-19.889c0.052-0.099,0.156-0.162,0.268-0.163
			c0.112-0.001,0.212,0.069,0.271,0.159l9.338,16.931c0.049,0.088,0.051,0.194,0.006,0.285c-0.045,0.09-0.13,0.152-0.23,0.167
			l-19.906,2.958c-0.115,0.017-0.23-0.032-0.296-0.126C98.465,225.707,98.46,225.701,98.457,225.694z M109.294,206.292
			l-10.017,18.851l18.868-2.804L109.294,206.292z"/>
	</g>
	<g id="triangle36_571_">
		<path fill="#DCDCDC" d="M210.999,233.332c-0.046-0.077-0.057-0.173-0.026-0.259l9.83-27.933c0.029-0.084,0.093-0.151,0.175-0.183
			c0.083-0.033,0.175-0.028,0.254,0.012l46.472,23.869c0.122,0.063,0.189,0.199,0.161,0.334c-0.028,0.135-0.141,0.235-0.279,0.245
			l-56.302,4.064c-0.103,0.007-0.203-0.038-0.265-0.12C211.012,233.352,211.005,233.343,210.999,233.332z M221.266,205.676
			l-9.558,27.159l54.743-3.951L221.266,205.676z"/>
	</g>
	<g id="triangle36_570_">
		<path fill="#DCDCDC" d="M220.829,205.399c-0.039-0.065-0.054-0.146-0.036-0.224c0.031-0.137,0.149-0.235,0.289-0.24l42.105-1.496
			c0.154-0.006,0.287,0.102,0.314,0.255l4.367,25.365c0.02,0.114-0.027,0.23-0.121,0.299c-0.093,0.068-0.218,0.078-0.322,0.025
			l-46.472-23.869C220.9,205.488,220.858,205.447,220.829,205.399z M262.941,204.062l-40.66,1.445l44.877,23.05L262.941,204.062z"/>
	</g>
	<g id="triangle36_569_">
		<path fill="#DCDCDC" d="M181.838,199.654c-0.055-0.092-0.058-0.208-0.005-0.305c0.062-0.113,0.187-0.175,0.314-0.156l38.992,5.746
			c0.091,0.013,0.171,0.066,0.218,0.145l0,0.001c0.047,0.078,0.057,0.174,0.027,0.26l-9.83,27.933
			c-0.037,0.103-0.125,0.179-0.233,0.2c-0.107,0.02-0.218-0.018-0.289-0.101l-29.162-33.679
			C181.857,199.684,181.846,199.669,181.838,199.654z M220.68,205.491l-37.806-5.571l28.274,32.654L220.68,205.491z"/>
	</g>
	<g id="triangle36_568_">
		<path fill="#DCDCDC" d="M118.363,222.736c-0.046-0.076-0.057-0.17-0.028-0.256l18.731-55.27c0.031-0.092,0.105-0.164,0.197-0.193
			c0.093-0.03,0.194-0.014,0.273,0.043l44.744,32.188c0.092,0.067,0.14,0.179,0.125,0.291c-0.016,0.113-0.093,0.207-0.199,0.246
			l-63.475,23.083c-0.111,0.04-0.235,0.013-0.32-0.069C118.392,222.779,118.376,222.758,118.363,222.736z M137.516,167.8
			l-18.393,54.272l62.328-22.665L137.516,167.8z"/>
	</g>
	<g id="triangle36_567_">
		<path fill="#DCDCDC" d="M137.094,167.466c-0.024-0.04-0.039-0.087-0.043-0.135c-0.006-0.09,0.028-0.18,0.093-0.243l36.229-35.062
			c0.084-0.081,0.206-0.107,0.316-0.069c0.109,0.038,0.188,0.136,0.202,0.251l8.514,67.249c0.016,0.121-0.042,0.241-0.148,0.303
			c-0.104,0.062-0.237,0.057-0.336-0.015l-44.744-32.188C137.145,167.533,137.116,167.502,137.094,167.466z M173.36,132.894
			l-35.525,34.38l43.873,31.562L173.36,132.894z"/>
	</g>
	<g id="triangle36_566_">
		<path fill="#DCDCDC" d="M181.838,199.654c-0.021-0.036-0.035-0.076-0.041-0.119l-8.514-67.249
			c-0.018-0.142,0.064-0.277,0.199-0.327c0.134-0.05,0.285,0.001,0.363,0.121l47.506,72.995c0.074,0.108,0.067,0.231,0.001,0.333
			c-0.065,0.101-0.184,0.155-0.303,0.138l-38.992-5.746C181.963,199.786,181.884,199.731,181.838,199.654z M174.061,133.536
			l8.316,65.691l38.088,5.613L174.061,133.536z"/>
	</g>
</g>
</svg>
