<?xml version="1.0" encoding="utf-8"?>
<!-- Generator: Adobe Illustrator 19.1.1, SVG Export Plug-In . SVG Version: 6.00 Build 0)  -->
<svg version="1.1" id="Layer_1" xmlns="http://www.w3.org/2000/svg" xmlns:xlink="http://www.w3.org/1999/xlink" x="0px" y="0px"
	 width="48px" height="158px" viewBox="0 0 48 158" enable-background="new 0 0 48 158" xml:space="preserve">
<path fill="#16171A" d="M-0.081,72.294v79.573c0,3.444,2.908,6.344,6.361,6.344h35.44c3.453,0,6.361-2.9,6.361-6.344V72.294
	c0-4.532-0.727-9.063-2.181-13.413l-1.272-3.625c0.545-0.725,1.09-1.813,1.09-2.9V29.698c0-4.894-2.544-9.426-6.906-12.507
	c-3.635-2.538-5.634-6.525-5.634-10.876h-1.817h1.817c0-1.813-0.727-3.444-1.817-4.713C30.27,0.515,28.634-0.21,26.999-0.21h-5.634
	c-1.636,0-3.271,0.725-4.362,1.813c-1.454,1.269-2.181,3.081-2.181,4.894c0,4.35-2.181,8.338-5.634,10.876
	c-4.362,2.9-6.906,7.613-6.906,12.507v22.658c0,1.088,0.363,1.994,1.09,2.9L2.1,59.063C0.646,63.05-0.081,67.581-0.081,72.294z"/>
<path fill="#444545" d="M41.902,52.356c0,0.544-0.545,1.088-1.09,1.088H7.007c-0.545,0-1.09-0.544-1.09-1.088V29.698
	c0-3.625,1.999-7.069,5.271-9.426c4.544-3.081,7.27-8.338,7.27-13.957c0-0.725,0.363-1.45,0.909-1.994
	c0.363-0.363,0.909-0.725,1.817-0.725h5.634c0.909,0,1.454,0.363,1.817,0.725c0.363,0.544,0.726,1.269,0.726,1.994l0,0
	c0,5.438,2.726,10.694,7.27,13.776c3.271,2.356,5.271,5.8,5.271,9.426C41.902,29.516,41.902,52.356,41.902,52.356z"/>
<path fill="#FFFFFF" d="M3.554,72.294c0-4.169,0.727-8.338,1.999-12.144l1.09-2.9h0.363h33.805h0.363l1.09,2.9
	c1.454,3.988,1.999,7.975,1.999,12.144v79.573c0,1.45-1.272,2.719-2.726,2.719H6.098c-1.454,0-2.726-1.269-2.726-2.719V72.294H3.554
	z"/>
<path fill="#16171A" d="M13.913,50.361c-1.09,0-1.817-0.725-1.817-1.813V30.422c0-1.088,0.727-1.813,1.817-1.813
	s1.817,0.725,1.817,1.813v18.126C15.731,49.455,14.822,50.361,13.913,50.361z"/>
<path fill="#16171A" d="M23.909,50.361c-1.09,0-1.817-0.725-1.817-1.813V30.422c0-1.088,0.727-1.813,1.817-1.813
	s1.817,0.725,1.817,1.813v18.126C25.726,49.455,24.999,50.361,23.909,50.361z"/>
<path fill="#16171A" d="M33.905,50.361c-1.09,0-1.817-0.725-1.817-1.813V30.422c0-1.088,0.727-1.813,1.817-1.813
	s1.817,0.725,1.817,1.813v18.126C35.722,49.455,34.995,50.361,33.905,50.361z"/>
<rect x="3.372" y="78.531" fill="#FAD604" width="40.891" height="54.642"/>
<rect x="1.841" y="74.184" fill="#16171A" width="45.773" height="4.347"/>
<rect x="1.841" y="133.173" fill="#16171A" width="45.773" height="4.347"/>
</svg>
