<?xml version="1.0" encoding="utf-8"?>
<!-- Generator: Adobe Illustrator 19.1.1, SVG Export Plug-In . SVG Version: 6.00 Build 0)  -->
<svg version="1.1" id="Layer_1" xmlns="http://www.w3.org/2000/svg" xmlns:xlink="http://www.w3.org/1999/xlink" x="0px" y="0px"
	 width="304px" height="290px" viewBox="0 0 304 290" enable-background="new 0 0 304 290" xml:space="preserve">
<g>
	<g id="triangle36_604_">
		<path fill="#DDDDDC" d="M257.94,182.725c0.05,0.012,0.096,0.037,0.135,0.073l12.182,11.407c0.087,0.081,0.119,0.204,0.083,0.317
			c-0.036,0.112-0.133,0.195-0.25,0.212l-19.793,2.817c-0.114,0.016-0.228-0.033-0.295-0.129c-0.066-0.094-0.074-0.218-0.019-0.32
			l7.611-14.224c0.045-0.084,0.126-0.142,0.221-0.158C257.857,182.713,257.899,182.715,257.94,182.725z M269.37,194.217
			l-11.423-10.696l-7.136,13.337L269.37,194.217z"/>
	</g>
	<g id="triangle36_603_">
		<path fill="#DDDDDC" d="M270.122,194.132c0.095,0.024,0.176,0.093,0.213,0.19c0.05,0.135,0.001,0.286-0.119,0.365l-27.641,18.12
			c-0.117,0.077-0.271,0.065-0.374-0.028c-0.103-0.094-0.131-0.244-0.068-0.368l7.847-15.303c0.046-0.089,0.131-0.15,0.23-0.164
			l19.793-2.817C270.044,194.12,270.084,194.123,270.122,194.132z M243.21,211.656l25.518-16.728l-18.274,2.601L243.21,211.656z"/>
	</g>
	<g id="triangle36_602_">
		<path fill="#DDDDDC" d="M250.329,196.949c0.04,0.01,0.077,0.028,0.111,0.053c0.118,0.09,0.155,0.252,0.087,0.385l-7.848,15.303
			c-0.026,0.053-0.068,0.096-0.119,0.126l-23.88,13.808c-0.135,0.078-0.309,0.043-0.401-0.084c-0.093-0.126-0.076-0.302,0.039-0.408
			l31.728-29.11C250.125,196.949,250.231,196.925,250.329,196.949z M242.175,212.33l7.024-13.698l-28.4,26.057L242.175,212.33z"/>
	</g>
	<g id="triangle36_601_">
		<path fill="#DDDDDC" d="M250.329,196.949c0.088,0.022,0.163,0.082,0.203,0.168c0.056,0.121,0.028,0.265-0.071,0.356l-31.728,29.11
			c-0.089,0.081-0.216,0.101-0.327,0.057l-45.477-19.134c-0.127-0.054-0.204-0.186-0.185-0.324c0.018-0.137,0.127-0.245,0.265-0.263
			l77.203-9.977C250.254,196.938,250.293,196.94,250.329,196.949z M218.464,225.998l30.868-28.323l-75.115,9.707L218.464,225.998z"
			/>
	</g>
	<g id="triangle36_600_">
		<path fill="#DDDDDC" d="M173.125,206.925c0.015,0.004,0.03,0.009,0.044,0.015l45.477,19.134c0.082,0.034,0.145,0.102,0.172,0.186
			c0.028,0.085,0.018,0.177-0.027,0.253l-8.926,15.087c-0.047,0.08-0.129,0.135-0.22,0.148c-0.093,0.012-0.186-0.016-0.253-0.08
			l-36.511-34.183c-0.114-0.067-0.176-0.204-0.142-0.34c0.042-0.167,0.218-0.264,0.38-0.221L173.125,206.925z M218.083,226.504
			l-43.572-18.332l35.019,32.787L218.083,226.504z"/>
	</g>
	<g id="triangle36_599_">
		<path fill="#DDDDDC" d="M300.766,164.807c0.073,0.018,0.138,0.063,0.182,0.129c0.082,0.124,0.063,0.288-0.045,0.39l-30.644,29.326
			c-0.117,0.112-0.302,0.114-0.422,0.002l-12.182-11.407c-0.076-0.071-0.111-0.176-0.092-0.279c0.018-0.102,0.087-0.188,0.184-0.228
			l42.827-17.919C300.637,164.795,300.704,164.792,300.766,164.807z M270.045,194.007l29.24-27.981l-40.865,17.097L270.045,194.007z
			"/>
	</g>
	<g id="triangle36_598_">
		<path fill="#DDDDDC" d="M286.879,124.965c0.099,0.025,0.181,0.098,0.215,0.197l13.888,39.842c0.054,0.153-0.021,0.321-0.172,0.384
			l-42.827,17.919c-0.119,0.05-0.255,0.02-0.342-0.074c-0.088-0.094-0.108-0.232-0.05-0.347l28.939-57.76
			c0.056-0.11,0.171-0.176,0.294-0.168C286.843,124.958,286.861,124.961,286.879,124.965z M300.307,164.933l-13.554-38.883
			l-28.243,56.371L300.307,164.933z"/>
	</g>
	<g id="triangle36_597_">
		<path fill="#DDDDDC" d="M286.879,124.965c0.063,0.016,0.12,0.051,0.162,0.103c0.077,0.094,0.092,0.224,0.037,0.332l-28.939,57.76
			c-0.066,0.133-0.192,0.195-0.359,0.158l-88.126-25.347c-0.131-0.038-0.222-0.159-0.222-0.297c0.001-0.137,0.093-0.258,0.226-0.294
			l117.065-32.413C286.775,124.953,286.828,124.953,286.879,124.965z M257.704,182.658l28.515-56.914l-115.35,31.938
			L257.704,182.658z"/>
	</g>
	<g id="triangle36_596_">
		<path fill="#DDDDDC" d="M169.799,157.375c0,0,0.009,0.003,0.015,0.004c0,0,0.007,0.002,0.01,0.003l88.126,25.347
			c0.089,0.026,0.161,0.09,0.197,0.176c0.036,0.086,0.031,0.183-0.012,0.264l-7.611,14.224c-0.078,0.146-0.258,0.203-0.406,0.131
			l-80.488-39.559c-0.153-0.048-0.243-0.209-0.203-0.367C169.468,157.433,169.635,157.333,169.799,157.375z M257.415,183.213
			l-84.431-24.284l77.139,37.912L257.415,183.213z"/>
	</g>
	<g id="triangle36_595_">
		<path fill="#DDDDDC" d="M169.814,157.378c0.021,0.005,0.041,0.013,0.06,0.023l80.515,39.571c0.122,0.06,0.19,0.192,0.167,0.326
			c-0.022,0.133-0.129,0.236-0.263,0.254l-77.203,9.977c-0.084,0.01-0.169-0.014-0.234-0.068c-0.066-0.054-0.105-0.132-0.111-0.216
			l-3.305-49.459c-0.023-0.058-0.028-0.123-0.012-0.188c0.042-0.167,0.194-0.282,0.38-0.221
			C169.807,157.376,169.812,157.378,169.814,157.378z M249.204,197.073l-79.123-38.887l3.253,48.691L249.204,197.073z"/>
	</g>
	<g id="triangle36_594_">
		<path fill="#DDDDDC" d="M169.814,157.378c0.096,0.024,0.175,0.094,0.211,0.186c0.038,0.098,0.023,0.208-0.038,0.293
			l-32.191,44.191c-0.079,0.108-0.215,0.15-0.346,0.111c-0.127-0.043-0.211-0.163-0.209-0.297l0.826-50.41
			c0.001-0.091,0.044-0.177,0.114-0.234c0.071-0.057,0.163-0.079,0.253-0.062l31.366,6.219
			C169.799,157.375,169.81,157.377,169.814,157.378z M137.87,200.903l31.338-43.02l-30.534-6.054L137.87,200.903z"/>
	</g>
	<g id="triangle36_593_">
		<path fill="#DDDDDC" d="M169.814,157.378c0,0,0.007,0.002,0.011,0.003c0.124,0.036,0.212,0.146,0.221,0.275l3.311,49.547
			c0.005,0.093-0.03,0.184-0.099,0.246c-0.068,0.063-0.161,0.091-0.254,0.077l-35.502-5.356c-0.108-0.013-0.196-0.086-0.238-0.185
			c-0.041-0.099-0.028-0.212,0.036-0.299l32.191-44.191C169.565,157.394,169.693,157.348,169.814,157.378z M172.719,206.863
			l-3.229-48.323l-31.396,43.099L172.719,206.863z"/>
	</g>
	<g id="triangle36_592_">
		<path fill="#DDDDDC" d="M286.879,124.965c0.128,0.032,0.222,0.143,0.231,0.277c0.01,0.146-0.083,0.278-0.224,0.317
			l-117.065,32.413c-0.124,0.034-0.256-0.012-0.33-0.115l-38.627-53.177c-0.072-0.1-0.078-0.232-0.016-0.338
			c0.063-0.105,0.182-0.163,0.304-0.147l155.692,20.764C286.856,124.96,286.868,124.962,286.879,124.965z M169.862,157.324
			l115.41-31.955L131.78,104.898L169.862,157.324z"/>
	</g>
	<g id="triangle36_591_">
		<path fill="#DDDDDC" d="M131.187,104.201c0.067,0.017,0.13,0.057,0.173,0.118l38.627,53.177c0.075,0.102,0.079,0.239,0.01,0.345
			c-0.068,0.107-0.194,0.161-0.318,0.136l-31.366-6.219c-0.121-0.015-0.224-0.127-0.244-0.254l-7.249-46.873
			c-0.031-0.063-0.041-0.137-0.022-0.211c0.042-0.167,0.192-0.281,0.38-0.221L131.187,104.201z M169.031,157.223l-37.422-51.517
			l7.035,45.492L169.031,157.223z"/>
	</g>
	<g id="triangle36_590_">
		<path fill="#DDDDDC" d="M112.612,98.832c0.004,0.001,0.007,0.002,0.007,0.002l18.579,5.37c0.114,0.034,0.2,0.13,0.218,0.248
			l7.262,46.958c0.023,0.149-0.067,0.294-0.211,0.339s-0.3-0.02-0.368-0.157l-25.837-52.327c-0.054-0.109-0.039-0.24,0.04-0.333
			C112.377,98.842,112.498,98.803,112.612,98.832z M130.838,104.739l-17.718-5.121l24.645,49.914L130.838,104.739z"/>
	</g>
	<g id="triangle36_589_">
		<path fill="#DDDDDC" d="M270.122,194.132c0.056,0.014,0.107,0.043,0.149,0.087c0.102,0.109,0.111,0.274,0.023,0.394
			l-23.965,32.333c-0.071,0.095-0.19,0.141-0.305,0.118c-0.117-0.021-0.209-0.11-0.238-0.225l-3.675-14.213
			c-0.033-0.127,0.019-0.262,0.129-0.333l27.641-18.12C269.953,194.125,270.041,194.112,270.122,194.132z M246.218,226.064
			l22.557-30.433l-26.016,17.055L246.218,226.064z"/>
	</g>
	<g id="triangle36_588_">
		<path fill="#DDDDDC" d="M242.481,212.252c0.015,0.004,0.03,0.009,0.044,0.015c0.088,0.037,0.155,0.113,0.178,0.206l3.675,14.213
			c0.024,0.093,0.003,0.191-0.056,0.267c-0.058,0.075-0.149,0.118-0.245,0.117l-27.555-0.406c-0.137-0.002-0.258-0.096-0.293-0.229
			c-0.035-0.134,0.024-0.274,0.144-0.343l23.88-13.808C242.323,212.244,242.405,212.233,242.481,212.252z M245.683,226.45
			l-3.473-13.432l-22.568,13.049L245.683,226.45z"/>
	</g>
	<g id="triangle36_587_">
		<path fill="#DDDDDC" d="M246.157,226.465c0.114,0.029,0.204,0.121,0.227,0.242c0.027,0.143-0.051,0.286-0.187,0.341
			l-36.482,14.681c-0.123,0.048-0.262,0.015-0.347-0.085c-0.086-0.1-0.099-0.243-0.031-0.357l8.926-15.087
			c0.056-0.095,0.159-0.152,0.268-0.15l27.555,0.406C246.11,226.457,246.134,226.46,246.157,226.465z M210.325,240.822
			l34.228-13.774l-25.853-0.381L210.325,240.822z"/>
	</g>
	<g id="triangle36_586_">
		<path fill="#DDDDDC" d="M173.125,206.925c0.05,0.012,0.096,0.037,0.135,0.074l36.55,34.221c0.083,0.079,0.117,0.196,0.086,0.306
			c-0.03,0.11-0.12,0.194-0.231,0.219l-46.17,9.949c-0.101,0.022-0.208-0.009-0.282-0.083c-0.074-0.075-0.105-0.18-0.083-0.282
			l9.619-44.169c0.024-0.108,0.103-0.195,0.209-0.228C173.013,206.913,173.071,206.912,173.125,206.925z M208.963,241.268
			l-35.728-33.451l-9.403,43.175L208.963,241.268z"/>
	</g>
	<g id="triangle36_585_">
		<path fill="#DDDDDC" d="M209.675,241.146c0.064,0.016,0.123,0.053,0.166,0.108c0.072,0.092,0.087,0.216,0.037,0.322
			l-11.463,24.139c-0.069,0.148-0.245,0.219-0.393,0.153l-34.707-14.19c-0.125-0.05-0.201-0.177-0.19-0.311s0.109-0.244,0.241-0.273
			l46.17-9.949C209.583,241.133,209.63,241.135,209.675,241.146z M197.985,265.189l11.071-23.314l-44.59,9.609L197.985,265.189z"/>
	</g>
	<g id="triangle36_584_">
		<path fill="#DDDDDC" d="M173.125,206.925c0.072,0.018,0.135,0.062,0.178,0.124c0.048,0.07,0.065,0.157,0.047,0.239l-9.619,44.169
			c-0.028,0.126-0.131,0.222-0.259,0.239c-0.128,0.016-0.254-0.048-0.313-0.162l-25.883-49.526c-0.053-0.102-0.045-0.226,0.022-0.32
			s0.182-0.142,0.296-0.125l35.502,5.356C173.106,206.922,173.116,206.923,173.125,206.925z M163.31,250.501l9.37-43.023
			l-34.581-5.217L163.31,250.501z"/>
	</g>
	<g id="triangle36_583_">
		<path fill="#DDDDDC" d="M163.505,251.095c0.014,0.003,0.028,0.008,0.041,0.014l34.707,14.19c0.146,0.06,0.223,0.221,0.178,0.372
			l-2.066,6.895c-0.028,0.093-0.097,0.167-0.188,0.2s-0.191,0.022-0.273-0.03l-32.607-21.064c-0.139-0.057-0.218-0.209-0.18-0.359
			c0.041-0.164,0.208-0.264,0.373-0.223C163.495,251.093,163.501,251.095,163.505,251.095z M197.764,265.762l-31.394-12.835
			l29.524,19.072L197.764,265.762z"/>
	</g>
	<g id="triangle36_582_">
		<path fill="#DDDDDC" d="M163.505,251.095c0.033,0.008,0.063,0.022,0.092,0.041l32.641,21.085c0.104,0.068,0.158,0.191,0.135,0.314
			c-0.023,0.123-0.119,0.219-0.24,0.244l-30.701,6.273c-0.086,0.018-0.177-0.002-0.247-0.056c-0.071-0.053-0.114-0.134-0.121-0.223
			l-1.933-27.27c-0.023-0.059-0.029-0.124-0.012-0.189c0.042-0.167,0.202-0.264,0.38-0.221
			C163.501,251.094,163.503,251.094,163.505,251.095z M195.273,272.328l-31.493-20.344l1.871,26.396L195.273,272.328z"/>
	</g>
	<g id="triangle36_581_">
		<path fill="#DDDDDC" d="M137.623,201.57c0.084,0.021,0.156,0.076,0.197,0.155l25.883,49.526c0.039,0.074,0.045,0.161,0.019,0.24
			c-0.027,0.08-0.085,0.144-0.16,0.18l-69.764,32.805c-0.121,0.056-0.263,0.029-0.354-0.066c-0.091-0.096-0.11-0.24-0.048-0.356
			l43.881-82.331c0.053-0.1,0.158-0.163,0.272-0.162C137.574,201.56,137.599,201.564,137.623,201.57z M163.01,251.251
			l-25.465-48.727l-43.174,81.003L163.01,251.251z"/>
	</g>
	<g id="triangle36_580_">
		<path fill="#DDDDDC" d="M163.505,251.095c0.028,0.007,0.055,0.018,0.081,0.034c0.087,0.051,0.144,0.142,0.151,0.242l1.94,27.359
			c0.012,0.169-0.115,0.315-0.283,0.328l-71.704,5.447c-0.146,0.013-0.282-0.084-0.32-0.227c-0.037-0.143,0.032-0.293,0.166-0.356
			l69.765-32.805C163.365,251.084,163.438,251.078,163.505,251.095z M165.043,278.468l-1.887-26.608l-67.849,31.904L165.043,278.468
			z"/>
	</g>
	<g id="triangle36_579_">
		<path fill="#DDDDDC" d="M152.968,19.734c0.041,0.01,0.081,0.029,0.115,0.057l133.91,105.231c0.109,0.085,0.147,0.233,0.093,0.361
			c-0.054,0.127-0.186,0.203-0.323,0.185l-155.692-20.764c-0.086-0.012-0.165-0.06-0.214-0.133
			c-0.049-0.072-0.064-0.163-0.042-0.248l21.781-84.467c0.026-0.101,0.101-0.181,0.199-0.214
			C152.852,19.722,152.912,19.72,152.968,19.734z M285.731,124.811L153.073,20.564l-21.578,83.676L285.731,124.811z"/>
	</g>
	<g id="triangle36_578_">
		<path fill="#DDDDDC" d="M286.879,124.965c0.023,0.006,0.046,0.015,0.068,0.026l8.607,4.516c0.087,0.046,0.147,0.129,0.161,0.227
			l5.282,35.326c0.023,0.157-0.077,0.305-0.231,0.343c-0.154,0.039-0.311-0.048-0.363-0.197l-13.888-39.842
			c-0.041-0.118-0.006-0.251,0.09-0.334C286.68,124.965,286.783,124.941,286.879,124.965z M295.13,129.978l-7.78-4.082
			l12.554,36.017L295.13,129.978z"/>
	</g>
	<g id="triangle36_577_">
		<path fill="#DDDDDC" d="M52.416,183.546c0.094,0.024,0.172,0.091,0.208,0.181L93.95,284.082c0.056,0.135,0.008,0.291-0.113,0.372
			c-0.121,0.082-0.283,0.065-0.387-0.037l-70.041-69.525c-0.117-0.117-0.121-0.306-0.008-0.427l28.715-30.83
			c0.071-0.077,0.177-0.111,0.28-0.093C52.403,183.543,52.409,183.544,52.416,183.546z M92.803,282.909l-40.564-98.506
			l-28.186,30.263L92.803,282.909z"/>
	</g>
	<g id="triangle36_576_">
		<path fill="#DDDDDC" d="M137.623,201.57c0.089,0.022,0.164,0.084,0.203,0.167c0.041,0.088,0.038,0.189-0.008,0.274l-43.881,82.331
			c-0.056,0.105-0.168,0.168-0.286,0.162c-0.118-0.007-0.223-0.079-0.268-0.189L52.057,183.96c-0.043-0.106-0.025-0.226,0.048-0.313
			c0.072-0.087,0.188-0.128,0.299-0.104l85.207,18.024C137.615,201.568,137.619,201.569,137.623,201.57z M93.702,283.478
			l43.383-81.395l-84.239-17.82L93.702,283.478z"/>
	</g>
	<g id="triangle36_575_">
		<path fill="#DDDDDC" d="M147.554,5.735c0.095,0.024,0.175,0.093,0.212,0.188l5.414,14c0.048,0.122,0.011,0.262-0.09,0.346
			c-0.101,0.085-0.245,0.096-0.358,0.024l-7.948-4.948c-0.116-0.072-0.17-0.212-0.134-0.343l2.534-9.052
			c0.036-0.127,0.149-0.217,0.281-0.223C147.496,5.725,147.526,5.727,147.554,5.735z M152.276,19.287l-4.749-12.282l-2.223,7.941
			L152.276,19.287z"/>
	</g>
	<g id="triangle36_574_">
		<path fill="#DDDDDC" d="M145.02,14.786c0.031,0.008,0.06,0.02,0.088,0.038l7.948,4.948c0.131,0.081,0.18,0.246,0.117,0.386
			l-28.372,62.93c-0.066,0.148-0.239,0.219-0.387,0.161c-0.151-0.057-0.234-0.221-0.186-0.376l20.425-67.878
			c0.027-0.092,0.096-0.165,0.185-0.199C144.896,14.775,144.961,14.771,145.02,14.786z M152.503,20.151l-7.379-4.594L126.16,78.58
			L152.503,20.151z"/>
	</g>
	<g id="triangle36_573_">
		<path fill="#DDDDDC" d="M152.968,19.734c0.009,0.002,0.018,0.005,0.027,0.008c0.151,0.053,0.235,0.212,0.196,0.366l-21.781,84.467
			c-0.034,0.133-0.153,0.228-0.29,0.23c-0.137,0.003-0.26-0.085-0.301-0.217l-6.591-21.536c-0.022-0.072-0.017-0.149,0.013-0.216
			l28.372-62.93C152.675,19.769,152.825,19.699,152.968,19.734z M131.087,103.367l20.616-79.948l-26.854,59.564L131.087,103.367z"/>
	</g>
	<g id="triangle36_572_">
		<path fill="#DDDDDC" d="M124.596,82.664c0.104,0.026,0.187,0.105,0.219,0.208l6.591,21.536c0.033,0.107,0.005,0.225-0.074,0.305
			c-0.079,0.08-0.199,0.102-0.304,0.079l-18.575-5.369c-0.097-0.028-0.173-0.101-0.206-0.197c-0.032-0.095-0.016-0.2,0.044-0.281
			l11.984-16.167c0.07-0.093,0.185-0.14,0.299-0.12C124.581,82.661,124.589,82.663,124.596,82.664z M130.652,104.047l-6.247-20.413
			l-11.359,15.324L130.652,104.047z"/>
	</g>
	<g id="triangle36_571_">
		<path fill="#DDDDDC" d="M39.615,156.843c0.088,0.022,0.162,0.082,0.202,0.165l12.801,26.703c0.038,0.08,0.041,0.173,0.005,0.254
			c-0.035,0.082-0.104,0.144-0.188,0.171L2.697,200.118c-0.131,0.042-0.274-0.007-0.35-0.123c-0.076-0.115-0.066-0.266,0.024-0.371
			l36.938-42.685c0.067-0.078,0.17-0.117,0.272-0.103C39.593,156.838,39.604,156.84,39.615,156.843z M51.912,183.659l-12.446-25.963
			L3.551,199.199L51.912,183.659z"/>
	</g>
	<g id="triangle36_570_">
		<path fill="#DDDDDC" d="M52.416,183.546c0.074,0.019,0.141,0.065,0.184,0.133c0.075,0.119,0.06,0.271-0.035,0.374l-28.715,30.83
			c-0.105,0.113-0.275,0.13-0.402,0.041L2.424,200.076c-0.095-0.067-0.144-0.182-0.126-0.297c0.018-0.114,0.099-0.21,0.21-0.245
			l49.738-15.982C52.303,183.533,52.362,183.532,52.416,183.546z M23.584,214.268l27.73-29.773L3.282,199.929L23.584,214.268z"/>
	</g>
	<g id="triangle36_569_">
		<path fill="#DDDDDC" d="M84.05,160.037c0.104,0.026,0.188,0.106,0.22,0.212c0.036,0.124-0.008,0.256-0.112,0.332L52.524,184.09
			c-0.073,0.055-0.168,0.074-0.257,0.052h-0.001c-0.088-0.022-0.163-0.082-0.203-0.165l-12.801-26.703
			c-0.047-0.099-0.038-0.215,0.023-0.306c0.061-0.09,0.167-0.141,0.276-0.133l44.435,3.194
			C84.015,160.03,84.033,160.033,84.05,160.037z M52.456,183.375l30.672-22.794l-43.083-3.097L52.456,183.375z"/>
	</g>
	<g id="triangle36_568_">
		<path fill="#DDDDDC" d="M112.612,98.832c0.086,0.022,0.16,0.08,0.201,0.162l25.837,52.327c0.043,0.088,0.042,0.19-0.003,0.276
			c-0.044,0.087-0.128,0.147-0.223,0.163l-54.399,8.878c-0.113,0.018-0.225-0.028-0.294-0.118c-0.069-0.091-0.081-0.212-0.033-0.315
			L112.259,99c0.05-0.107,0.157-0.176,0.275-0.177C112.56,98.822,112.587,98.825,112.612,98.832z M137.914,151.221l-25.37-51.382
			l-28.045,60.099L137.914,151.221z"/>
	</g>
	<g id="triangle36_567_">
		<path fill="#DDDDDC" d="M138.448,151.159c0.046,0.012,0.089,0.034,0.126,0.065c0.068,0.059,0.107,0.147,0.106,0.238l-0.826,50.41
			c-0.002,0.117-0.07,0.221-0.175,0.272c-0.104,0.051-0.229,0.037-0.32-0.034l-53.573-41.532c-0.097-0.075-0.14-0.2-0.109-0.318
			c0.03-0.118,0.127-0.208,0.248-0.227l54.399-8.878C138.366,151.147,138.408,151.149,138.448,151.159z M137.251,201.249l0.81-49.43
			l-53.34,8.705L137.251,201.249z"/>
	</g>
	<g id="triangle36_566_">
		<path fill="#DDDDDC" d="M84.05,160.037c0.04,0.01,0.078,0.029,0.113,0.056l53.573,41.532c0.113,0.088,0.15,0.241,0.09,0.371
			s-0.202,0.201-0.342,0.171l-85.207-18.024c-0.128-0.024-0.211-0.116-0.236-0.235c-0.026-0.118,0.02-0.24,0.116-0.312
			l31.634-23.509C83.868,160.032,83.963,160.015,84.05,160.037z M136.302,201.29l-52.331-40.57L53.07,183.684L136.302,201.29z"/>
	</g>
</g>
</svg>
