<?xml version="1.0" encoding="utf-8"?>
<!-- Generator: Adobe Illustrator 19.1.1, SVG Export Plug-In . SVG Version: 6.00 Build 0)  -->
<svg version="1.1" id="Layer_1" xmlns="http://www.w3.org/2000/svg" xmlns:xlink="http://www.w3.org/1999/xlink" x="0px" y="0px"
	 width="85.04px" height="85.039px" viewBox="0 3.671 85.04 85.039" enable-background="new 0 3.671 85.04 85.039"
	 xml:space="preserve">
<path id="Ellipse_6_copy_2" fill="#FCD602" d="M42.722,3.671C66.194,3.794,85.122,22.921,85,46.393
	c-0.123,23.472-19.25,42.4-42.722,42.278C18.894,88.548,0.002,69.559,0,46.175C0.059,22.641,19.185,3.611,42.719,3.671
	C42.72,3.671,42.721,3.671,42.722,3.671z"/>
<g>
	<path fill="#010101" d="M56.907,88.671L56.907,88.671L56.907,88.671h11.548c0.263,0,0.521-0.107,0.707-0.293
		s0.293-0.444,0.293-0.707V60.492c0.707,0.265,1.434,0.403,2.147,0.402c1.662-0.001,3.238-0.673,4.405-1.811
		c1.168-1.135,1.928-2.762,1.926-4.617V47.09c0.002-1.855-0.758-3.482-1.926-4.617c-1.168-1.138-2.744-1.81-4.405-1.811
		c-0.713-0.001-1.439,0.138-2.147,0.402V27.671c0-0.263-0.107-0.521-0.293-0.707c-0.186-0.187-0.444-0.293-0.707-0.293H55.018
		H16.945c-0.264,0-0.521,0.107-0.707,0.293c-0.186,0.186-0.293,0.444-0.293,0.707v22.991l-0.012,0.117l0.012,0.117v36.775
		c0,0.263,0.107,0.521,0.293,0.707c0.187,0.187,0.444,0.293,0.707,0.293h38.073H56.907z"/>
	<path fill="#424343" d="M44.486,58.297l0.003-0.001c-0.712,0.416-1.444,0.598-2.159,0.599c-1.118,0.001-2.204-0.457-3.004-1.241
		c-0.799-0.786-1.314-1.874-1.316-3.186v-7.377c0.002-1.312,0.517-2.4,1.316-3.186c0.8-0.784,1.885-1.242,3.004-1.241
		c0.716,0.001,1.447,0.183,2.159,0.599l6.252,3.687l0,0c0.185,0.108,0.359,0.233,0.522,0.364c-0.444,0.745-0.747,1.583-0.879,2.479
		H47.91c-0.552,0-1,0.448-1,1s0.448,1,1,1h2.477c0.132,0.887,0.434,1.717,0.873,2.456c-0.162,0.13-0.335,0.254-0.519,0.362l0,0
		L44.486,58.297z"/>
	<path fill="#424343" d="M52.306,50.818l0.003-0.028l-0.003-0.033c0.007-1.301,0.524-2.468,1.355-3.316
		c0.833-0.847,1.965-1.364,3.223-1.373l0.024,0.002l0.028-0.003c1.261,0.007,2.396,0.525,3.231,1.374
		c0.815,0.832,1.325,1.97,1.352,3.238l-0.011,0.111l0.01,0.105c-0.03,1.264-0.538,2.397-1.351,3.227
		c-0.84,0.854-1.982,1.374-3.253,1.374c-1.27-0.001-2.413-0.521-3.253-1.374C52.831,53.277,52.316,52.114,52.306,50.818z"/>
	<path fill="#FFFFFF" d="M57.907,86.671V57.414c1.312-0.202,2.497-0.794,3.434-1.655c0.256,0.207,0.526,0.395,0.804,0.566
		l0.015,0.009l5.294,3.108v27.23L57.907,86.671L57.907,86.671z"/>
	<path fill="#424343" d="M71.602,42.662c1.116-0.001,2.206,0.458,3.009,1.243c0.803,0.787,1.32,1.874,1.322,3.185v7.377
		c-0.002,1.31-0.519,2.398-1.322,3.185c-0.804,0.785-1.893,1.243-3.009,1.243c-0.714-0.001-1.44-0.183-2.145-0.597l-0.002-0.001
		l-6.269-3.681c-0.216-0.132-0.415-0.272-0.591-0.415c0.424-0.727,0.716-1.541,0.845-2.41h2.466c0.552,0,1-0.448,1-1s-0.448-1-1-1
		h-2.463c-0.128-0.877-0.422-1.699-0.851-2.432c0.177-0.144,0.376-0.285,0.595-0.417l6.269-3.681l0.002-0.001
		C70.161,42.845,70.888,42.663,71.602,42.662z"/>
	<path fill="#FFFFFF" d="M67.455,42.116l-5.294,3.108l-0.015,0.009c-0.28,0.172-0.551,0.361-0.809,0.569
		c-0.936-0.859-2.119-1.449-3.429-1.651v-15.48h9.547V42.116z"/>
	<path fill="#FFFFFF" d="M55.018,28.67h0.89v15.482c-1.287,0.2-2.451,0.776-3.378,1.613c-0.242-0.196-0.499-0.378-0.773-0.54l0,0
		l-6.254-3.688L45.5,41.536c-1.014-0.595-2.109-0.874-3.17-0.873c-1.664,0.001-3.238,0.673-4.403,1.812
		c-1.166,1.136-1.92,2.762-1.918,4.616v2.689H17.945V28.67H55.018z"/>
	<path fill="#FFFFFF" d="M17.945,51.779h18.064v2.688c-0.002,1.853,0.752,3.48,1.918,4.616c1.164,1.139,2.739,1.811,4.403,1.812
		c1.061,0.001,2.156-0.278,3.17-0.873l0.003-0.001l6.254-3.688l0,0c0.272-0.161,0.528-0.342,0.768-0.537
		c0.927,0.839,2.094,1.416,3.382,1.617v29.259h-0.89H17.945V51.779z"/>
	<path fill="#010101" d="M35.995,65.485c-1.164,0-2.248,0.389-3.115,1.046c-0.871-0.657-1.954-1.046-3.12-1.046
		c-2.866,0.001-5.197,2.329-5.198,5.211c-0.001,1.263,0.457,2.422,1.201,3.322l0.023,0.027c0.088,0.099,0.196,0.218,0.313,0.338
		l0.002,0.003l0,0l6.031,6.456c0.19,0.203,0.451,0.317,0.73,0.318s0.539-0.112,0.73-0.316l6.043-6.437
		c0.107-0.107,0.229-0.229,0.357-0.388l0.001,0.001l0.006-0.008l0.005-0.006h-0.001c0.738-0.898,1.192-2.052,1.191-3.308
		C41.192,67.814,38.86,65.486,35.995,65.485z"/>
	<path fill="#FCD602" d="M32.864,78.695l-5.302-5.675l-0.014-0.01l-0.009-0.014l0,0c-0.072-0.072-0.158-0.167-0.24-0.26
		c-0.464-0.568-0.737-1.264-0.738-2.04c0.001-0.891,0.358-1.688,0.94-2.273c0.583-0.582,1.377-0.938,2.258-0.939
		c0.942,0,1.792,0.41,2.377,1.065l0.045,0.041l0.042,0.045l0.032,0.023l0.085,0.061l0.081,0.049l0.09,0.04l0.092,0.033l0.092,0.021
		l0.097,0.015l0.094,0.003l0.096-0.003l0.095-0.015l0.093-0.022l0.09-0.033l0.091-0.041l0.08-0.049l0.086-0.063l0.032-0.023
		l0.041-0.045l0.045-0.042l0,0c0.569-0.648,1.418-1.06,2.36-1.06c0.881,0.001,1.675,0.356,2.258,0.939
		c0.581,0.584,0.94,1.381,0.94,2.273c-0.001,0.78-0.276,1.479-0.743,2.048l-0.013,0.013c-0.045,0.057-0.12,0.135-0.236,0.25
		l-0.008,0.013l-0.012,0.009L32.864,78.695z"/>
</g>
</svg>
