<?xml version="1.0" encoding="utf-8"?>
<!-- Generator: Adobe Illustrator 19.1.1, SVG Export Plug-In . SVG Version: 6.00 Build 0)  -->
<svg version="1.1" id="Layer_1" xmlns="http://www.w3.org/2000/svg" xmlns:xlink="http://www.w3.org/1999/xlink" x="0px" y="0px"
	 width="102.047px" height="90.709px" viewBox="-10 -13.709 102.047 90.709" enable-background="new -10 -13.709 102.047 90.709"
	 xml:space="preserve">
<g>
	<path fill="#FFD700" d="M62.306,74.566H6.408v-7.793l29.531-32.812c4.373-4.96,7.391-8.994,9.053-12.1
		c1.66-3.105,2.49-6.318,2.49-9.639c0-4.453-1.348-8.105-4.043-10.957c-2.695-2.851-6.291-4.277-10.781-4.277
		c-5.391,0-9.58,1.534-12.568,4.6c-2.988,3.067-4.482,7.334-4.482,12.803H4.767c0-7.852,2.527-14.199,7.588-19.043
		c5.059-4.844,11.826-7.266,20.303-7.266c7.93,0,14.199,2.08,18.809,6.24c4.607,4.16,6.914,9.697,6.914,16.611
		c0,8.399-5.354,18.398-16.055,30L19.474,65.718h42.832V74.566z"/>
</g>
<g>
	<path fill="#010101" stroke="#000000" stroke-width="0.85" stroke-miterlimit="10" d="M81.296,29.144H80.9
		c-0.441,0-0.798-0.359-0.798-0.799v-2.389h4.78c0.44,0,0.797-0.356,0.797-0.797v-2.39c0-0.441-0.357-0.797-0.797-0.797h-1.594
		v-7.967c0-1.319-1.073-2.392-2.393-2.392H77.71V4.347c0-2.637-2.144-4.781-4.781-4.781s-4.781,2.144-4.781,4.781v7.266h-3.185
		c-1.32,0-2.393,1.073-2.393,2.392v7.967h-1.594c-0.441,0-0.797,0.356-0.797,0.797v2.39c0,0.441,0.356,0.797,0.797,0.797h4.781
		v2.389c0,0.441-0.358,0.799-0.799,0.799h-0.396c-3.296,0-5.977,2.681-5.977,5.977v8.833v22.792v1.843
		c0,3.295,2.681,5.977,5.977,5.977h16.734c3.296,0,5.977-2.681,5.977-5.977v-1.843V45.304V35.121
		C87.274,31.825,84.592,29.144,81.296,29.144z"/>
	<path fill="#FFFFFF" stroke="#000000" stroke-width="0.85" stroke-miterlimit="10" d="M80.9,30.738h0.396
		c2.417,0,4.384,1.967,4.384,4.383v9.697c-1.426-0.379-2.872-0.571-4.396-0.571c-2.083,0-4.082,0.359-5.965,0.834V25.956h3.187
		v2.389C78.507,29.664,79.581,30.738,80.9,30.738z"/>
	<path fill="#FFFFFF" stroke="#000000" stroke-width="0.85" stroke-miterlimit="10" d="M72.179,45.968
		c-0.015,0.005-0.031,0.01-0.047,0.014V25.956h1.594V45.51c-0.081,0.023-0.159,0.049-0.239,0.072
		C73.043,45.71,72.607,45.839,72.179,45.968z"/>
	<path fill="#FFFFFF" d="M69.742,4.347c0-1.758,1.43-3.187,3.187-3.187c1.758,0,3.187,1.43,3.187,3.187v7.266h-6.375V4.347H69.742z"
		/>
	<path fill="#FFFFFF" stroke="#000000" stroke-width="0.85" stroke-miterlimit="10" d="M64.164,14.005
		c0-0.441,0.358-0.798,0.799-0.798h15.933c0.441,0,0.799,0.358,0.799,0.798v7.967h-1.593v-5.578h-1.594v5.578h-1.594v-5.578H75.32
		v5.578h-1.595v-5.578h-1.594v5.578h-1.593v-5.578h-1.594v5.578h-1.595v-5.578h-1.594v5.578h-1.594v-7.967H64.164z"/>
	<polygon fill="#FFFFFF" points="61.773,24.362 61.773,23.566 62.57,23.566 83.289,23.566 84.085,23.566 84.085,24.362 
		80.102,24.362 75.32,24.362 70.539,24.362 65.757,24.362 	"/>
	<path fill="#FFFFFF" stroke="#000000" stroke-width="0.85" stroke-miterlimit="10" d="M64.562,30.738h0.396
		c1.32,0,2.393-1.073,2.393-2.393v-2.389h3.187V46.46c-1.925,0.567-3.753,1.03-5.427,1.03c-1.934,0-3.508-0.63-4.932-1.961V35.121
		C60.179,32.705,62.145,30.738,64.562,30.738z"/>
	<path fill="#FFFFFF" stroke="#000000" stroke-width="0.85" stroke-miterlimit="10" d="M85.68,68.589
		c0,2.417-1.967,4.383-4.384,4.383H64.562c-2.417,0-4.383-1.966-4.383-4.383v-1.843v-1.594v-3.387v-14.18
		c1.451,1.007,3.078,1.499,4.932,1.499c1.745,0,3.548-0.423,5.427-0.963v0.006l0.743-0.224c0.33-0.098,0.661-0.198,0.996-0.3
		c0.776-0.235,1.57-0.473,2.378-0.699c2.119-0.59,4.31-1.063,6.629-1.063c1.528,0,2.972,0.204,4.396,0.622v18.689h-0.001v1.594
		h0.001C85.68,66.746,85.68,68.589,85.68,68.589z"/>
	<path fill="#010101" stroke="#000000" stroke-width="0.6428" stroke-miterlimit="10" d="M79.357,33.59
		c1.995,0,3.616,1.621,3.616,3.616c0,0.133-0.008,0.265-0.022,0.399l1.197,0.135c0.02-0.178,0.03-0.355,0.03-0.533
		c0-2.659-2.164-4.821-4.822-4.821v1.204H79.357z"/>
</g>
</svg>
