<?xml version="1.0" encoding="utf-8"?>
<!-- Generator: Adobe Illustrator 19.1.1, SVG Export Plug-In . SVG Version: 6.00 Build 0)  -->
<svg version="1.1" id="Layer_1" xmlns="http://www.w3.org/2000/svg" xmlns:xlink="http://www.w3.org/1999/xlink" x="0px" y="0px"
	 width="85.04px" height="85.039px" viewBox="0 3.671 85.04 85.039" enable-background="new 0 3.671 85.04 85.039"
	 xml:space="preserve">
<path id="Ellipse_6_copy_2" fill="#FCD602" d="M42.722,3.709C66.194,3.832,85.122,22.959,85,46.431
	c-0.123,23.472-19.25,42.4-42.722,42.278C18.894,88.586,0.002,69.597,0,46.213C0.059,22.679,19.185,3.649,42.719,3.709
	C42.72,3.709,42.721,3.709,42.722,3.709z"/>
<path d="M42.501,88.71c-8.24,0-14.453-2.761-14.453-6.423s6.213-6.423,14.453-6.423c8.239,0,14.453,2.761,14.453,6.423
	S50.74,88.71,42.501,88.71z"/>
<path fill="#424343" d="M42.501,77.683c-7.445,0-12.633,2.426-12.633,4.603s5.188,4.603,12.633,4.603
	c7.444,0,12.632-2.426,12.632-4.603S49.945,77.683,42.501,77.683z"/>
<g>
	<path d="M42.5,20.281c-1.709,0-3.458,0.171-5.227,0.53c-9.71,1.971-17.455,9.87-19.309,19.597
		c-0.313,1.648-0.463,3.277-0.463,4.873c0.001,10.227,6.157,19.041,14.978,22.877c2.035,0.887,3.604,2.544,4.299,4.622l2.695,8.065
		c0.232,0.701,0.681,1.269,1.225,1.635c0.546,0.368,1.177,0.546,1.803,0.546s1.257-0.178,1.802-0.546
		c0.545-0.366,0.993-0.932,1.226-1.635l2.693-8.058c0.7-2.095,2.298-3.749,4.363-4.656c8.788-3.851,14.915-12.646,14.916-22.85
		C67.5,31.463,56.318,20.281,42.5,20.281z"/>
	<path fill="#FFFFFF" d="M51.771,66.276c-2.543,1.114-4.576,3.19-5.47,5.868l-2.693,8.059c-0.1,0.292-0.251,0.469-0.44,0.599
		c-0.189,0.128-0.425,0.199-0.669,0.199c-0.242,0-0.48-0.071-0.669-0.199c-0.189-0.13-0.34-0.308-0.44-0.599l-2.695-8.065
		c-0.885-2.646-2.878-4.735-5.41-5.837c-8.102-3.525-13.763-11.622-13.762-21.021c0-1.47,0.138-2.972,0.428-4.495
		c1.683-8.903,8.847-16.203,17.722-17.991c1.639-0.331,3.252-0.489,4.825-0.489c6.354,0.001,12.091,2.568,16.25,6.726
		c4.158,4.159,6.725,9.896,6.726,16.25C65.477,54.657,59.842,62.737,51.771,66.276z"/>
	<path d="M52.231,40.25l-5.378-0.781l-2.405-4.873l0,0c-0.192-0.391-0.492-0.704-0.837-0.907c-0.344-0.204-0.729-0.303-1.111-0.303
		s-0.767,0.099-1.112,0.303c-0.344,0.203-0.645,0.518-0.837,0.908l-2.405,4.873l-5.378,0.781c-0.56,0.079-1.05,0.376-1.368,0.77
		c-0.321,0.395-0.493,0.882-0.494,1.387c-0.003,0.545,0.217,1.123,0.658,1.55l3.892,3.793l-0.919,5.356l0.001-0.003
		c-0.023,0.126-0.033,0.253-0.033,0.379c-0.001,0.614,0.263,1.169,0.658,1.549c0.395,0.383,0.931,0.616,1.515,0.619
		c0.339,0.001,0.69-0.082,1.01-0.252l4.81-2.529l4.81,2.529c0.322,0.169,0.673,0.253,1.01,0.252c0.585-0.001,1.12-0.234,1.515-0.618
		c0.395-0.381,0.66-0.936,0.658-1.549c0-0.124-0.011-0.249-0.033-0.376l-0.916-5.357l3.892-3.793
		c0.441-0.427,0.661-1.005,0.658-1.55c-0.001-0.506-0.173-0.992-0.494-1.387C53.28,40.624,52.793,40.328,52.231,40.25z"/>
	<path fill="#FCD602" d="M52.022,42.507L47.75,46.67c-0.238,0.231-0.347,0.569-0.291,0.895l1.008,5.88l0.003,0.033l-0.043,0.097
		l-0.106,0.048l-0.071-0.02l-5.279-2.776c-0.293-0.154-0.648-0.154-0.942,0l-5.281,2.776l-0.069,0.02l-0.106-0.048l-0.043-0.097
		l0.003-0.029l0.001-0.003l1.008-5.88c0.055-0.327-0.053-0.664-0.291-0.895l-4.272-4.164l-0.047-0.1l0.038-0.106l0.091-0.047
		l5.905-0.857c0.329-0.048,0.615-0.256,0.762-0.554l2.641-5.35l0.053-0.063l0.079-0.022l0.079,0.021l0.053,0.063l2.641,5.35
		c0.147,0.297,0.434,0.506,0.762,0.554l5.904,0.857l0.091,0.048l0.038,0.106L52.022,42.507z"/>
</g>
</svg>
