<?xml version="1.0" encoding="utf-8"?>
<!-- Generator: Adobe Illustrator 19.1.1, SVG Export Plug-In . SVG Version: 6.00 Build 0)  -->
<svg version="1.1" id="Layer_1" xmlns="http://www.w3.org/2000/svg" xmlns:xlink="http://www.w3.org/1999/xlink" x="0px" y="0px"
	 width="10px" height="10px" viewBox="0 0 10 10" style="enable-background:new 0 0 10 10;" xml:space="preserve">
<style type="text/css">
	.st0{fill:#CCCCCB;}
</style>
<path class="st0" d="M9.7,8.1L6.6,5l3.1-3.1c0.4-0.4,0.4-1.1,0-1.6c0,0,0,0,0,0c-0.4-0.4-1.1-0.4-1.6,0L5,3.4L1.9,0.3h0
	c-0.4-0.4-1.1-0.4-1.6,0s-0.4,1.1,0,1.6L3.4,5L0.3,8.1c-0.4,0.4-0.4,1.1,0,1.6s1.1,0.4,1.6,0L5,6.6l3.1,3.1c0.4,0.4,1.1,0.4,1.6,0
	S10.1,8.5,9.7,8.1z"/>
</svg>
