<?xml version="1.0" encoding="utf-8"?>
<!-- Generator: Adobe Illustrator 19.1.1, SVG Export Plug-In . SVG Version: 6.00 Build 0)  -->
<svg version="1.1" id="Layer_1" xmlns="http://www.w3.org/2000/svg" xmlns:xlink="http://www.w3.org/1999/xlink" x="0px" y="0px"
	 width="64px" height="64px" viewBox="0 0 64 64" enable-background="new 0 0 64 64" xml:space="preserve">
<circle fill="#F9D607" cx="32" cy="32" r="32"/>
<g>
	<path fill="#020202" d="M58.483,38.634h-0.79v-9.525c0-2.433-2.021-4.413-4.506-4.413H49.33v-3.95c0-2.433-1.979-4.413-4.413-4.413
		H9.7c-2.895,0-5.249,2.355-5.249,5.249v3.252v1.032V58.75C4.45,61.645,6.805,64,9.7,64h43.486c2.485,0,4.506-1.981,4.506-4.414
		v-9.524h0.79c0.589,0,1.068-0.479,1.068-1.068v-9.293C59.551,39.113,59.072,38.634,58.483,38.634z"/>
	<path fill="#454646" d="M9.7,18.469h35.216c1.276,0,2.277,1,2.277,2.277v3.95H9.7c-1.746,0-3.114-1.368-3.114-3.114
		C6.586,19.837,7.954,18.469,9.7,18.469z"/>
	<path fill="#FFFFFF" d="M55.556,59.586c0,1.256-1.063,2.277-2.37,2.277H9.7c-1.746,0-3.114-1.368-3.114-3.114V26.018l1.068,0.399
		c0.765,0.287,1.397,0.415,2.046,0.415h43.486c1.306,0,2.37,1.021,2.37,2.277v9.525H45.474c-3.204,0-5.714,2.51-5.714,5.714
		c0,3.204,2.51,5.714,5.714,5.714h10.083L55.556,59.586L55.556,59.586z"/>
	<path fill="#F9D607" d="M57.414,47.926h-11.94c-2.007,0-3.577-1.572-3.577-3.577s1.572-3.579,3.577-3.579h11.941L57.414,47.926
		L57.414,47.926z"/>
	<circle fill="#020202" cx="45.755" cy="44.348" r="1.788"/>
</g>
</svg>
