<?xml version="1.0" encoding="UTF-8" standalone="no"?>
<svg
   xmlns:dc="http://purl.org/dc/elements/1.1/"
   xmlns:cc="http://creativecommons.org/ns#"
   xmlns:rdf="http://www.w3.org/1999/02/22-rdf-syntax-ns#"
   xmlns:svg="http://www.w3.org/2000/svg"
   xmlns="http://www.w3.org/2000/svg"
   xml:space="preserve"
   enable-background="new -120 8.73 100 125"
   viewBox="-120 8.73 59.619999 59.592999"
   height="59.592999"
   width="59.619999"
   y="0px"
   x="0px"
   id="Layer_1"
   version="1.1"><metadata
     id="metadata13"><rdf:RDF><cc:Work
         rdf:about=""><dc:format>image/svg+xml</dc:format><dc:type
           rdf:resource="http://purl.org/dc/dcmitype/StillImage" /><dc:title></dc:title></cc:Work></rdf:RDF></metadata><defs
     id="defs11" /><g
     transform="translate(-21.781,-32.447)"
     id="g3"><path
       id="path5"
       d="m -68.41,59.615 c -6.262,0 -11.357,5.096 -11.357,11.359 0,6.261 5.095,11.354 11.357,11.354 6.262,0 11.356,-5.093 11.356,-11.354 0,-6.263 -5.094,-11.359 -11.356,-11.359 z m 0,4.381 c 3.848,0 6.979,3.131 6.979,6.98 0,3.846 -3.131,6.975 -6.979,6.975 -3.848,0 -6.979,-3.129 -6.979,-6.975 0,-3.849 3.131,-6.98 6.979,-6.98 z" /><path
       id="path7"
       d="m -41.478,84.513 2.879,-9.053 -6.524,-3.353 -0.014,-2.566 6.476,-3.442 -2.996,-9.018 -7.247,1.12 -1.52,-2.064 3.217,-6.591 -7.726,-5.535 -5.205,5.166 -2.444,-0.776 -1.269,-7.224 -9.505,0.064 -1.174,7.238 -2.433,0.809 -5.271,-5.099 -7.653,5.638 3.304,6.548 -1.493,2.083 -7.26,-1.024 -2.883,9.054 6.521,3.358 0.017,2.564 -6.476,3.437 2.996,9.022 7.249,-1.12 1.52,2.063 -3.22,6.587 7.725,5.539 5.207,-5.163 2.443,0.772 1.27,7.223 9.506,-0.062 1.172,-7.238 2.436,-0.808 5.273,5.097 7.649,-5.634 -3.304,-6.551 1.495,-2.084 7.262,1.023 z m -13.863,0.664 2.834,5.613 -1.691,1.246 -4.519,-4.368 -7.47,2.479 -1.006,6.203 -2.102,0.014 -1.089,-6.19 -7.499,-2.375 -4.459,4.423 -1.71,-1.227 2.759,-5.646 -4.666,-6.337 -6.211,0.96 -0.664,-1.997 5.549,-2.943 -0.05,-7.87 -5.588,-2.876 0.637,-2.004 6.222,0.878 4.584,-6.395 -2.832,-5.611 1.693,-1.248 4.518,4.369 7.468,-2.481 1.006,-6.204 2.105,-0.014 1.087,6.191 7.5,2.381 4.46,-4.426 1.709,1.224 -2.757,5.646 4.667,6.337 6.21,-0.959 0.662,1.994 -5.551,2.949 0.048,7.87 5.593,2.874 -0.635,2 -6.225,-0.878 -4.587,6.398 z" /></g></svg>