<?xml version="1.0" encoding="UTF-8" standalone="no"?>
<svg
   xmlns:dc="http://purl.org/dc/elements/1.1/"
   xmlns:cc="http://creativecommons.org/ns#"
   xmlns:rdf="http://www.w3.org/1999/02/22-rdf-syntax-ns#"
   xmlns:svg="http://www.w3.org/2000/svg"
   xmlns="http://www.w3.org/2000/svg"
   xml:space="preserve"
   enable-background="new 0 0 512 512"
   viewBox="0 0 327.02701 327.03101"
   height="327.03101"
   width="327.02701"
   y="0px"
   x="0px"
   id="Layer_1"
   version="1.1"><metadata
     id="metadata9"><rdf:RDF><cc:Work
         rdf:about=""><dc:format>image/svg+xml</dc:format><dc:type
           rdf:resource="http://purl.org/dc/dcmitype/StillImage" /><dc:title></dc:title></cc:Work></rdf:RDF></metadata><defs
     id="defs7" /><path
     style="fill:#475993"
     id="path3"
     d="m 327.027,0 0,44.066 0,62.934 0,113.031 0,62.933 0,44.067 -74.066,0 -11.934,0 -58.172,0 0.204,-116.863 40.359,0 c 3.629,0 6.687,-2.715 7.113,-6.321 l 4.465,-37.672 c 0.508,-4.257 -2.82,-8.004 -7.113,-8.004 l -45.028,0 0,-31.511 c 0,-14.293 3.969,-24.028 24.461,-24.028 l 18.977,-0.011 c 3.953,0 7.16,-3.207 7.16,-7.164 l 0,-31.762 c 0,-3.957 -3.211,-7.164 -7.164,-7.164 l -30.922,0 c -37.679,0 -63.476,23 -63.476,65.238 l 0,36.399 -30.309,0 c -3.965,0 -7.18,3.226 -7.164,7.191 l 0.148,37.672 c 0.012,3.945 3.215,7.137 7.161,7.137 l 30.363,0 -0.203,116.859 -75.887,0 0,0.004 -56,0 0,-44.07 0,-62.93 L 0,107 0,44.066 0,0 44.066,0 56,0 l 215.027,0 11.934,0 44.066,0 z" /></svg>