<?xml version="1.0" encoding="utf-8"?>
<!-- Generator: Adobe Illustrator 19.1.1, SVG Export Plug-In . SVG Version: 6.00 Build 0)  -->
<svg version="1.1" id="Layer_1" xmlns="http://www.w3.org/2000/svg" xmlns:xlink="http://www.w3.org/1999/xlink" x="0px" y="0px"
	 width="31px" height="18px" viewBox="0 0 31 18" enable-background="new 0 0 31 18" xml:space="preserve">
<path fill="#FFFFFF" d="M30.318,1.646c-0.407-0.318-1.859-0.273-3.266-0.273c-1.45,0-2.902,0-3.266,0.136
	c-0.272,0.137-0.997,1.815-1.905,3.538c-1.042,1.95-2.313,3.855-3.083,3.855c-1.044-0.046-0.817-3.266-0.727-5.624
	c0-1.542-0.227-2.042-0.453-2.223c-0.544-0.363-2.086-0.726-2.086-0.726s-4.491-0.317-5.171,1.633
	c0.861,0.091,2.358-0.181,1.769,5.897c0,0.318-0.681,2.812-2.767-0.59C8.819,6.453,6.779,1.372,6.097,1.372
	C3.739,1.282,1.47,1.191,0.655,1.645c-0.772,0.453,0.997,3.9,3.945,8.572c2.45,3.81,5.035,6.804,9.48,7.529
	c0.815,0.091,2.994,0.181,3.674-0.136c0.453-0.227-0.091-3.538,1.497-3.855c0.68-0.136,3.402,3.447,4.399,3.855
	c0.636,0.227,1.997,0.317,3.402,0.272c1.497-0.045,3.221,0.136,3.402-0.861c0.364-2.267-4.58-5.261-4.717-6.668
	c-0.136-0.999,1.815-2.858,2.811-4.264C29.728,4.367,31.044,2.28,30.318,1.646L30.318,1.646z"/>
</svg>
