<?xml version="1.0" encoding="utf-8"?>
<!-- Generator: Adobe Illustrator 19.1.1, SVG Export Plug-In . SVG Version: 6.00 Build 0)  -->
<svg version="1.1" id="Layer_1" xmlns="http://www.w3.org/2000/svg" xmlns:xlink="http://www.w3.org/1999/xlink" x="0px" y="0px"
	 width="25px" height="25px" viewBox="0 0 25 25" enable-background="new 0 0 25 25" xml:space="preserve">
<path fill="#010101" d="M12.5,0C5.583,0,0,5.583,0,12.5C0,19.417,5.583,25,12.5,25S25,19.417,25,12.5C25,5.583,19.417,0,12.5,0z
	 M12.472,19.447c-0.833,0-1.5-0.667-1.5-1.5c0-0.833,0.667-1.5,1.5-1.5s1.5,0.667,1.5,1.5
	C13.972,18.781,13.306,19.447,12.472,19.447z M15.861,11.003c-0.167,0.222-0.361,0.444-0.556,0.639
	c-0.139,0.139-0.306,0.278-0.5,0.5c-0.222,0.194-0.389,0.361-0.528,0.528c-0.139,0.139-0.278,0.278-0.361,0.389
	c-0.25,0.333-0.361,0.778-0.333,1.194v0.861h-2.167v-1.167c-0.028-0.389,0.028-0.778,0.194-1.167c0.222-0.361,0.472-0.694,0.806-1
	l1.389-1.389c0.306-0.333,0.444-0.75,0.444-1.194c0-0.444-0.167-0.861-0.472-1.167c-0.306-0.306-0.75-0.472-1.194-0.472
	c-0.444-0.028-0.889,0.139-1.222,0.444c-0.333,0.306-0.528,0.75-0.556,1.194H8.472c0.083-1.028,0.556-2,1.333-2.667
	c0.806-0.667,1.806-1,2.861-0.972c1-0.056,2,0.278,2.778,0.917c0.722,0.611,1.083,1.5,1.083,2.611
	C16.5,9.781,16.278,10.475,15.861,11.003z"/>
</svg>
