<?xml version="1.0" encoding="utf-8"?>
<!-- Generator: Adobe Illustrator 19.1.1, SVG Export Plug-In . SVG Version: 6.00 Build 0)  -->
<svg version="1.1" id="Layer_1" xmlns="http://www.w3.org/2000/svg" xmlns:xlink="http://www.w3.org/1999/xlink" x="0px" y="0px"
	 width="255.118px" height="198.425px" viewBox="0 0 255.118 198.425" enable-background="new 0 0 255.118 198.425"
	 xml:space="preserve">
<path fill="#010101" d="M66.334,124.173c0.193-2.847,0.33-5.58,0.41-8.2c0.08-2.62,0.053-4.993-0.08-7.12
	c-0.045-1.686-0.384-3.351-1-4.92c-0.21-0.542-0.617-0.985-1.14-1.24c-0.486-0.219-1.019-0.312-1.55-0.27
	c-0.566,0.047-1.123,0.178-1.65,0.39c-0.501,0.191-0.983,0.429-1.44,0.71c-0.335,0.197-0.63,0.455-0.87,0.76
	c-0.18,0.25-0.17,0.41,0,0.49s0.43,0.73,0.54,1.8s0.17,2.47,0.17,4.17s0,3.64-0.1,5.8s-0.14,4.38-0.2,6.67s-0.12,4.56-0.15,6.83
	c-0.03,2.27,0,4.36,0,6.25s0.19,3.52,0.36,4.89c0.051,0.988,0.332,1.95,0.82,2.81c0.444,0.741,1.163,1.277,2,1.49
	c0.662,0.149,1.352,0.122,2-0.08c0.548-0.167,1.04-0.482,1.42-0.91c0.35-0.41,0.48-0.76,0.39-1c-0.447-1.412-0.65-2.89-0.6-4.37
	c0-2,0.047-4.267,0.14-6.8C65.897,129.789,66.074,127.073,66.334,124.173z"/>
<path fill="#010101" d="M78.694,117.173c-0.558,1.496-1.311,2.911-2.24,4.21c-0.915,1.285-1.983,2.453-3.18,3.48
	c-1.174,0.976-2.497,1.757-3.92,2.31c-0.45,0.165-0.698,0.648-0.57,1.11c0.035,0.232,0.161,0.441,0.35,0.58
	c0.184,0.129,0.406,0.192,0.63,0.18c1.398-0.005,2.787-0.238,4.11-0.69l0.77-0.28c0.26-0.1,0.51-0.21,0.75-0.33
	c1.812-0.826,3.469-1.956,4.9-3.34c1.524-1.408,2.837-3.028,3.9-4.81c1.069-1.779,1.897-3.692,2.46-5.69
	c0.499-1.675,0.762-3.412,0.78-5.16c0.021-1.639-0.208-3.271-0.68-4.84c-0.516-1.662-1.33-3.217-2.4-4.59
	c-0.569-0.744-1.205-1.433-1.9-2.06c-0.724-0.653-1.504-1.242-2.33-1.76c-1.448-0.893-3.004-1.598-4.63-2.1
	c-1.46-0.443-2.967-0.708-4.49-0.79c-1.455-0.073-2.914,0.014-4.35,0.26c-1.429,0.246-2.834,0.614-4.2,1.1
	c-1.933,0.69-3.748,1.675-5.38,2.92c-1.764,1.32-3.365,2.844-4.77,4.54c-1.438,1.734-2.679,3.622-3.7,5.63
	c-1.009,1.928-1.742,3.988-2.18,6.12c-0.277,1.376-0.411,2.777-0.4,4.18c0.009,1.355,0.211,2.702,0.6,4
	c0.386,1.28,1.018,2.472,1.86,3.51c0.904,1.097,2.042,1.979,3.33,2.58c0.556,0.216,1.174,0.216,1.73,0c0.579-0.23,1.109-0.57,1.56-1
	c0.397-0.348,0.708-0.782,0.91-1.27c0.167-0.44,0.117-0.753-0.15-0.94c-1.31-0.869-2.35-2.088-3-3.52
	c-0.746-1.594-1.203-3.307-1.35-5.06c-0.171-1.931-0.074-3.876,0.29-5.78c0.36-1.976,1.014-3.888,1.94-5.67
	c0.923-1.78,2.124-3.401,3.56-4.8c3.265-3.284,8.063-4.522,12.51-3.23c2.132,0.601,4.072,1.745,5.63,3.32
	c1.58,1.629,2.764,3.6,3.46,5.76c0.77,2.31,1.049,4.756,0.82,7.18C79.605,114.053,79.259,115.649,78.694,117.173z"/>
<path fill="#010101" d="M90.814,84.783c-0.113,0.56-0.213,1.083-0.3,1.57c-0.084,0.365-0.084,0.745,0,1.11
	c0.242,0.858,0.823,1.581,1.61,2c0.71,0.387,1.494,0.622,2.3,0.69c0.674,0.058,1.353-0.013,2-0.21c0.58-0.19,0.82-0.43,0.72-0.72
	c-0.077-0.373-0.077-0.757,0-1.13c0.05-0.5,0.13-1,0.22-1.52s0.17-1,0.24-1.46c0.069-0.33,0.069-0.67,0-1
	c-0.229-0.847-0.787-1.567-1.55-2c-0.694-0.386-1.46-0.625-2.25-0.7c-0.671-0.082-1.352-0.024-2,0.17
	c-0.547,0.18-0.777,0.397-0.69,0.65c0.074,0.329,0.074,0.671,0,1C91.027,83.706,90.927,84.223,90.814,84.783z"/>
<path fill="#010101" d="M160.714,104.873c0.507-0.329,1.096-0.509,1.7-0.52c0.568-0.013,1.129,0.133,1.62,0.42
	c0.516,0.316,0.929,0.775,1.19,1.32c0.319,0.66,0.473,1.387,0.45,2.12c0,0.627,0.177,0.96,0.53,1c0.455,0.015,0.903-0.115,1.28-0.37
	c0.579-0.349,1.111-0.773,1.58-1.26c0.534-0.53,1.016-1.109,1.44-1.73c0.383-0.543,0.676-1.144,0.87-1.78
	c0.181-0.461,0.121-0.982-0.16-1.39c-0.627-0.813-1.518-1.382-2.52-1.61c-1.026-0.235-2.087-0.282-3.13-0.14
	c-1.072,0.143-2.123,0.415-3.13,0.81c-0.873,0.33-1.714,0.742-2.51,1.23c-2.106,1.42-3.891,3.267-5.24,5.42
	c-1.478,2.345-2.715,4.835-3.69,7.43c-0.962,2.288-1.803,4.624-2.52,7c-0.667,2.26-1.267,4.483-1.8,6.67
	c-0.533,2.187-1.017,4.37-1.45,6.55c-0.447,2.18-0.95,4.387-1.51,6.62s-1.187,4.53-1.88,6.89c-0.74,2.479-1.604,4.918-2.59,7.31
	c-0.22,0.52-0.5,1.187-0.84,2c-0.34,0.813-0.713,1.667-1.12,2.56c-0.407,0.887-0.843,1.747-1.31,2.58
	c-0.4,0.736-0.869,1.432-1.4,2.08c-0.363,0.48-0.846,0.855-1.4,1.09c-0.498,0.151-1.037-0.039-1.33-0.47
	c-0.534-0.585-0.882-1.316-1-2.1c-0.199-1.075-0.299-2.166-0.3-3.26c0-1.24,0.043-2.6,0.13-4.08c0.087-1.48,0.193-3,0.32-4.56
	c0.127-1.527,0.243-3.097,0.35-4.71s0.17-3.23,0.19-4.85c0-1.62-0.047-3.207-0.14-4.76c-0.101-1.511-0.318-3.012-0.65-4.49
	c-0.337-1.466-0.816-2.896-1.43-4.27c-0.543-1.199-1.264-2.308-2.14-3.29c-2.153-2.093-4.93-3.427-7.91-3.8
	c-1.606-0.242-3.239-0.259-4.85-0.05c-1.64,0.215-3.252,0.603-4.81,1.16c-1.597,0.573-3.131,1.307-4.58,2.19
	c-1.472,0.88-2.867,1.884-4.17,3c-0.593,0.507-1.26,1.12-2,1.84c-0.784,0.792-1.513,1.637-2.18,2.53
	c-0.787,1.046-1.511,2.138-2.17,3.27c-0.755,1.306-1.381,2.683-1.87,4.11c-0.616,1.698-1.002,3.47-1.15,5.27
	c-0.143,1.775-0.079,3.56,0.19,5.32c0.224,1.611,0.661,3.184,1.3,4.68c0.564,1.352,1.371,2.589,2.38,3.65
	c1.962,2.087,4.918,2.919,7.68,2.16c1.197-0.23,2.266-0.897,3-1.87c0.613-0.826,1.043-1.774,1.26-2.78
	c0.199-0.771,0.199-1.579,0-2.35c-0.207-0.627-0.507-0.817-0.9-0.57c-1.78,1.153-3.35,1.537-4.71,1.15
	c-1.391-0.406-2.588-1.301-3.37-2.52c-0.958-1.474-1.595-3.134-1.87-4.87c-0.366-1.978-0.463-3.996-0.29-6
	c0.104-1.242,0.37-2.466,0.79-3.64c0.398-1.124,0.893-2.212,1.48-3.25c0.543-0.959,1.169-1.869,1.87-2.72
	c0.609-0.744,1.278-1.436,2-2.07c1.366-1.219,2.965-2.147,4.7-2.73c1.743-0.577,3.599-0.721,5.41-0.42
	c2.482,0.332,4.794,1.445,6.6,3.18c1.866,2.023,3.103,4.546,3.56,7.26c0.637,3.081,0.915,6.225,0.83,9.37
	c-0.067,3.333-0.21,6.627-0.43,9.88c-0.127,1.827-0.233,3.587-0.32,5.28c-0.087,1.693-0.087,3.237,0,4.63
	c0.036,1.396,0.221,2.783,0.55,4.14c0.228,0.957,0.689,1.843,1.34,2.58c0.942,0.908,2.263,1.306,3.55,1.07
	c0.44-0.043,0.874-0.14,1.29-0.29c1.907-0.667,3.907-2.45,6-5.35c2.305-3.564,4.254-7.345,5.82-11.29c1-2.507,1.86-4.933,2.58-7.28
	s1.343-4.653,1.87-6.92c0.527-2.26,1.023-4.483,1.49-6.67c0.467-2.187,0.957-4.38,1.47-6.58c0.513-2.2,1.113-4.423,1.8-6.67
	c0.687-2.247,1.503-4.537,2.45-6.87C155.214,110.546,157.834,106.673,160.714,104.873z"/>
<path fill="#010101" d="M210.174,58.303c-11.58-1.08-23,3-23,3s-2.56-15.27-15.47-25.9s-30.59-9.69-43.82-3.77
	c0,0-9.26-17.49-35.26-17.49s-36,22.2-36.09,31.48c0,0,7.2-27.58,36.09-27.58c17.46,0,28.56,10.63,32.83,20.32
	c0,0,19.74-10.49,38.58-0.81s18.76,33,18.76,33s18.1-12.25,38.55-2.16s15.7,42.65,6.64,50.52c-0.514,0.76-1.115,1.458-1.79,2.08
	c-0.671,0.646-1.515,1.084-2.43,1.26c-0.56,0.092-1.131-0.086-1.54-0.48c-0.502-0.483-0.903-1.061-1.18-1.7
	c-0.368-0.808-0.649-1.653-0.84-2.52c-0.223-0.988-0.374-1.99-0.45-3c1.623-1.099,3.061-2.449,4.26-4c1.098-1.423,2-2.987,2.68-4.65
	c0.601-1.456,0.986-2.992,1.14-4.56c0.15-1.261,0.027-2.54-0.36-3.75c-0.294-0.948-0.957-1.737-1.84-2.19
	c-1.057-0.426-2.242-0.401-3.28,0.07c-1.304,0.468-2.513,1.166-3.57,2.06c-1.148,0.982-2.124,2.148-2.89,3.45
	c-0.892,1.546-1.565,3.209-2,4.94c-0.484,1.892-0.769,3.829-0.85,5.78c-0.18,1-0.41,2.12-0.7,3.32
	c-0.448,1.839-1.009,3.65-1.68,5.42c-0.678,1.864-1.532,3.658-2.55,5.36c-0.978,1.63-2.333,3.001-3.95,4
	c0.993-1.601,1.744-3.34,2.23-5.16c0.606-2.286,0.941-4.636,1-7c0.038-1.46-0.036-2.921-0.22-4.37c-0.16-1.45-0.541-2.866-1.13-4.2
	c-0.549-1.234-1.365-2.331-2.39-3.21c-1.135-0.916-2.542-1.429-4-1.46c-2.017-0.186-4.016,0.51-5.48,1.91
	c-1.426,1.487-2.508,3.269-3.17,5.22c-0.126-0.601-0.352-1.175-0.67-1.7c-0.526-0.848-1.395-1.424-2.38-1.58
	c-0.817-0.1-1.645,0.006-2.41,0.31c-0.638,0.239-1.208,0.63-1.66,1.14c-0.38,0.46-0.407,0.753-0.08,0.88
	c0.327,0.127,0.51,0.793,0.55,2c0.073,1.227,0.073,2.803,0,4.73c-0.06,1.48-0.143,3.117-0.25,4.91c0,0.23-0.06,0.48-0.1,0.73
	c-0.173,1.113-0.387,2.3-0.64,3.56c-0.253,1.26-0.563,2.543-0.93,3.85c-0.367,1.333-0.74,2.527-1.12,3.58
	c-0.321,0.938-0.705,1.854-1.15,2.74c-0.2,0.532-0.546,0.997-1,1.34c-0.8,0.367-1.287,0.167-1.46-0.6c-0.168-1.1-0.168-2.22,0-3.32
	c0.153-1.447,0.387-3.113,0.7-5c0.313-1.887,0.57-3.777,0.77-5.67c0.195-1.76,0.245-3.532,0.15-5.3
	c-0.011-1.372-0.425-2.711-1.19-3.85c-0.533-0.853-1.414-1.428-2.41-1.57c-0.817-0.096-1.644,0.01-2.41,0.31
	c-0.627,0.238-1.187,0.626-1.63,1.13c-0.38,0.46-0.407,0.753-0.08,0.88c0.29,0.14,0.49,0.52,0.59,1.15
	c0.111,0.788,0.151,1.585,0.12,2.38c0,0.96-0.067,2.053-0.2,3.28c-0.133,1.227-0.227,2.523-0.28,3.89
	c-0.147,1.067-0.293,2.22-0.44,3.46c-0.147,1.24-0.307,2.49-0.48,3.75c-0.18,1.26-0.393,2.477-0.64,3.65
	c-0.211,1.048-0.492,2.08-0.84,3.09c-0.249,0.762-0.631,1.473-1.13,2.1c-0.356,0.483-0.93,0.757-1.53,0.73
	c-0.786-0.051-1.499-0.475-1.92-1.14c-0.598-0.84-1.054-1.773-1.35-2.76c-0.367-1.181-0.605-2.398-0.71-3.63
	c-0.109-1.254-0.109-2.516,0-3.77c0.167-1.92,0.387-3.687,0.66-5.3c0.234-1.412,0.568-2.806,1-4.17
	c0.293-0.979,0.702-1.919,1.22-2.8c0.301-0.587,0.811-1.04,1.43-1.27c0.399-0.126,0.833,0.01,1.09,0.34
	c-0.184,0.262-0.317,0.558-0.39,0.87c-0.086,0.29-0.086,0.6,0,0.89c0.14,0.441,0.476,0.792,0.91,0.95c0.422,0.16,0.888,0.16,1.31,0
	c0.452-0.127,0.821-0.456,1-0.89c0.272-0.573,0.272-1.237,0-1.81c-0.202-0.636-0.571-1.206-1.07-1.65
	c-0.425-0.362-0.923-0.628-1.46-0.78c-0.511-0.139-1.043-0.187-1.57-0.14c-0.493,0.042-0.981,0.126-1.46,0.25
	c-1.314,0.444-2.537,1.121-3.61,2c-1.168,0.957-2.151,2.119-2.9,3.43c-0.897,1.565-1.57,3.248-2,5
	c-0.537,2.178-0.832,4.408-0.88,6.65c-0.079,1.464-0.046,2.931,0.1,4.39c0.159,1.45,0.54,2.866,1.13,4.2
	c0.55,1.242,1.366,2.348,2.39,3.24c1.126,0.928,2.541,1.434,4,1.43c1.183,0.109,2.374-0.087,3.46-0.57
	c0.957-0.474,1.794-1.157,2.45-2c0.718-0.901,1.283-1.915,1.67-3c0.445-1.244,0.802-2.517,1.07-3.81
	c0.321,1.629,1.147,3.116,2.36,4.25c0.986,0.925,2.436,1.155,3.66,0.58c0.963-0.387,1.784-1.06,2.35-1.93
	c0.758-1.079,1.392-2.239,1.89-3.46c0.28-0.667,0.54-1.353,0.78-2.06c-0.12,1.77-0.24,3.55-0.33,5.3
	c-0.14,2.553-0.22,4.917-0.24,7.09c-0.03,1.866,0.047,3.733,0.23,5.59c0.033,1.124,0.349,2.221,0.92,3.19
	c0.509,0.813,1.293,1.417,2.21,1.7c0.661,0.168,1.357,0.136,2-0.09c0.526-0.182,0.977-0.533,1.28-1c0.27-0.44,0.28-0.78,0-1
	c-0.488-0.76-0.713-1.66-0.64-2.56c-0.05-1.691-0.014-3.383,0.11-5.07c0.127-2,0.317-4.25,0.57-6.75c0.253-2.5,0.51-5.047,0.77-7.64
	c0.26-2.613,0.497-5.183,0.71-7.71c0.213-2.527,0.347-4.86,0.4-7c0.24-1.253,0.52-2.483,0.84-3.69c0.281-1.097,0.649-2.171,1.1-3.21
	c0.353-0.837,0.836-1.613,1.43-2.3c0.453-0.548,1.096-0.905,1.8-1c0.779-0.049,1.521,0.335,1.93,1c0.597,0.84,1.044,1.777,1.32,2.77
	c0.359,1.214,0.6,2.46,0.72,3.72c0.135,1.272,0.155,2.554,0.06,3.83c-0.153,1.953-0.37,3.727-0.65,5.32
	c-0.24,1.401-0.574,2.784-1,4.14c-0.291,0.986-0.708,1.93-1.24,2.81c-0.299,0.576-0.796,1.023-1.4,1.26
	c-0.41,0.135-0.861,0.009-1.14-0.32c0.497-0.449,0.657-1.162,0.4-1.78c-0.14-0.441-0.476-0.792-0.91-0.95
	c-0.422-0.159-0.888-0.159-1.31,0c-0.459,0.178-0.822,0.541-1,1c-0.24,0.557-0.215,1.194,0.07,1.73c0.2,0.637,0.57,1.207,1.07,1.65
	c0.425,0.363,0.923,0.629,1.46,0.78c0.511,0.14,1.043,0.188,1.57,0.14c0.493-0.041,0.982-0.124,1.46-0.25l0.81-0.29
	c1.757-0.38,3.458-0.985,5.06-1.8c1.354-0.695,2.603-1.577,3.71-2.62c1.022-0.973,1.904-2.084,2.62-3.3
	c0.714-1.216,1.339-2.483,1.87-3.79c0.56-1.39,1-2.8,1.46-4.2c0.194,0.83,0.465,1.64,0.81,2.42c0.549,1.245,1.369,2.352,2.4,3.24
	c1.131,0.915,2.545,1.41,4,1.4c1.425,0.092,2.847-0.224,4.1-0.91c1.049-0.586,2.006-1.324,2.84-2.19c0,0,11.34-9.95,11.34-29.86
	S221.764,59.383,210.174,58.303z M219.734,110.953c0.166-3.193,0.71-6.355,1.62-9.42c0.793-2.427,1.68-3.793,2.66-4.1
	c0.667-0.193,1.153,0.18,1.46,1.12c0.329,1.2,0.373,2.46,0.13,3.68c-0.303,1.748-0.883,3.436-1.72,5c-1.029,1.946-2.461,3.651-4.2,5
	C219.677,111.805,219.694,111.378,219.734,110.953z"/>
<path fill="#010101" d="M149.564,61.813l0.11,0.08L149.564,61.813z"/>
<path fill="#010101" d="M93.594,175.333l-0.82-0.26l0,0l-3.06-1l-0.38-0.25c1.11-2.28,1.94-9.12-6.65-9
	c-1.818,0.02-3.63,0.217-5.41,0.59c-0.47-0.34-0.83-0.62-1.07-0.84c0.954-1.271,1.778-2.635,2.46-4.07
	c0.562-1.178,0.989-2.416,1.27-3.69c0.235-1.056,0.312-2.141,0.23-3.22c-0.074-0.923-0.286-1.83-0.63-2.69
	c-0.348-0.873-0.88-1.661-1.56-2.31c-0.658-0.622-1.438-1.102-2.29-1.41c-0.901-0.319-1.856-0.458-2.81-0.41
	c-1.06,0.05-2.103,0.287-3.08,0.7c-1.208,0.491-2.301,1.226-3.21,2.16c-0.895,0.909-1.617,1.973-2.13,3.14
	c-0.505,1.148-0.796,2.378-0.86,3.63c-0.071,1.24,0.138,2.481,0.61,3.63c0.301,0.705,0.677,1.375,1.12,2
	c0.476,0.695,0.99,1.362,1.54,2c0.553,0.667,1.113,1.263,1.68,1.79c0.567,0.527,1.093,0.977,1.58,1.35
	c-0.3,0.37-0.58,0.74-0.85,1.11c-6.307,2.775-12.812,5.078-19.46,6.89c-5.257,0.751-10.618,0.166-15.59-1.7l-1.61-0.55v-0.06
	c-3.955-1.62-7.465-4.16-10.24-7.41c-2.028-3.012-3.392-6.42-4-10c-1.671-9.058,0.785-18.389,6.7-25.45
	c0.398-0.467,0.822-0.911,1.27-1.33c-3.77-6.59-7.67-19.78,0-30.27s24-8.48,24-8.48c-2-18.66,10-35.25,29.78-37
	c11.431-1.132,22.656,3.613,29.81,12.6c3.175-2.63,6.661-4.86,10.38-6.64l-0.07,0.07c4.634-1.986,9.688-2.794,14.71-2.35
	c5.252,0.395,10.302,2.194,14.62,5.21l-0.45-0.34c8.19,5.87,11.47,14.21,9,25.22c-0.13,0.58-0.28,1.12-0.44,1.63l0,0l-0.06,0.15
	c-0.329,1.066-0.775,2.092-1.33,3.06c-0.1,0.2-0.21,0.4-0.31,0.6h-0.06c0,0-6.59,13.44-14.73,6.4l0,0c-1.13-1.05-2.21-2.06-3.17-3
	c-1.333-1.253-2.4-2.207-3.2-2.86c1-0.847,2.04-1.77,3.12-2.77s2.08-2,3-3c0.891-0.966,1.707-1.999,2.44-3.09
	c0.614-0.871,1.056-1.852,1.3-2.89c0.288-0.963,0.142-2.004-0.4-2.85c-0.471-0.685-1.107-1.238-1.85-1.61
	c-0.614-0.328-1.304-0.49-2-0.47c-0.59,0-0.83,0.21-0.72,0.54c0.087,0.523,0.014,1.06-0.21,1.54c-0.307,0.834-0.671,1.646-1.09,2.43
	c-0.48,0.92-1.037,1.92-1.67,3s-1.3,2.19-2,3.33c-0.667,1.113-1.363,2.193-2.09,3.24c-0.727,1.047-1.353,2.003-1.88,2.87
	c0.347-2.72,0.68-5.453,1-8.2c0-0.14,0-0.27,0-0.41s0-0.11,0-0.19c0.18-1.6,0.3-3.84,0.36-5l0,0c0-0.95,0-1.83,0-2.64
	c0.027-1.261-0.262-2.509-0.84-3.63c-0.507-0.856-1.361-1.451-2.34-1.63c-0.812-0.119-1.64-0.033-2.41,0.25
	c-0.64,0.221-1.217,0.595-1.68,1.09c-0.393,0.453-0.427,0.747-0.1,0.88c0.327,0.133,0.493,0.82,0.5,2.06c0,0.82,0,1.82,0,3l0,0
	c-0.07,0.91-0.15,1.85-0.24,2.85c-0.213,2.453-0.443,4.983-0.69,7.59c-0.16,1.71-0.3,3.39-0.44,5.08
	c-0.116,0.16-0.183,0.352-0.19,0.55c-0.069,1.197-0.23,2.387-0.48,3.56c-0.574,2.756-1.436,5.444-2.57,8.02
	c-0.551,1.248-1.204,2.448-1.95,3.59c-0.626,0.981-1.387,1.87-2.26,2.64c-0.687,0.629-1.541,1.046-2.46,1.2
	c-0.767,0.056-1.498-0.333-1.88-1c-0.576-0.854-0.999-1.801-1.25-2.8c-0.341-1.206-0.568-2.442-0.68-3.69
	c-0.118-1.284-0.118-2.576,0-3.86c0.213-1.913,0.477-3.673,0.79-5.28c0.259-1.403,0.617-2.787,1.07-4.14
	c0.313-0.972,0.743-1.902,1.28-2.77c0.315-0.578,0.836-1.017,1.46-1.23c0.4-0.117,0.83,0.027,1.08,0.36
	c-0.19,0.258-0.329,0.55-0.41,0.86c-0.087,0.29-0.087,0.6,0,0.89c0.12,0.456,0.451,0.828,0.89,1c0.416,0.176,0.882,0.194,1.31,0.05
	c0.464-0.136,0.835-0.485,1-0.94c0.228-0.554,0.228-1.176,0-1.73c-0.179-0.636-0.524-1.212-1-1.67
	c-0.415-0.374-0.907-0.654-1.44-0.82c-0.505-0.152-1.033-0.213-1.56-0.18c-0.492,0.029-0.98,0.099-1.46,0.21
	c-1.319,0.396-2.555,1.026-3.65,1.86c-1.197,0.927-2.214,2.066-3,3.36c-0.938,1.559-1.652,3.242-2.12,5
	c-0.331,1.201-0.579,2.424-0.74,3.66c-0.118,0.152-0.184,0.338-0.19,0.53c-0.039,0.886-0.142,1.769-0.31,2.64
	c-0.193,1.107-0.443,2.29-0.75,3.55c-0.307,1.26-0.64,2.537-1,3.83c-0.38,1.287-0.773,2.467-1.18,3.54
	c-0.339,0.923-0.733,1.824-1.18,2.7c-0.222,0.543-0.606,1.004-1.1,1.32c-0.807,0.347-1.287,0.133-1.44-0.64
	c-0.169-1.1-0.169-2.22,0-3.32c0.187-1.447,0.46-3.113,0.82-5s0.663-3.77,0.91-5.65c0.233-1.753,0.324-3.522,0.27-5.29
	c0.019-1.373-0.363-2.721-1.1-3.88c-0.512-0.865-1.379-1.461-2.37-1.63c-0.812-0.116-1.639-0.03-2.41,0.25
	c-0.634,0.223-1.204,0.597-1.66,1.09c-0.393,0.453-0.427,0.747-0.1,0.88s0.527,0.59,0.6,1.37c0.072,0.945,0.072,1.895,0,2.84
	c-0.08,1.147-0.197,2.437-0.35,3.87s-0.267,2.91-0.34,4.43c-0.1,1.52-0.14,3.017-0.12,4.49c0.014,1.37,0.151,2.735,0.41,4.08
	c0.191,0.946,0.493,1.865,0.9,2.74c0.326,0.747,0.791,1.426,1.37,2c0.477,0.482,1.074,0.827,1.73,1c0.669,0.147,1.368,0.084,2-0.18
	c0.97-0.364,1.804-1.016,2.39-1.87c0.794-1.061,1.465-2.208,2-3.42c0.615-1.382,1.143-2.802,1.58-4.25c0.29-1,0.55-1.89,0.79-2.83
	c0.174,0.766,0.415,1.516,0.72,2.24c0.523,1.256,1.315,2.383,2.32,3.3c1.113,0.962,2.529,1.5,4,1.52
	c1.433,0.125,2.872-0.159,4.15-0.82c1.322-0.691,2.505-1.62,3.49-2.74c1.099-1.249,2.04-2.63,2.8-4.11
	c0.764-1.486,1.432-3.019,2-4.59c0,1.73,0,3.26,0.12,4.57c0.008,1.125,0.301,2.229,0.85,3.21c0.49,0.825,1.26,1.446,2.17,1.75
	c0.652,0.198,1.348,0.198,2,0c0.533-0.178,0.991-0.53,1.3-1c0.28-0.43,0.3-0.77,0.06-1c-0.376-0.504-0.57-1.121-0.55-1.75
	c-0.07-1.119-0.07-2.241,0-3.36c0.06-1.333,0.177-2.863,0.35-4.59c0.173-1.727,0.383-3.55,0.63-5.47
	c0.233-0.311,0.487-0.605,0.76-0.88l1.1-1.12c0.667,0,1.543,0.623,2.63,1.87c0.59,0.69,1.24,1.47,1.93,2.34l0,0
	c0,0,2.09,2.62,3.64,5.08s6.59,5.31,12.58-2.54l0.66-0.88l0,0c1.503-1.826,2.864-3.766,4.07-5.8c0.247-0.387,0.483-0.79,0.71-1.21
	l0.14-0.26l0,0c0.14-0.27,0.27-0.56,0.4-0.84c0.226-0.418,0.41-0.856,0.55-1.31l0,0c1.876-5.32,2.475-11.006,1.75-16.6
	c-1.44-11.48-13.72-22.89-29.06-22.12s-21.17,7-21.17,7s-13.39-14.21-33.48-10.89c-20.09,3.32-26.64,16.32-29.15,22.6
	c-1.553,4.137-2.345,8.521-2.34,12.94c0,0-19.46,1.06-26.46,16.48c-4.112,8.942-3.228,19.387,2.33,27.51
	c-2.75,3.62-8.53,12.55-7.56,22.84c0.452,4.693,1.905,9.235,4.26,13.32c1.431,2.193,3.149,4.184,5.11,5.92
	c2.437,1.977,5.171,3.556,8.1,4.68l0,0c6.425,2.331,13.375,2.813,20.06,1.39c5.439-1.242,10.705-3.146,15.68-5.67l-0.18,0.31
	c-0.673,1.236-1.203,2.544-1.58,3.9c-0.323,1.155-0.478,2.351-0.46,3.55c0.015,1.028,0.219,2.045,0.6,3
	c0.404,1.005,1.041,1.9,1.86,2.61c0.867,0.737,1.894,1.261,3,1.53c1.308,0.322,2.664,0.4,4,0.23c1.667-0.206,3.297-0.647,4.84-1.31
	c1.216-0.48,2.362-1.119,3.41-1.9c0.826-0.625,1.602-1.313,2.32-2.06c0.668-0.706,1.255-1.484,1.75-2.32
	c0.184,0.111,0.374,0.211,0.57,0.3l1.32,0.65c0.5,0.247,1,0.48,1.5,0.7s0.873,0.37,1.12,0.45c0.323,0.119,0.677,0.119,1,0
	c0.373-0.165,0.694-0.427,0.93-0.76c0.28-0.369,0.506-0.777,0.67-1.21c0.165-0.433,0.27-0.888,0.31-1.35
	c0.044-0.4-0.007-0.804-0.15-1.18C94.203,175.737,93.936,175.463,93.594,175.333z M69.294,153.853
	c0.735-1.246,1.998-2.089,3.43-2.29l0,0c0.213-0.06,0.43-0.104,0.65-0.13c0.36-0.051,0.726-0.017,1.07,0.1
	c0.296,0.111,0.558,0.297,0.76,0.54c0.223,0.274,0.402,0.581,0.53,0.91c0.261,0.636,0.407,1.313,0.43,2
	c0.022,0.725-0.045,1.451-0.2,2.16c-0.177,0.81-0.425,1.603-0.74,2.37c-0.19,0.47-0.4,1-0.63,1.47l0,0l-0.05,0.11
	c-0.15,0.35-0.31,0.69-0.48,1.06h-0.07c-0.21,0.34-0.469,0.647-0.77,0.91C69.174,159.523,67.974,155.993,69.294,153.853z
	 M80.444,178.783c-0.74,0.677-1.593,1.218-2.52,1.6c-0.783,0.339-1.612,0.562-2.46,0.66c-0.67,0.08-1.349,0.029-2-0.15
	c-0.543-0.152-1.04-0.433-1.45-0.82c-0.403-0.39-0.72-0.86-0.93-1.38c-0.236-0.587-0.378-1.208-0.42-1.84
	c-0.05-0.715-0.013-1.434,0.11-2.14c0.139-0.796,0.356-1.577,0.65-2.33c0.32-0.832,0.711-1.636,1.17-2.4
	c1.1,0.887,2.057,1.633,2.87,2.24c0.813,0.607,1.583,1.15,2.31,1.63c0.72,0.48,1.443,0.927,2.17,1.34
	c0.727,0.413,1.543,0.86,2.45,1.34C81.831,177.354,81.177,178.109,80.444,178.783L80.444,178.783z M85.634,171.343l-0.45,0.94
	l-7-5.2l1.27-0.22l-0.08-0.06c0.4-0.05,0.79-0.08,1.16-0.1h0.07c2-0.09,3.7,0.34,4.49,1.55c0.629,0.903,0.823,2.039,0.53,3.1
	L85.634,171.343z"/>
</svg>
