<?xml version="1.0" encoding="UTF-8" standalone="no"?>
<!-- Generator: Adobe Illustrator 19.1.1, SVG Export Plug-In . SVG Version: 6.00 Build 0)  -->

<svg
   xmlns:dc="http://purl.org/dc/elements/1.1/"
   xmlns:cc="http://creativecommons.org/ns#"
   xmlns:rdf="http://www.w3.org/1999/02/22-rdf-syntax-ns#"
   xmlns:svg="http://www.w3.org/2000/svg"
   xmlns="http://www.w3.org/2000/svg"
   xmlns:sodipodi="http://sodipodi.sourceforge.net/DTD/sodipodi-0.dtd"
   xmlns:inkscape="http://www.inkscape.org/namespaces/inkscape"
   version="1.1"
   id="Layer_1"
   x="0px"
   y="0px"
   width="18.165388"
   height="20"
   viewBox="0 0 18.165388 20"
   enable-background="new 0 0 20 22"
   xml:space="preserve"
   inkscape:version="0.91 r13725"
   sodipodi:docname="my profile.svg"><metadata
     id="metadata9"><rdf:RDF><cc:Work
         rdf:about=""><dc:format>image/svg+xml</dc:format><dc:type
           rdf:resource="http://purl.org/dc/dcmitype/StillImage" /><dc:title></dc:title></cc:Work></rdf:RDF></metadata><defs
     id="defs7" /><sodipodi:namedview
     pagecolor="#ffffff"
     bordercolor="#666666"
     borderopacity="1"
     objecttolerance="10"
     gridtolerance="10"
     guidetolerance="10"
     inkscape:pageopacity="0"
     inkscape:pageshadow="2"
     inkscape:window-width="690"
     inkscape:window-height="480"
     id="namedview5"
     showgrid="false"
     fit-margin-top="0"
     fit-margin-left="0"
     fit-margin-right="0"
     fit-margin-bottom="0"
     inkscape:zoom="10.727273"
     inkscape:cx="9.0824738"
     inkscape:cy="9.85"
     inkscape:window-x="0"
     inkscape:window-y="0"
     inkscape:window-maximized="0"
     inkscape:current-layer="Layer_1" /><path
     d="m 18.147474,18.129 c -0.319,-3.154 -2.053,-5.669 -4.59,-6.748 1.289,-1.201 2.101,-2.908 2.101,-4.805 0,-3.626 -2.95,-6.576 -6.5760002,-6.576 -3.626,0 -6.576,2.95 -6.576,6.576 0,1.897 0.812,3.603 2.101,4.805 -2.536,1.079 -4.27100004,3.594 -4.59000004,6.748 -0.024,0.169 -0.085,0.823 0.34,1.331 0.206,0.246 0.598,0.54 1.29500004,0.54 l 14.8600002,0 c 0.698,0 1.089,-0.294 1.295,-0.54 0.425,-0.508 0.365,-1.162 0.34,-1.331 z M 3.8314738,6.577 c 0,-2.895 2.356,-5.251 5.251,-5.251 2.8950002,0 5.2510002,2.356 5.2510002,5.251 0,2.895 -2.356,5.25 -5.2510002,5.25 -2.895,0 -5.251,-2.355 -5.251,-5.25 z M 16.791474,18.61 c -0.025,0.03 -0.113,0.065 -0.279,0.065 l -14.8600002,0 c -0.164,0 -0.253,-0.034 -0.278,-0.064 -0.047,-0.054 -0.058,-0.206 -0.048,-0.281 0.003,-0.017 0.006,-0.035 0.007,-0.052 0.278,-2.8 1.842,-4.997 4.106,-5.805 1.048,0.537 2.576,0.807 3.657,0.83 1.0550002,-0.023 2.5810002,-0.293 3.6280002,-0.83 2.264,0.808 3.827,3.006 4.106,5.805 0.002,0.017 0.004,0.035 0.007,0.052 0.007,0.037 0.008,0.215 -0.046,0.28 z"
     id="path3"
     inkscape:connector-curvature="0"
     style="fill:#010101" /></svg>