<?xml version="1.0" encoding="utf-8"?>
<!-- Generator: Adobe Illustrator 19.1.1, SVG Export Plug-In . SVG Version: 6.00 Build 0)  -->
<svg version="1.1" id="Layer_1" xmlns="http://www.w3.org/2000/svg" xmlns:xlink="http://www.w3.org/1999/xlink" x="0px" y="0px"
	 width="670px" height="632px" viewBox="0 0 670 632" style="enable-background:new 0 0 670 632;" xml:space="preserve">
<style type="text/css">
	.st0{opacity:0.1;}
	.st1{fill:#5A5A5A;}
</style>
<g class="st0">
	<g id="triangle36_604_">
		<path class="st1" d="M170.7,242.2c-0.2-0.1-0.3-0.2-0.4-0.3L140,195c-0.2-0.3-0.2-0.8,0-1.1c0.2-0.3,0.6-0.5,1-0.5l66.5,6.9
			c0.4,0,0.7,0.3,0.9,0.7c0.1,0.4,0.1,0.8-0.2,1.1l-36.2,40c-0.2,0.2-0.5,0.4-0.8,0.3C170.9,242.3,170.8,242.3,170.7,242.2z
			 M142.9,195.7l28.4,43.9l33.9-37.5L142.9,195.7z"/>
	</g>
	<g id="triangle36_603_">
		<path class="st1" d="M140.4,195.3c-0.3-0.2-0.5-0.4-0.5-0.8c-0.1-0.5,0.2-0.9,0.7-1.1L244.8,157c0.4-0.2,0.9,0,1.2,0.4
			c0.3,0.4,0.2,0.9-0.1,1.2L208.1,202c-0.2,0.3-0.5,0.4-0.9,0.3l-66.5-6.9C140.6,195.4,140.5,195.4,140.4,195.3z M241.9,160.2
			l-96.3,33.6l61.4,6.3L241.9,160.2z"/>
	</g>
	<g id="triangle36_602_">
		<path class="st1" d="M206.9,202.2c-0.1-0.1-0.2-0.2-0.3-0.3c-0.3-0.4-0.3-0.9,0-1.3l37.8-43.3c0.1-0.1,0.3-0.3,0.5-0.3l88.6-25.5
			c0.5-0.1,1,0.1,1.2,0.6c0.2,0.5,0,1-0.5,1.3l-126.5,68.8C207.5,202.4,207.2,202.4,206.9,202.2z M245.8,158.9l-33.9,38.8
			l113.2-61.6L245.8,158.9z"/>
	</g>
	<g id="triangle36_601_">
		<path class="st1" d="M206.9,202.2c-0.3-0.1-0.5-0.4-0.5-0.7c-0.1-0.4,0.1-0.9,0.5-1.1l126.5-68.8c0.4-0.2,0.8-0.2,1.1,0.1
			l132.1,98.8c0.4,0.3,0.5,0.8,0.3,1.2c-0.2,0.4-0.6,0.7-1.1,0.6l-258.5-30.1C207.1,202.3,207,202.3,206.9,202.2z M333.7,133.7
			l-123,66.9l251.5,29.2L333.7,133.7z"/>
	</g>
	<g id="triangle36_600_">
		<path class="st1" d="M465.4,232.3c0,0-0.1-0.1-0.1-0.1l-132.1-98.8c-0.2-0.2-0.4-0.4-0.4-0.7c0-0.3,0.1-0.6,0.3-0.8l41.2-41.7
			c0.2-0.2,0.5-0.3,0.8-0.3c0.3,0,0.6,0.2,0.8,0.5l90.8,140.4c0.3,0.3,0.4,0.8,0.2,1.2C466.6,232.4,465.9,232.5,465.4,232.3
			L465.4,232.3z M335.4,132.4l126.5,94.7L374.8,92.4L335.4,132.4z"/>
	</g>
	<g id="triangle36_599_">
		<path class="st1" d="M17.2,265.7c-0.2-0.1-0.4-0.3-0.5-0.6c-0.2-0.5,0-1,0.5-1.2l123.1-70.4c0.5-0.3,1.1-0.1,1.4,0.3l30.3,46.9
			c0.2,0.3,0.2,0.7,0.1,1c-0.1,0.3-0.4,0.5-0.8,0.6L17.9,265.8C17.6,265.8,17.4,265.8,17.2,265.7z M140.5,195.8L23,262.9l146.4-22.4
			L140.5,195.8z"/>
	</g>
	<g id="triangle36_598_">
		<path class="st1" d="M30.1,406.2c-0.3-0.2-0.5-0.5-0.5-0.8L16.7,264.9c-0.1-0.5,0.3-1,0.9-1.1L171,240.3c0.4-0.1,0.8,0.1,1.1,0.5
			c0.2,0.4,0.2,0.8-0.1,1.2l-140.6,164c-0.3,0.3-0.7,0.4-1.1,0.3C30.2,406.2,30.1,406.2,30.1,406.2z M18.8,265.7l12.5,137.1
			l137.2-160L18.8,265.7z"/>
	</g>
	<g id="triangle36_597_">
		<path class="st1" d="M30.1,406.2c-0.2-0.1-0.3-0.3-0.4-0.5c-0.2-0.4-0.1-0.8,0.1-1.1l140.6-164c0.3-0.4,0.8-0.5,1.3-0.2
			l265.4,153.5c0.4,0.2,0.6,0.7,0.5,1.1c-0.1,0.4-0.5,0.8-1,0.8l-406,10.5C30.4,406.3,30.2,406.3,30.1,406.2z M171.4,242.6
			L32.8,404.2l400.1-10.3L171.4,242.6z"/>
	</g>
	<g id="triangle36_596_">
		<path class="st1" d="M436.1,395.7C436.1,395.7,436.1,395.7,436.1,395.7C436.1,395.7,436.1,395.7,436.1,395.7L170.6,242.2
			c-0.3-0.2-0.5-0.4-0.5-0.7c0-0.3,0-0.6,0.3-0.8l36.2-40c0.4-0.4,1-0.4,1.4-0.1l229.1,193.4c0.5,0.3,0.6,0.9,0.4,1.4
			C437.3,395.8,436.6,396,436.1,395.7z M172.8,241l254.3,147.1L207.4,202.7L172.8,241z"/>
	</g>
	<g id="triangle36_595_">
		<path class="st1" d="M436.1,395.7c-0.1,0-0.1-0.1-0.2-0.1L206.7,202.1c-0.3-0.3-0.5-0.8-0.3-1.2c0.2-0.4,0.6-0.7,1.1-0.6
			L466,230.3c0.3,0,0.5,0.2,0.7,0.4c0.2,0.2,0.2,0.5,0.2,0.8l-29.3,163.1c0,0.2,0,0.4-0.1,0.6C437.2,395.8,436.7,396,436.1,395.7
			C436.1,395.7,436.1,395.7,436.1,395.7z M210.6,202.7l225.3,190.1l28.8-160.6L210.6,202.7z"/>
	</g>
	<g id="triangle36_594_">
		<path class="st1" d="M436.1,395.7c-0.3-0.2-0.5-0.4-0.5-0.8c0-0.3,0.1-0.7,0.4-0.9l140.2-117.3c0.3-0.3,0.8-0.3,1.2-0.1
			c0.4,0.2,0.6,0.7,0.4,1.1l-43.4,162.9c-0.1,0.3-0.3,0.5-0.6,0.7c-0.3,0.1-0.6,0.1-0.9,0L436.1,395.7
			C436.1,395.7,436.1,395.7,436.1,395.7z M574.9,280.3L438.5,394.5l94.2,44.3L574.9,280.3z"/>
	</g>
	<g id="triangle36_593_">
		<path class="st1" d="M436.1,395.7C436.1,395.7,436.1,395.7,436.1,395.7c-0.4-0.2-0.6-0.7-0.5-1.1l29.3-163.4
			c0.1-0.3,0.2-0.6,0.5-0.7c0.3-0.1,0.6-0.2,0.9,0l110.9,46.1c0.3,0.1,0.6,0.4,0.6,0.8c0.1,0.4-0.1,0.7-0.4,0.9L437.2,395.6
			C436.9,395.8,436.5,395.9,436.1,395.7z M466.7,232.8l-28.6,159.4l136.7-114.4L466.7,232.8z"/>
	</g>
	<g id="triangle36_592_">
		<path class="st1" d="M30.1,406.2c-0.4-0.2-0.6-0.6-0.5-1.1c0.1-0.5,0.5-0.8,1-0.8l406-10.5c0.4,0,0.8,0.2,1,0.6l82.3,203.8
			c0.2,0.4,0.1,0.8-0.2,1.1c-0.3,0.3-0.7,0.4-1.1,0.2L30.2,406.2C30.1,406.2,30.1,406.2,30.1,406.2z M435.9,395.8L35.6,406.2
			L517,596.7L435.9,395.8z"/>
	</g>
	<g id="triangle36_591_">
		<path class="st1" d="M518.4,599.4c-0.2-0.1-0.4-0.3-0.5-0.5l-82.3-203.8c-0.2-0.4-0.1-0.8,0.2-1.1c0.3-0.3,0.8-0.4,1.1-0.2
			l96.7,45.5c0.4,0.1,0.6,0.6,0.6,1l-14.4,157.9c0.1,0.2,0,0.5-0.1,0.7C519.6,599.6,519,599.8,518.4,599.4L518.4,599.4z
			 M438.5,396.8l79.8,197.4l14-153.3L438.5,396.8z"/>
	</g>
	<g id="triangle36_590_">
		<path class="st1" d="M574.3,631.9C574.3,631.9,574.3,631.9,574.3,631.9l-56-32.5c-0.3-0.2-0.5-0.6-0.5-1l14.4-158.2
			c0-0.5,0.5-0.9,1-0.9c0.5,0,1,0.3,1.1,0.8l41.5,190.7c0.1,0.4-0.1,0.8-0.4,1C575.1,632,574.7,632.1,574.3,631.9z M520,598
			l53.3,30.9l-39.6-181.9L520,598z"/>
	</g>
	<g id="triangle36_589_">
		<path class="st1" d="M140.4,195.3c-0.2-0.1-0.3-0.2-0.4-0.4c-0.2-0.4-0.1-1,0.2-1.3l103.9-85.5c0.3-0.3,0.7-0.3,1.1-0.1
			c0.4,0.2,0.6,0.5,0.6,0.9l0.4,49.1c0,0.4-0.3,0.8-0.7,1l-104.3,36.4C140.9,195.5,140.6,195.5,140.4,195.3z M243.7,111.1L146,191.6
			l98.2-34.3L243.7,111.1z"/>
	</g>
	<g id="triangle36_588_">
		<path class="st1" d="M244.7,158.9c0,0-0.1-0.1-0.1-0.1c-0.3-0.2-0.4-0.5-0.4-0.8l-0.4-49.1c0-0.3,0.1-0.6,0.4-0.8
			c0.3-0.2,0.6-0.3,0.9-0.2l89.1,23.6c0.4,0.1,0.8,0.5,0.8,1c0,0.5-0.3,0.9-0.7,1L245.5,159C245.2,159.1,244.9,159,244.7,158.9z
			 M245.8,110.2l0.4,46.4l83.8-24.1L245.8,110.2z"/>
	</g>
	<g id="triangle36_587_">
		<path class="st1" d="M244.3,109.8c-0.3-0.2-0.6-0.6-0.5-1c0-0.5,0.4-0.9,0.9-1l130.2-18.1c0.4-0.1,0.9,0.2,1.1,0.6
			c0.2,0.4,0.1,0.9-0.2,1.2l-41.2,41.7c-0.3,0.3-0.6,0.4-1,0.3l-89.1-23.6C244.4,109.9,244.3,109.8,244.3,109.8z M372.1,92.2
			l-122.2,17l83.6,22.1L372.1,92.2z"/>
	</g>
	<g id="triangle36_586_">
		<path class="st1" d="M465.4,232.3c-0.2-0.1-0.3-0.2-0.4-0.3L374.1,91.3c-0.2-0.3-0.2-0.7,0-1.1c0.2-0.3,0.5-0.5,0.9-0.5l157.8,5.1
			c0.3,0,0.7,0.2,0.8,0.5c0.2,0.3,0.2,0.7,0,1l-66.9,135.5c-0.2,0.3-0.5,0.5-0.9,0.6C465.8,232.4,465.6,232.3,465.4,232.3z
			 M376.9,91.9l88.9,137.4l65.4-132.5L376.9,91.9z"/>
	</g>
	<g id="triangle36_585_">
		<path class="st1" d="M374.5,91.7c-0.2-0.1-0.4-0.3-0.5-0.5c-0.2-0.4-0.1-0.8,0.1-1.1l56.7-69c0.3-0.4,1-0.5,1.4-0.2L533.4,95
			c0.4,0.3,0.5,0.7,0.4,1.2c-0.1,0.4-0.6,0.7-1,0.7l-157.8-5.1C374.8,91.8,374.6,91.8,374.5,91.7z M431.9,23.1l-54.8,66.7l152.4,4.9
			L431.9,23.1z"/>
	</g>
	<g id="triangle36_584_">
		<path class="st1" d="M465.4,232.3c-0.2-0.1-0.4-0.3-0.5-0.5c-0.1-0.3-0.1-0.6,0-0.8l66.9-135.5c0.2-0.4,0.6-0.6,1-0.6
			c0.4,0.1,0.8,0.4,0.9,0.8l43.9,181.6c0.1,0.4,0,0.8-0.3,1c-0.3,0.3-0.7,0.3-1.1,0.2L465.4,232.3
			C465.5,232.3,465.4,232.3,465.4,232.3z M532.5,98.8l-65.2,132l108,44.9L532.5,98.8z"/>
	</g>
	<g id="triangle36_583_">
		<path class="st1" d="M532.3,96.7c0,0-0.1,0-0.1-0.1L431.1,22.6c-0.4-0.3-0.5-0.9-0.3-1.4l12.3-20.7c0.2-0.3,0.5-0.5,0.8-0.5
			c0.3,0,0.6,0.1,0.9,0.3L533.5,95c0.4,0.3,0.5,0.9,0.3,1.3C533.5,96.8,532.9,97,532.3,96.7C532.4,96.8,532.3,96.7,532.3,96.7z
			 M433,21.5l91.5,67L444.2,2.7L433,21.5z"/>
	</g>
	<g id="triangle36_582_">
		<path class="st1" d="M532.3,96.7c-0.1-0.1-0.2-0.1-0.3-0.2L443.2,1.7c-0.3-0.3-0.4-0.7-0.2-1.1c0.2-0.4,0.6-0.6,1-0.6l104.7,4.5
			c0.3,0,0.6,0.2,0.8,0.4c0.2,0.2,0.3,0.5,0.2,0.8l-15.8,90c0,0.2,0,0.4-0.1,0.6C533.5,96.8,532.9,97,532.3,96.7
			C532.3,96.7,532.3,96.7,532.3,96.7z M446.4,2.2l85.7,91.5l15.3-87.2L446.4,2.2z"/>
	</g>
	<g id="triangle36_578_">
		<path class="st1" d="M30.1,406.2c-0.1,0-0.1-0.1-0.2-0.1L5.6,384.4c-0.2-0.2-0.4-0.5-0.3-0.9l11.4-118.9c0.1-0.5,0.5-0.9,1-0.9
			c0.5,0,1,0.4,1,0.9l12.8,140.5c0,0.4-0.2,0.8-0.6,1C30.7,406.3,30.4,406.3,30.1,406.2z M7.4,383.3l21.9,19.5l-11.6-127L7.4,383.3z
			"/>
	</g>
	<path class="st1" d="M670,394.2l-89.7-113.9l89.7,43.6v-2.3l-92.8-45.1c-0.4-0.2-0.9-0.1-1.2,0.3c-0.3,0.4-0.3,0.9,0,1.3L670,397.5
		V394.2z"/>
	<path class="st1" d="M670,67.6L534.1,94.5l15.4-87.8L670,27.2v-2.1L548.8,4.5c-0.6-0.1-1.1,0.3-1.2,0.8l-15.8,90.3
		c-0.1,0.3,0.1,0.7,0.3,0.9c0.1,0.1,0.1,0.1,0.2,0.2c0.2,0.1,0.4,0.1,0.7,0.1l137-27.1V67.6z"/>
	<path class="st1" d="M670,321.7l-91.6-44.5L670,175.6v-3.1l-94,104.2c-0.2,0.2-0.3,0.6-0.2,0.9c0.1,0.3,0.3,0.6,0.5,0.7
		c0,0,0,0,0,0l93.7,45.6V321.7z"/>
	<path class="st1" d="M670,172.5l-92.7,102.8L534.1,96.6L670,69.7v-2.1L532.6,94.8c-0.3,0.1-0.5,0.2-0.7,0.5
		c-0.1,0.2-0.2,0.5-0.1,0.8l43.9,181.6c0.1,0.3,0.3,0.5,0.5,0.7c0.1,0,0.1,0.1,0.2,0.1c0.4,0.1,0.8,0,1-0.3L670,175.6V172.5z"/>
	<path class="st1" d="M670,511.8l-94.6,116.8l-40.8-187.2L670,452.7v-2.1l-136.6-11.3c-0.3,0-0.6,0.1-0.9,0.3
		c-0.2,0.2-0.3,0.6-0.2,0.9l41.5,190.7c0.1,0.3,0.3,0.5,0.5,0.7c0.1,0,0.2,0.1,0.2,0.1c0.4,0.1,0.8,0,1-0.4L670,515.1V511.8z"/>
	<path class="st1" d="M670,450.6l-135.4-11.2l42.6-159.7L670,397.5v-3.3l-92.5-117.4c-0.2-0.3-0.6-0.5-1-0.4
		c-0.4,0.1-0.7,0.4-0.8,0.7l-43.4,162.9c-0.1,0.3,0,0.6,0.2,0.9c0.1,0.1,0.2,0.2,0.4,0.3c0.1,0.1,0.3,0.1,0.4,0.1L670,452.6V450.6z"
		/>
</g>
</svg>
