<?xml version="1.0" encoding="utf-8"?>
<!-- Generator: Adobe Illustrator 19.1.1, SVG Export Plug-In . SVG Version: 6.00 Build 0)  -->
<svg version="1.1" id="Layer_1" xmlns="http://www.w3.org/2000/svg" xmlns:xlink="http://www.w3.org/1999/xlink" x="0px" y="0px"
	 width="82px" height="82px" viewBox="0 0 82 82" enable-background="new 0 0 82 82" xml:space="preserve">
<path fill="#010101" d="M43.5,10.953c-0.792,0-1.438,0.645-1.438,1.437s0.646,1.437,1.438,1.437
	c12.993,0,23.563,10.57,23.563,23.563c0,0.792,0.645,1.437,1.437,1.437s1.437-0.645,1.437-1.437
	C69.937,22.812,58.077,10.953,43.5,10.953z"/>
<path fill="#010101" d="M43.5,0.953c-0.792,0-1.438,0.645-1.438,1.437s0.646,1.437,1.438,1.437
	c18.507,0,33.563,15.056,33.563,33.563c0,0.792,0.645,1.437,1.437,1.437s1.437-0.645,1.437-1.437
	C79.937,17.299,63.591,0.953,43.5,0.953z"/>
<path fill="#010101" d="M79.005,53.544l-20-7.5c-0.527-0.198-1.123-0.068-1.521,0.329l-6.665,6.664l-0.73-0.511
	c-8.478-5.937-15.788-13.246-21.726-21.725l-0.511-0.731l6.665-6.665c0.397-0.397,0.526-0.995,0.329-1.521l-7.5-20
	C27.137,1.326,26.596,0.952,26,0.952h-1.398c-5.932,0-11.507,2.309-15.7,6.502c-4.411,4.411-6.839,10.275-6.839,16.511
	c0,4.128,1.1,8.196,3.181,11.766c4.945,8.478,11.041,16.3,18.118,23.248l0.51,0.501l3.543,3.277c0.225,0.2,0.456,0.393,0.682,0.592
	l-7.686,8.492l-8.44-9.848l-0.06-0.07l-0.066-0.066c-0.744-0.744-1.734-1.153-2.789-1.153c-1.055,0-2.045,0.41-2.789,1.153
	c-0.744,0.744-1.153,1.734-1.153,2.789c0,1.02,0.383,1.98,1.081,2.714l11.263,12.961l0.055,0.064l0.06,0.06
	c0.744,0.744,1.734,1.153,2.789,1.153s2.045-0.41,2.789-1.153l0.04-0.04l0.038-0.042l10.966-12.045
	c3.527,2.673,7.193,5.128,10.965,7.329c3.565,2.08,7.634,3.18,11.764,3.18c6.237,0,12.102-2.429,16.51-6.839
	c4.193-4.193,6.503-9.771,6.503-15.701V54.89C79.937,54.295,79.562,53.754,79.005,53.544z M20.362,75.497l9.571-10.575l0,0
	L20.362,75.497L10.136,63.566L20.362,75.497z M31.86,62.793l4.756-5.254c0.074-0.074,0.168-0.111,0.252-0.167
	c-0.085,0.056-0.178,0.093-0.252,0.167L31.86,62.793L31.86,62.793z M77.061,56.639c-0.09,5.026-2.1,9.756-5.658,13.316
	c-3.868,3.867-9.01,5.998-14.479,5.998c-3.621,0-7.188-0.965-10.317-2.791c-3.606-2.104-7.104-4.442-10.47-6.977l4.396-4.829
	c1.489-1.541,1.472-4.006-0.049-5.528c-0.744-0.744-1.734-1.153-2.789-1.153c-1.055,0-2.045,0.41-2.789,1.153l-0.043,0.043
	l-0.04,0.045l-4.802,5.305c-0.309-0.27-0.621-0.534-0.927-0.808l-0.839-0.749l0.016-0.017l-2.864-2.688
	c-6.906-6.773-12.855-14.403-17.682-22.678c-1.825-3.128-2.79-6.695-2.79-10.316c0-5.47,2.13-10.612,5.998-14.479
	c3.56-3.561,8.289-5.57,13.315-5.659l0.751-0.013l6.829,18.211l-6.846,6.846c-0.483,0.483-0.559,1.246-0.18,1.813
	c6.74,10.113,15.286,18.659,25.399,25.4c0.565,0.38,1.328,0.304,1.812-0.181l6.847-6.844l18.212,6.828L77.061,56.639z"/>
<path fill="#FFD700" d="M10.136,63.567l10.226,11.931l16.254-17.959c0.594-0.594,1.566-0.594,2.16,0s0.594,1.566,0,2.16
	L21.442,78.738c-0.594,0.594-1.566,0.594-2.16,0L7.976,65.727c-0.594-0.594-0.594-1.566,0-2.16
	C8.57,62.973,9.542,62.973,10.136,63.567z"/>
</svg>
