<?xml version="1.0" encoding="utf-8"?>
<!-- Generator: Adobe Illustrator 19.1.1, SVG Export Plug-In . SVG Version: 6.00 Build 0)  -->
<svg version="1.1" id="Layer_1" xmlns="http://www.w3.org/2000/svg" xmlns:xlink="http://www.w3.org/1999/xlink" x="0px" y="0px"
	 width="50px" height="50px" viewBox="0 0 50 50" enable-background="new 0 0 50 50" xml:space="preserve">
<g transform="translate(0,-952.36218)">
	<path fill="#010101" d="M37.929,998.907c0.924-0.115,1.581-0.963,1.468-1.894c-0.003-0.025-0.007-0.05-0.011-0.074l-2.152-13.179
		l9.42-9.392c0.662-0.66,0.667-1.736,0.011-2.403c-0.254-0.258-0.582-0.427-0.938-0.483l-13.112-2.019l-5.943-11.944
		c-0.418-0.838-1.432-1.176-2.264-0.755c-0.324,0.164-0.586,0.429-0.749,0.755l-5.943,11.944l-13.112,2.019
		c-0.92,0.144-1.55,1.013-1.406,1.941c0.055,0.359,0.223,0.69,0.479,0.945l9.42,9.392l-2.152,13.179
		c-0.155,0.925,0.464,1.802,1.383,1.958c0.365,0.062,0.74,0.001,1.068-0.173l11.771-6.139l11.771,6.139
		C37.241,998.885,37.587,998.949,37.929,998.907L37.929,998.907z M35.512,994.152l-9.569-4.988c-0.488-0.256-1.069-0.256-1.556,0
		l-9.569,4.988l1.755-10.71c0.089-0.544-0.09-1.098-0.48-1.485l-7.665-7.64l10.645-1.618c0.543-0.081,1.012-0.424,1.258-0.918
		l4.834-9.709l4.834,9.709c0.246,0.494,0.716,0.836,1.258,0.918l10.645,1.618l-7.665,7.64c-0.39,0.387-0.569,0.941-0.48,1.485
		L35.512,994.152z"/>
</g>
</svg>
