<?xml version="1.0" encoding="UTF-8" standalone="no"?>
<!-- Generator: Adobe Illustrator 19.1.1, SVG Export Plug-In . SVG Version: 6.00 Build 0)  -->

<svg
   xmlns:dc="http://purl.org/dc/elements/1.1/"
   xmlns:cc="http://creativecommons.org/ns#"
   xmlns:rdf="http://www.w3.org/1999/02/22-rdf-syntax-ns#"
   xmlns:svg="http://www.w3.org/2000/svg"
   xmlns="http://www.w3.org/2000/svg"
   xmlns:sodipodi="http://sodipodi.sourceforge.net/DTD/sodipodi-0.dtd"
   xmlns:inkscape="http://www.inkscape.org/namespaces/inkscape"
   version="1.1"
   id="Layer_1"
   x="0px"
   y="0px"
   width="15px"
   height="10px"
   viewBox="0 0 15 10"
   enable-background="new 0 0 15 10"
   xml:space="preserve"
   inkscape:version="0.91 r13725"
   sodipodi:docname="select (v) button_active.svg"><metadata
     id="metadata9"><rdf:RDF><cc:Work
         rdf:about=""><dc:format>image/svg+xml</dc:format><dc:type
           rdf:resource="http://purl.org/dc/dcmitype/StillImage" /><dc:title></dc:title></cc:Work></rdf:RDF></metadata><defs
     id="defs7" /><sodipodi:namedview
     pagecolor="#ffffff"
     bordercolor="#666666"
     borderopacity="1"
     objecttolerance="10"
     gridtolerance="10"
     guidetolerance="10"
     inkscape:pageopacity="0"
     inkscape:pageshadow="2"
     inkscape:window-width="1366"
     inkscape:window-height="705"
     id="namedview5"
     showgrid="false"
     inkscape:zoom="19.2"
     inkscape:cx="7.5"
     inkscape:cy="5"
     inkscape:window-x="-8"
     inkscape:window-y="-8"
     inkscape:window-maximized="1"
     inkscape:current-layer="Layer_1" /><path
     fill="#B7B7B8"
     d="M14.22,0.241c-0.403-0.358-1.02-0.321-1.378,0.082c-0.005,0.006-0.01,0.012-0.015,0.018L6.698,7.572  L2.212,3.637C1.808,3.281,1.192,3.32,0.836,3.724C0.831,3.73,0.825,3.736,0.82,3.742c-0.357,0.421-0.313,1.05,0.1,1.417l5.235,4.593  c0.404,0.358,1.021,0.32,1.379-0.084c0.005-0.005,0.009-0.011,0.014-0.016C7.551,9.648,7.552,9.644,7.555,9.64l6.765-7.981  C14.677,1.238,14.633,0.608,14.22,0.241z"
     id="path3" /><path
     style="fill:#008000"
     d="M 6.4010417,9.8839026 C 6.207525,9.7967698 0.92445939,5.1612174 0.76377151,4.9375587 0.49815456,4.5678509 0.57772183,3.9745531 0.93498862,3.6608687 1.2414852,3.3917611 1.640087,3.3431523 2.0063744,3.5302149 2.0814948,3.5685789 3.1596198,4.4914224 4.4022077,5.5809781 5.6447955,6.6705344 6.6770844,7.5621042 6.6961833,7.5622443 6.7152823,7.5624005 8.1383031,5.9013052 9.8584526,3.870956 13.19198,-0.06371638 13.122433,0.00847242 13.576575,0.01156052 14.298882,0.01647214 14.778899,0.88319438 14.40045,1.499156 14.349124,1.5826931 12.768696,3.4674479 10.888387,5.6875 8.6793521,8.2956745 7.4003755,9.7651214 7.2738844,9.8402891 7.0472406,9.9749729 6.6476469,9.9949396 6.4010417,9.8839026 Z"
     id="path3339"
     inkscape:connector-curvature="0" /></svg>