<?xml version="1.0" encoding="UTF-8" standalone="no"?>
<!-- Generator: Adobe Illustrator 19.1.1, SVG Export Plug-In . SVG Version: 6.00 Build 0)  -->

<svg
   xmlns:dc="http://purl.org/dc/elements/1.1/"
   xmlns:cc="http://creativecommons.org/ns#"
   xmlns:rdf="http://www.w3.org/1999/02/22-rdf-syntax-ns#"
   xmlns:svg="http://www.w3.org/2000/svg"
   xmlns="http://www.w3.org/2000/svg"
   xmlns:sodipodi="http://sodipodi.sourceforge.net/DTD/sodipodi-0.dtd"
   xmlns:inkscape="http://www.inkscape.org/namespaces/inkscape"
   version="1.1"
   id="Layer_1"
   x="0px"
   y="0px"
   width="11px"
   height="11px"
   viewBox="0 0 11 11"
   enable-background="new 0 0 11 11"
   xml:space="preserve"
   inkscape:version="0.91 r13725"
   sodipodi:docname="select (x) button_active.svg"><metadata
     id="metadata9"><rdf:RDF><cc:Work
         rdf:about=""><dc:format>image/svg+xml</dc:format><dc:type
           rdf:resource="http://purl.org/dc/dcmitype/StillImage" /><dc:title></dc:title></cc:Work></rdf:RDF></metadata><defs
     id="defs7" /><sodipodi:namedview
     pagecolor="#ffffff"
     bordercolor="#666666"
     borderopacity="1"
     objecttolerance="10"
     gridtolerance="10"
     guidetolerance="10"
     inkscape:pageopacity="0"
     inkscape:pageshadow="2"
     inkscape:window-width="1366"
     inkscape:window-height="705"
     id="namedview5"
     showgrid="false"
     inkscape:zoom="21.454545"
     inkscape:cx="5.5"
     inkscape:cy="5.5"
     inkscape:window-x="-8"
     inkscape:window-y="-8"
     inkscape:window-maximized="1"
     inkscape:current-layer="Layer_1" /><path
     fill="#B7B7B8"
     d="M7.061,5.467l3.12-3.12c0.002-0.002,0.004-0.004,0.005-0.005c0.428-0.431,0.426-1.128-0.005-1.556  c-0.002-0.001-0.004-0.003-0.005-0.004C9.745,0.354,9.048,0.356,8.62,0.787L5.5,3.906l-3.12-3.12H2.379  C1.948,0.357,1.25,0.357,0.82,0.789C0.39,1.22,0.39,1.918,0.821,2.348L3.94,5.467l-3.12,3.12c-0.431,0.431-0.431,1.13,0,1.561  s1.13,0.431,1.561,0l3.12-3.12l3.12,3.12c0.431,0.431,1.13,0.431,1.56,0s0.431-1.13,0-1.56L7.061,5.467z"
     id="path3" /><path
     style="fill:#ff0000"
     d="M 1.2130187,10.381525 C 0.98404919,10.299909 0.73138595,10.061026 0.61990828,9.8207627 0.49984645,9.5619984 0.50386308,9.1499016 0.6288988,8.8983549 0.69167116,8.7720698 1.3020649,8.1248657 2.3412568,7.0827313 L 3.9560718,5.4633444 2.3157603,3.8200195 C 1.2131889,2.7154228 0.65182995,2.1198852 0.60340236,2.0034039 0.51461324,1.7898421 0.50994669,1.3625023 0.59420797,1.1614267 0.68755437,0.93867092 0.89140999,0.71730103 1.1081936,0.60328186 1.3733862,0.46380164 1.8338215,0.46327784 2.0927966,0.60216176 2.1959496,0.65748095 2.9973436,1.4217796 3.8867289,2.3130555 L 5.4942203,3.9239643 7.1261356,2.2979232 C 8.023689,1.4036006 8.8258565,0.63781455 8.9087308,0.59617643 9.4347149,0.33190754 10.09761,0.55869021 10.375632,1.0980166 c 0.127062,0.246485 0.135311,0.6822502 0.01733,0.9155427 -0.04538,0.089725 -0.8194369,0.902214 -1.7201365,1.805532 L 7.0351908,5.4614879 8.694875,7.1284134 c 1.786944,1.7947405 1.784339,1.7914134 1.779841,2.2734171 -0.0035,0.3708095 -0.25153,0.7645185 -0.5929578,0.9410775 -0.075187,0.03888 -0.2546775,0.08139 -0.3988665,0.09446 -0.4955878,0.04494 -0.5428855,0.0087 -2.357074,-1.8060458 L 5.4970114,7.0020206 3.8182091,8.6714184 C 2.4000189,10.081664 2.1096248,10.34929 1.9475584,10.395408 c -0.249902,0.07111 -0.5098752,0.0662 -0.7345397,-0.01388 z"
     id="path3337"
     inkscape:connector-curvature="0" /></svg>