<?xml version="1.0" encoding="utf-8"?>
<!-- Generator: Adobe Illustrator 19.1.1, SVG Export Plug-In . SVG Version: 6.00 Build 0)  -->
<svg version="1.1" id="Layer_1" xmlns="http://www.w3.org/2000/svg" xmlns:xlink="http://www.w3.org/1999/xlink" x="0px" y="0px"
	 width="15px" height="10px" viewBox="0 0 15 10" enable-background="new 0 0 15 10" xml:space="preserve">
<path fill="#B7B7B8" d="M14.22,0.241c-0.403-0.358-1.02-0.321-1.378,0.082c-0.005,0.006-0.01,0.012-0.015,0.018L6.698,7.572
	L2.212,3.637C1.808,3.281,1.192,3.32,0.836,3.724C0.831,3.73,0.825,3.736,0.82,3.742c-0.357,0.421-0.313,1.05,0.1,1.417l5.235,4.593
	c0.404,0.358,1.021,0.32,1.379-0.084c0.005-0.005,0.009-0.011,0.014-0.016C7.551,9.648,7.552,9.644,7.555,9.64l6.765-7.981
	C14.677,1.238,14.633,0.608,14.22,0.241z"/>
</svg>
