<?xml version="1.0" encoding="utf-8"?>
<!-- Generator: Adobe Illustrator 19.1.1, SVG Export Plug-In . SVG Version: 6.00 Build 0)  -->
<svg version="1.1" id="Layer_1" xmlns="http://www.w3.org/2000/svg" xmlns:xlink="http://www.w3.org/1999/xlink" x="0px" y="0px"
	 width="11px" height="11px" viewBox="0 0 11 11" enable-background="new 0 0 11 11" xml:space="preserve">
<path fill="#B7B7B8" d="M7.061,5.467l3.12-3.12c0.002-0.002,0.004-0.004,0.005-0.005c0.428-0.431,0.426-1.128-0.005-1.556
	c-0.002-0.001-0.004-0.003-0.005-0.004C9.745,0.354,9.048,0.356,8.62,0.787L5.5,3.906l-3.12-3.12H2.379
	C1.948,0.357,1.25,0.357,0.82,0.789C0.39,1.22,0.39,1.918,0.821,2.348L3.94,5.467l-3.12,3.12c-0.431,0.431-0.431,1.13,0,1.561
	s1.13,0.431,1.561,0l3.12-3.12l3.12,3.12c0.431,0.431,1.13,0.431,1.56,0s0.431-1.13,0-1.56L7.061,5.467z"/>
</svg>
