<?xml version="1.0" encoding="utf-8"?>
<!-- Generator: Adobe Illustrator 19.1.1, SVG Export Plug-In . SVG Version: 6.00 Build 0)  -->
<svg version="1.1" id="Layer_1" xmlns="http://www.w3.org/2000/svg" xmlns:xlink="http://www.w3.org/1999/xlink" x="0px" y="0px"
	 width="20px" height="12px" viewBox="0 0 20 12" enable-background="new 0 0 20 12" xml:space="preserve">
<path fill="#FFFFFF" d="M5.496,11.806c0.259,0.259,0.682,0.259,0.944-0.001c0.259-0.259,0.259-0.682-0.001-0.942l-4.011-4.01h16.743
	c0.369,0,0.67-0.301,0.67-0.67c0-0.369-0.301-0.669-0.67-0.669H2.486L6.85,1.15c0.128-0.127,0.199-0.298,0.199-0.48
	c0-0.183-0.071-0.354-0.199-0.482C6.598-0.063,6.139-0.063,5.888,0.189L0.381,5.703C0.229,5.847,0.16,6.015,0.16,6.192
	c0,0.178,0.069,0.345,0.195,0.471L5.496,11.806z"/>
</svg>
