<?xml version="1.0" encoding="utf-8"?>
<!-- Generator: Adobe Illustrator 19.1.1, SVG Export Plug-In . SVG Version: 6.00 Build 0)  -->
<svg version="1.1" id="Layer_1" xmlns="http://www.w3.org/2000/svg" xmlns:xlink="http://www.w3.org/1999/xlink" x="0px" y="0px"
	 width="20px" height="12px" viewBox="0 0 20 12" enable-background="new 0 0 20 12" xml:space="preserve">
<path fill="#FFFFFF" d="M19.646,6.663c0.126-0.126,0.195-0.293,0.195-0.471c0-0.177-0.069-0.345-0.221-0.489l-5.507-5.514
	c-0.251-0.252-0.71-0.252-0.962-0.001c-0.128,0.128-0.199,0.299-0.199,0.482c0,0.182,0.071,0.353,0.199,0.48l4.364,4.364H0.83
	c-0.369,0-0.67,0.3-0.67,0.669c0,0.369,0.301,0.67,0.67,0.67h16.743l-4.011,4.01c-0.26,0.26-0.26,0.683-0.001,0.942
	c0.262,0.26,0.685,0.26,0.944,0.001L19.646,6.663z"/>
</svg>
