<?xml version="1.0" encoding="utf-8"?>
<!-- Generator: Adobe Illustrator 19.1.1, SVG Export Plug-In . SVG Version: 6.00 Build 0)  -->
<svg version="1.1" id="Layer_1" xmlns="http://www.w3.org/2000/svg" xmlns:xlink="http://www.w3.org/1999/xlink" x="0px" y="0px"
	 width="122px" height="122px" viewBox="0 0 122 122" enable-background="new 0 0 122 122" xml:space="preserve">
<path fill="#010101" d="M64.72,15.44c-1.178,0-2.14,0.96-2.14,2.138c0,1.179,0.961,2.138,2.14,2.138
	c19.333,0,35.061,15.728,35.061,35.061c0,1.178,0.96,2.138,2.138,2.138c1.178,0,2.138-0.96,2.138-2.138
	C104.058,33.086,86.41,15.44,64.72,15.44z"/>
<path fill="#010101" d="M64.72,0.56c-1.178,0-2.14,0.96-2.14,2.138s0.961,2.138,2.14,2.138c27.538,0,49.941,22.403,49.941,49.941
	c0,1.178,0.96,2.138,2.138,2.138c1.178,0,2.138-0.96,2.138-2.138C118.938,24.883,94.615,0.56,64.72,0.56z"/>
<path fill="#010101" d="M117.551,78.815l-29.76-11.16c-0.784-0.295-1.671-0.101-2.263,0.49l-9.917,9.916l-1.086-0.76
	c-12.615-8.834-23.492-19.71-32.328-32.326l-0.76-1.088l9.917-9.917c0.591-0.591,0.783-1.481,0.49-2.263l-11.16-29.76
	c-0.311-0.83-1.116-1.387-2.003-1.387H36.6c-8.827,0-17.122,3.436-23.361,9.675C6.675,16.797,3.062,25.522,3.062,34.802
	c0,6.142,1.637,12.196,4.733,17.508c7.358,12.615,16.429,24.254,26.959,34.593l0.759,0.745l5.272,4.876
	c0.335,0.298,0.679,0.585,1.015,0.881L30.364,106.04L17.805,91.387l-0.089-0.104l-0.098-0.098c-1.107-1.107-2.58-1.716-4.15-1.716
	c-1.57,0-3.043,0.61-4.15,1.716c-1.107,1.107-1.716,2.58-1.716,4.15c0,1.518,0.57,2.946,1.609,4.038l16.759,19.286l0.082,0.095
	l0.089,0.089c1.107,1.107,2.58,1.716,4.15,1.716s3.043-0.61,4.15-1.716l0.06-0.06l0.057-0.062l16.317-17.923
	c5.248,3.977,10.703,7.63,16.316,10.905c5.305,3.095,11.359,4.732,17.505,4.732c9.281,0,18.008-3.614,24.567-10.176
	c6.239-6.239,9.676-14.539,9.676-23.363v-2.079C118.938,79.932,118.38,79.127,117.551,78.815z M31.898,116.301
	c-0.442,0.442-1.024,0.662-1.607,0.662c-0.583,0-1.165-0.22-1.607-0.662l-16.823-19.36c-0.442-0.442-0.662-1.024-0.662-1.607
	c0-0.582,0.22-1.165,0.662-1.607c0.442-0.442,1.024-0.662,1.607-0.662c0.582,0,1.165,0.22,1.607,0.662l15.216,17.753l14.241-15.735
	l0,0l2.867-3.168l0,0l7.077-7.818c0.11-0.11,0.25-0.165,0.375-0.248c0.378-0.248,0.795-0.414,1.232-0.414
	c0.582,0,1.165,0.22,1.607,0.662c0.884,0.884,0.884,2.33,0,3.214L31.898,116.301z M114.658,83.42
	c-0.134,7.479-3.125,14.517-8.419,19.814c-5.756,5.754-13.407,8.925-21.545,8.925c-5.388,0-10.696-1.436-15.352-4.153
	c-5.366-3.131-10.571-6.61-15.579-10.382l6.541-7.185c2.216-2.293,2.19-5.961-0.073-8.226c-1.107-1.107-2.58-1.716-4.15-1.716
	c-1.57,0-3.043,0.61-4.15,1.716l-0.064,0.064l-0.06,0.067l-7.145,7.894c-0.46-0.402-0.924-0.795-1.379-1.202l-1.248-1.114
	l0.024-0.025l-4.262-4C27.522,73.818,18.67,62.465,11.487,50.152c-2.716-4.654-4.151-9.962-4.151-15.35
	c0-8.139,3.169-15.79,8.925-21.545c5.297-5.299,12.334-8.288,19.813-8.42l1.117-0.019l10.161,27.098L37.165,42.102
	c-0.719,0.719-0.832,1.854-0.268,2.698c10.029,15.048,22.745,27.764,37.793,37.795c0.841,0.565,1.976,0.452,2.696-0.269
	l10.188-10.184l27.099,10.16L114.658,83.42z"/>
<path fill="#FFD700" d="M15.075,93.729l15.216,17.753l24.186-26.723c0.884-0.884,2.33-0.884,3.214,0c0.884,0.884,0.884,2.33,0,3.214
	l-25.793,28.33c-0.884,0.884-2.33,0.884-3.214,0l-16.823-19.36c-0.884-0.884-0.884-2.33,0-3.214
	C12.745,92.845,14.191,92.845,15.075,93.729z"/>
</svg>
