<?xml version="1.0" encoding="utf-8"?>
<!-- Generator: Adobe Illustrator 19.1.1, SVG Export Plug-In . SVG Version: 6.00 Build 0)  -->
<svg version="1.1" id="Layer_1" xmlns="http://www.w3.org/2000/svg" xmlns:xlink="http://www.w3.org/1999/xlink" x="0px" y="0px"
	 width="31px" height="12px" viewBox="0 0 31 12" enable-background="new 0 0 31 12" xml:space="preserve">
<path fill="#FFFFFF" d="M0.692,5.348C0.568,5.472,0.5,5.636,0.5,5.811s0.068,0.339,0.217,0.48l5.414,5.42
	c0.247,0.248,0.697,0.248,0.946,0.001c0.125-0.125,0.195-0.293,0.195-0.473c0-0.178-0.069-0.346-0.195-0.472l-4.29-4.289h27.055
	c0.363,0,0.658-0.295,0.658-0.658s-0.295-0.658-0.658-0.658H2.73L6.673,1.22c0.256-0.256,0.256-0.671,0.001-0.926
	C6.417,0.038,6.001,0.038,5.746,0.293L0.692,5.348z"/>
</svg>
