<?xml version="1.0" encoding="UTF-8" standalone="no"?>
<svg
   xmlns:dc="http://purl.org/dc/elements/1.1/"
   xmlns:cc="http://creativecommons.org/ns#"
   xmlns:rdf="http://www.w3.org/1999/02/22-rdf-syntax-ns#"
   xmlns:svg="http://www.w3.org/2000/svg"
   xmlns="http://www.w3.org/2000/svg"
   xml:space="preserve"
   enable-background="new 0 0 445 445"
   viewBox="0 0 414.95901 414.95901"
   height="414.95901"
   width="414.95901"
   y="0px"
   x="0px"
   id="Layer_1"
   version="1.1"><metadata
     id="metadata11"><rdf:RDF><cc:Work
         rdf:about=""><dc:format>image/svg+xml</dc:format><dc:type
           rdf:resource="http://purl.org/dc/dcmitype/StillImage" /><dc:title></dc:title></cc:Work></rdf:RDF></metadata><defs
     id="defs9" /><polygon
     transform="translate(-15.042,-15.042)"
     style="fill:#4d75a3"
     id="polygon3"
     points="15.042,15.042 15.042,78.984 15.042,84.667 15.042,360.376 15.042,366.059 15.042,430.001 78.984,430.001 78.984,430.001 366.059,430.001 430.001,430.001 430.001,366.059 430.001,360.376 430.001,84.667 430.001,78.984 430.001,15.042 366.059,15.042 78.984,15.042 78.984,15.042 " /><path
     style="clip-rule:evenodd;fill:#ffffff;fill-rule:evenodd"
     id="path5"
     d="m 349.78,295.24 -38.452,0 c -12.557,0 -14.126,-9.154 -37.146,-31.128 -19.418,-19.152 -27.728,-20.665 -32.436,-20.665 -4.186,0 -7.063,3.138 -7.063,10.463 l 0,29.298 c 0,8.633 -4.97,12.033 -25.374,12.033 -33.483,0 -70.627,-20.665 -98.877,-58.855 -42.116,-56.764 -52.84,-99.141 -52.84,-108.297 0,-4.97 3.662,-8.369 8.632,-8.369 l 34.267,0 c 8.894,0 12.294,2.616 15.434,12.033 15.695,46.039 43.684,86.584 55.455,86.584 4.447,0 4.97,-3.662 4.97,-13.079 l 0,-46.823 c 0,-22.694 -12.818,-24.584 -12.818,-32.96 0,-3.321 2.616,-5.754 6.801,-5.754 l 54.933,0 c 7.324,0 8.37,2.616 8.37,11.51 l 0,63.564 c 0,7.255 1.487,9.94 4.708,9.94 3.995,0 7.674,-2.42 14.911,-10.462 22.542,-24.875 41.069,-64.35 41.069,-64.35 2.353,-4.97 5.231,-8.372 13.079,-8.372 11.509,0 34.267,0 34.267,0 6.802,0 9.679,3.664 8.372,10.203 -3.925,18.311 -43.424,74.028 -43.424,74.028 -3.662,5.754 -5.231,8.894 0,14.387 3.663,4.708 15.172,14.91 22.235,24.326 17.265,18.311 28.513,33.744 28.513,42.377 0,6.537 -3.662,8.368 -7.586,8.368 z" /></svg>